<svg id="Layer_1" data-name="Layer 1" xmlns="http://www.w3.org/2000/svg" xmlns:xlink="http://www.w3.org/1999/xlink" viewBox="0 0 505 61"><defs><style>.cls-1{fill:#fff;stroke:#000;stroke-width:2px;}.cls-1,.cls-7{stroke-miterlimit:10;}.cls-2{fill:url(#linear-gradient);}.cls-3{fill:url(#linear-gradient-2);}.cls-4{fill:url(#linear-gradient-3);}.cls-5{fill:url(#linear-gradient-4);}.cls-6{fill:url(#linear-gradient-5);}.cls-7{fill:none;stroke:#d4145a;}.cls-8{fill:#d4145a;}</style><linearGradient id="linear-gradient" x1="-631.52" y1="4368.47" x2="-631.44" y2="4368.47" gradientTransform="translate(310356.73 44851.06) rotate(90) scale(70.98)" gradientUnits="userSpaceOnUse"><stop offset="0" stop-color="#5f1318"/><stop offset="0.3" stop-color="#5f1318"/><stop offset="0.78" stop-color="#7f1620"/><stop offset="1" stop-color="#7f1620"/></linearGradient><linearGradient id="linear-gradient-2" x1="-633.03" y1="4371.54" x2="-632.95" y2="4371.54" gradientTransform="translate(68666.65 -472227.69) scale(108.03)" gradientUnits="userSpaceOnUse"><stop offset="0" stop-color="#c90d0d"/><stop offset="0.39" stop-color="#e3322f"/><stop offset="0.67" stop-color="#de3d3b"/><stop offset="1" stop-color="#de3d3b"/></linearGradient><linearGradient id="linear-gradient-3" x1="-633.11" y1="4371.43" x2="-633.03" y2="4371.43" gradientTransform="translate(91653.78 -630902.54) scale(144.33)" gradientUnits="userSpaceOnUse"><stop offset="0" stop-color="#ba0000"/><stop offset="0.27" stop-color="#ca0e0e"/><stop offset="0.74" stop-color="#e3322f"/><stop offset="1" stop-color="#e3322f"/></linearGradient><linearGradient id="linear-gradient-4" x1="-634.97" y1="4371.7" x2="-634.89" y2="4371.7" gradientTransform="translate(-254805.97 -37010.22) rotate(-90) scale(58.35)" gradientUnits="userSpaceOnUse"><stop offset="0" stop-color="#018845"/><stop offset="0.38" stop-color="#016a37"/><stop offset="0.76" stop-color="#1d4c36"/><stop offset="1" stop-color="#1d4c36"/></linearGradient><linearGradient id="linear-gradient-5" x1="-633.1" y1="4369.33" x2="-633.02" y2="4369.33" gradientTransform="translate(516868.35 74881.98) rotate(90) scale(118.23)" gradientUnits="userSpaceOnUse"><stop offset="0" stop-color="#006535"/><stop offset="0.4" stop-color="#038e47"/><stop offset="1" stop-color="#199e4a"/></linearGradient></defs><rect class="cls-1" x="190.5" y="15.5" width="120" height="34"/><path d="M214.49,33.75a3.68,3.68,0,0,0,1.87.53c1.07,0,1.69-.57,1.69-1.38s-.43-1.19-1.52-1.61c-1.32-.47-2.13-1.15-2.13-2.29A2.32,2.32,0,0,1,217,26.81a3.73,3.73,0,0,1,1.79.39l-.29.85a3.25,3.25,0,0,0-1.54-.38c-1.1,0-1.52.66-1.52,1.21,0,.76.49,1.13,1.61,1.56,1.37.53,2.06,1.19,2.06,2.37s-.92,2.33-2.83,2.33a4.25,4.25,0,0,1-2.06-.51Z"/><path d="M224.73,34.81a4,4,0,0,1-1.67.33,2.76,2.76,0,0,1-2.89-3,2.94,2.94,0,0,1,3.12-3.08,3.44,3.44,0,0,1,1.46.3l-.24.81a2.5,2.5,0,0,0-1.22-.27,2,2,0,0,0-2,2.19,2,2,0,0,0,2,2.17,2.9,2.9,0,0,0,1.3-.29Z"/><path d="M229.18,35l-.09-.73h0a2.16,2.16,0,0,1-1.78.86,1.65,1.65,0,0,1-1.77-1.66c0-1.41,1.25-2.17,3.49-2.16v-.12a1.2,1.2,0,0,0-1.32-1.35,2.84,2.84,0,0,0-1.51.44l-.24-.7a3.6,3.6,0,0,1,1.9-.51c1.78,0,2.21,1.21,2.21,2.37v2.17a8.32,8.32,0,0,0,.1,1.39Zm-.16-3c-1.15,0-2.46.18-2.46,1.31a.93.93,0,0,0,1,1,1.45,1.45,0,0,0,1.4-1,1,1,0,0,0,.06-.33Z"/><path d="M231.75,26.51h1.05V35h-1.05Z"/><path d="M237.79,35l-.08-.73h0a2.13,2.13,0,0,1-1.77.86,1.65,1.65,0,0,1-1.78-1.66c0-1.41,1.25-2.17,3.49-2.16v-.12a1.2,1.2,0,0,0-1.31-1.35,2.88,2.88,0,0,0-1.52.44l-.24-.7a3.63,3.63,0,0,1,1.91-.51c1.78,0,2.21,1.21,2.21,2.37v2.17a8.39,8.39,0,0,0,.09,1.39Zm-.15-3c-1.15,0-2.46.18-2.46,1.31a.93.93,0,0,0,1,1,1.45,1.45,0,0,0,1.4-1,1.36,1.36,0,0,0,.06-.33Z"/><path d="M242.81,31.39v.78h-3v-.78Z"/><path d="M249.9,34.76a5.2,5.2,0,0,1-2.13.38,3.78,3.78,0,0,1-4-4.09A4,4,0,0,1,248,26.81a4.22,4.22,0,0,1,1.92.36l-.25.85a3.8,3.8,0,0,0-1.63-.34A3,3,0,0,0,244.88,31a2.93,2.93,0,0,0,3.1,3.25,4.26,4.26,0,0,0,1.71-.34Z"/><path d="M251.21,26.94h1v7.21h3.46V35h-4.5Z"/><path d="M257.92,26.94V35h-1V26.94Z"/><polygon class="cls-2" points="289 28.02 276.97 25.01 276.97 29.52 289 32.53 289 28.02"/><polygon class="cls-3" points="289 28.02 289 32.52 280 30.27 289 28.02"/><polygon class="cls-4" points="276.97 25.01 289 22 289 26.51 276.97 29.52 276.97 25.01"/><polygon class="cls-5" points="276.97 37.03 289 34.03 289 38.53 276.97 41.54 276.97 37.03"/><polygon class="cls-6" points="289 34.03 276.97 31.02 276.97 35.53 289 38.53 289 34.03"/><path d="M27.56,34a3.57,3.57,0,0,1,.09-.8l.6-3H29l-.58,2.89a3.35,3.35,0,0,0-.09.67.69.69,0,0,0,.77.75,2.87,2.87,0,0,0,2-1.17l.63-3.14h.78l-1,4.86h-.64l.13-1h0a3.22,3.22,0,0,1-2.16,1.11A1.11,1.11,0,0,1,27.56,34Z"/><path d="M33.55,34.28l.45-.49a2.41,2.41,0,0,0,1.84.78c.68,0,1.18-.24,1.18-.77s-.47-.65-1.28-.92c-1-.34-1.46-.75-1.46-1.43,0-.93.83-1.38,1.82-1.38a2.84,2.84,0,0,1,2,.79l-.43.48A2.53,2.53,0,0,0,36,30.67c-.63,0-1,.26-1,.69s.42.65,1.2.92,1.54.63,1.54,1.42c0,1-.91,1.47-2,1.47A2.93,2.93,0,0,1,33.55,34.28Z"/><path d="M39.63,33.07a2.87,2.87,0,0,1,2.77-3,1.74,1.74,0,0,1,1.85,1.87,3.13,3.13,0,0,1-.13.87h-3.9l.1-.6h3.47l-.32.15a1.68,1.68,0,0,0,.06-.45,1.11,1.11,0,0,0-1.17-1.23,2.21,2.21,0,0,0-2,2.35,1.38,1.38,0,0,0,1.46,1.53,2.68,2.68,0,0,0,1.66-.63l.29.52a3.46,3.46,0,0,1-2.1.72A1.91,1.91,0,0,1,39.63,33.07Z"/><path d="M46.93,30.18h.64l-.21,1.39h0a2.9,2.9,0,0,1,2.18-1.51,1.71,1.71,0,0,1,1,.25l-.31.66a1.46,1.46,0,0,0-.81-.21c-.75,0-1.53.71-2.19,1.76l-.51,2.52H46Z"/><path d="M53.21,30.87a1.94,1.94,0,0,0,1.49-1.49v-.85l.39.75a1,1,0,0,1-.68.29.55.55,0,0,1-.53-.62.86.86,0,0,1,.84-.89c.43,0,.75.29.75.9a2.58,2.58,0,0,1-2.14,2.37Z"/><path d="M57.55,34.28l.45-.49a2.41,2.41,0,0,0,1.84.78c.68,0,1.18-.24,1.18-.77s-.47-.65-1.28-.92c-1-.34-1.46-.75-1.46-1.43,0-.93.83-1.38,1.82-1.38a2.84,2.84,0,0,1,2,.79l-.43.48A2.53,2.53,0,0,0,60,30.67c-.63,0-1,.26-1,.69s.42.65,1.2.92,1.54.63,1.54,1.42c0,1-.91,1.47-2,1.47A2.93,2.93,0,0,1,57.55,34.28Z"/><path d="M69.55,34.28l.45-.49a2.41,2.41,0,0,0,1.84.78c.68,0,1.18-.24,1.18-.77s-.47-.65-1.28-.92c-1-.34-1.46-.75-1.46-1.43,0-.93.83-1.38,1.82-1.38a2.84,2.84,0,0,1,2,.79l-.43.48A2.53,2.53,0,0,0,72,30.67c-.63,0-1,.26-1,.69s.42.65,1.2.92,1.54.63,1.54,1.42c0,1-.91,1.47-2,1.47A2.93,2.93,0,0,1,69.55,34.28Z"/><path d="M75.67,33a2.92,2.92,0,0,1,2.93-3,2.27,2.27,0,0,1,1.83.87l-.5.44a1.7,1.7,0,0,0-1.43-.66,2.22,2.22,0,0,0-2,2.22A1.44,1.44,0,0,0,78,34.52a2.37,2.37,0,0,0,1.55-.67l.31.53a3,3,0,0,1-2,.79A2,2,0,0,1,75.67,33Z"/><path d="M82.93,30.18h.64l-.21,1.39h0a2.9,2.9,0,0,1,2.18-1.51,1.71,1.71,0,0,1,1,.25l-.31.66a1.46,1.46,0,0,0-.81-.21c-.75,0-1.53.71-2.19,1.76l-.51,2.52H82Z"/><path d="M89.16,34a2.76,2.76,0,0,1,.07-.54l.59-2.6H88l.13-.62h2.54L90,33.49a1.2,1.2,0,0,0,0,.31.65.65,0,0,0,.74.72,2.36,2.36,0,0,0,.93-.25l.18.58a3,3,0,0,1-1.33.32A1.17,1.17,0,0,1,89.16,34Zm.69-5.33a.7.7,0,0,1,.69-.69.52.52,0,0,1,.58.54.69.69,0,0,1-.7.69A.52.52,0,0,1,89.85,28.62Z"/><path d="M94.33,30.19H95l-.09.75h0a2.75,2.75,0,0,1,1.79-.87c1,0,1.66.69,1.66,1.93,0,1.76-1.07,3.17-2.67,3.17a1.84,1.84,0,0,1-1.46-.7h0l-.18,1-.3,1.59H93Zm3.25,1.92c0-.94-.45-1.39-1.13-1.39a2.44,2.44,0,0,0-1.63.93l-.45,2.18a1.47,1.47,0,0,0,1.28.69A2.19,2.19,0,0,0,97.58,32.11Z"/><path d="M100.59,33.78a2.86,2.86,0,0,1,.08-.63l.48-2.34H99.74l.11-.57,1.46,0,.42-1.56h.64l-.32,1.56h2.39l-.13.62h-2.4l-.49,2.36a1.91,1.91,0,0,0,0,.44.81.81,0,0,0,.9.91,2.54,2.54,0,0,0,1.26-.35l.25.56a3.32,3.32,0,0,1-1.71.44A1.3,1.3,0,0,1,100.59,33.78Z"/><line class="cls-7" x1="111.44" y1="32.5" x2="175.69" y2="32.5"/><polygon class="cls-8" points="173.7 34.2 175.4 32.5 173.7 30.8 175.14 30.8 176.83 32.5 175.14 34.2 173.7 34.2"/><path class="cls-8" d="M127.22,25.69l.45-.49a2.41,2.41,0,0,0,1.84.78c.68,0,1.17-.24,1.17-.77s-.47-.65-1.27-.92c-1-.34-1.46-.75-1.46-1.42,0-.93.83-1.38,1.82-1.38a2.84,2.84,0,0,1,2,.79l-.43.48a2.52,2.52,0,0,0-1.67-.67c-.63,0-1,.26-1,.69s.42.64,1.2.91,1.53.63,1.53,1.42c0,1.05-.91,1.47-2,1.47A2.93,2.93,0,0,1,127.22,25.69Z"/><path class="cls-8" d="M134.26,25.19a2.86,2.86,0,0,1,.08-.63l.48-2.33h-1.41l.11-.57,1.46-.05.42-1.56H136l-.32,1.56h2.38l-.13.62h-2.39l-.49,2.35A1.91,1.91,0,0,0,135,25a.81.81,0,0,0,.9.91,2.51,2.51,0,0,0,1.25-.35l.25.56a3.28,3.28,0,0,1-1.7.44A1.3,1.3,0,0,1,134.26,25.19Z"/><path class="cls-8" d="M139.19,24.72c0-1.73,1.19-3.23,2.67-3.23a1.64,1.64,0,0,1,1.45.71h0l.17-.95.38-1.9h.77l-1.44,7.11h-.63l.08-.74h0a2.56,2.56,0,0,1-1.77.86C139.85,26.58,139.19,25.93,139.19,24.72Zm3.55.27.45-2.14a1.44,1.44,0,0,0-1.23-.71,2.29,2.29,0,0,0-2,2.46c0,.91.44,1.33,1.11,1.33A2.3,2.3,0,0,0,142.74,25Z"/><path class="cls-8" d="M146.83,25.36a2.76,2.76,0,0,1,.07-.54l.58-2.59h-1.77l.13-.62h2.53l-.72,3.29a1.2,1.2,0,0,0,0,.31.65.65,0,0,0,.74.72,2.36,2.36,0,0,0,.93-.25l.18.58a3,3,0,0,1-1.33.32A1.16,1.16,0,0,1,146.83,25.36Zm.69-5.32a.7.7,0,0,1,.68-.69.52.52,0,0,1,.58.54.69.69,0,0,1-.7.69A.51.51,0,0,1,147.52,20Z"/><path class="cls-8" d="M152,21.61h.64l-.13,1h0a3.18,3.18,0,0,1,2.17-1.11A1.11,1.11,0,0,1,156,22.7a4.26,4.26,0,0,1-.09.8l-.6,3h-.77l.58-2.88a3.44,3.44,0,0,0,.09-.68.68.68,0,0,0-.77-.74,2.83,2.83,0,0,0-2,1.17l-.63,3.13H151Z"/><line class="cls-7" x1="318.97" y1="32.92" x2="383.22" y2="32.92"/><polygon class="cls-8" points="381.23 34.61 382.92 32.92 381.23 31.22 382.67 31.22 384.36 32.92 382.67 34.61 381.23 34.61"/><path class="cls-8" d="M331.22,27l.45-.49a2.41,2.41,0,0,0,1.84.78c.68,0,1.18-.24,1.18-.77s-.47-.65-1.28-.92c-1-.34-1.46-.75-1.46-1.43,0-.93.83-1.38,1.82-1.38a2.82,2.82,0,0,1,2,.79l-.43.48a2.48,2.48,0,0,0-1.67-.67c-.63,0-1,.26-1,.69s.42.65,1.2.92,1.54.63,1.54,1.42c0,1.05-.91,1.47-2.05,1.47A2.93,2.93,0,0,1,331.22,27Z"/><path class="cls-8" d="M338.26,26.53a2.86,2.86,0,0,1,.08-.63l.48-2.34h-1.41l.11-.57,1.46,0,.42-1.56H340l-.32,1.56h2.38l-.13.62h-2.39l-.49,2.36a1.91,1.91,0,0,0,0,.44.81.81,0,0,0,.9.91,2.48,2.48,0,0,0,1.25-.35l.25.56a3.28,3.28,0,0,1-1.7.44A1.3,1.3,0,0,1,338.26,26.53Z"/><path class="cls-8" d="M343.19,26.06c0-1.74,1.19-3.24,2.67-3.24a1.62,1.62,0,0,1,1.45.71h0l.17-1,.38-1.9h.77l-1.43,7.12h-.63l.07-.74h0a2.6,2.6,0,0,1-1.78.86C343.85,27.92,343.19,27.27,343.19,26.06Zm3.56.27.44-2.15a1.42,1.42,0,0,0-1.23-.71,2.3,2.3,0,0,0-2,2.47c0,.91.44,1.33,1.11,1.33A2.32,2.32,0,0,0,346.75,26.33Z"/><path class="cls-8" d="M349.13,25.79a2.89,2.89,0,0,1,2.8-3A2,2,0,0,1,354,25a2.88,2.88,0,0,1-2.78,3A2,2,0,0,1,349.13,25.79Zm4-.79c0-.94-.49-1.53-1.3-1.53a2.16,2.16,0,0,0-2,2.27c0,.94.49,1.53,1.31,1.53A2.16,2.16,0,0,0,353.17,25Z"/><path class="cls-8" d="M355.23,26.71a3.57,3.57,0,0,1,.09-.8l.6-3h.77l-.58,2.89a3.35,3.35,0,0,0-.09.67.69.69,0,0,0,.77.75,2.85,2.85,0,0,0,1.95-1.17l.63-3.14h.78l-1,4.86h-.64l.13-1h0a3.17,3.17,0,0,1-2.15,1.11A1.11,1.11,0,0,1,355.23,26.71Z"/><path class="cls-8" d="M362.26,26.53a2.86,2.86,0,0,1,.08-.63l.48-2.34h-1.41l.11-.57,1.46,0,.42-1.56H364l-.32,1.56h2.38l-.13.62h-2.39l-.49,2.36a1.91,1.91,0,0,0,0,.44.81.81,0,0,0,.9.91,2.51,2.51,0,0,0,1.25-.35l.25.56a3.28,3.28,0,0,1-1.7.44A1.3,1.3,0,0,1,362.26,26.53Z"/><path d="M394.22,34.61l.45-.49a2.41,2.41,0,0,0,1.84.78c.68,0,1.18-.24,1.18-.77s-.47-.65-1.28-.92c-1-.34-1.46-.75-1.46-1.43,0-.93.83-1.38,1.82-1.38a2.82,2.82,0,0,1,2,.79l-.43.48a2.48,2.48,0,0,0-1.67-.67c-.63,0-1,.26-1,.69s.42.65,1.2.92,1.54.63,1.54,1.42c0,1-.91,1.47-2.05,1.47A2.93,2.93,0,0,1,394.22,34.61Z"/><path d="M400.34,33.36a2.92,2.92,0,0,1,2.93-3,2.25,2.25,0,0,1,1.82.87l-.5.44a1.66,1.66,0,0,0-1.42-.66,2.22,2.22,0,0,0-2.05,2.22,1.44,1.44,0,0,0,1.56,1.58,2.37,2.37,0,0,0,1.55-.67l.3.53a2.94,2.94,0,0,1-1.95.79A2,2,0,0,1,400.34,33.36Z"/><path d="M407.6,30.51h.64L408,31.91h0a2.9,2.9,0,0,1,2.18-1.51,1.69,1.69,0,0,1,1,.25l-.31.66a1.46,1.46,0,0,0-.81-.21c-.74,0-1.52.71-2.18,1.76l-.51,2.52h-.77Z"/><path d="M413.83,34.28a2.76,2.76,0,0,1,.07-.54l.59-2.6h-1.78l.13-.62h2.54l-.72,3.3a1.2,1.2,0,0,0,0,.31.65.65,0,0,0,.73.72,2.36,2.36,0,0,0,.93-.25l.18.58a2.92,2.92,0,0,1-1.32.32A1.17,1.17,0,0,1,413.83,34.28Zm.69-5.33a.7.7,0,0,1,.69-.69.52.52,0,0,1,.57.54.69.69,0,0,1-.7.69A.52.52,0,0,1,414.52,29Z"/><path d="M419,30.52h.64l-.09.75h0a2.75,2.75,0,0,1,1.79-.87c1,0,1.65.69,1.65,1.93,0,1.76-1.07,3.17-2.66,3.17a1.84,1.84,0,0,1-1.46-.7h0l-.18,1-.3,1.59h-.77Zm3.24,1.92c0-.94-.45-1.39-1.12-1.39a2.44,2.44,0,0,0-1.63.93L419,34.16a1.47,1.47,0,0,0,1.28.69A2.19,2.19,0,0,0,422.24,32.44Z"/><path d="M425.26,34.11a2.86,2.86,0,0,1,.08-.63l.48-2.34h-1.41l.11-.57,1.46-.05L426.4,29H427l-.32,1.56h2.38l-.13.62h-2.39l-.49,2.36a1.91,1.91,0,0,0,0,.44.81.81,0,0,0,.9.91,2.51,2.51,0,0,0,1.25-.35l.25.56a3.28,3.28,0,0,1-1.7.44A1.3,1.3,0,0,1,425.26,34.11Z"/><path d="M431.88,31.2a1.92,1.92,0,0,0,1.48-1.49v-.85l.39.75a1,1,0,0,1-.68.29c-.3,0-.52-.24-.52-.62a.86.86,0,0,1,.84-.89c.42,0,.74.29.74.9A2.57,2.57,0,0,1,432,31.66Z"/><path d="M436.22,34.61l.45-.49a2.41,2.41,0,0,0,1.84.78c.68,0,1.17-.24,1.17-.77s-.47-.65-1.27-.92c-1-.34-1.46-.75-1.46-1.43,0-.93.83-1.38,1.82-1.38a2.84,2.84,0,0,1,2,.79l-.43.48a2.52,2.52,0,0,0-1.67-.67c-.63,0-1,.26-1,.69s.42.65,1.2.92,1.53.63,1.53,1.42c0,1-.91,1.47-2,1.47A2.93,2.93,0,0,1,436.22,34.61Z"/><path d="M448.13,33.37a2.89,2.89,0,0,1,2.79-3,2,2,0,0,1,2,2.13,2.88,2.88,0,0,1-2.78,3A2,2,0,0,1,448.13,33.37Zm4-.79c0-.94-.49-1.53-1.31-1.53a2.16,2.16,0,0,0-1.95,2.27c0,.94.49,1.53,1.31,1.53A2.16,2.16,0,0,0,452.17,32.58Z"/><path d="M454.23,34.29a3.57,3.57,0,0,1,.09-.8l.6-3h.77l-.58,2.89a3.35,3.35,0,0,0-.09.67.69.69,0,0,0,.77.75,2.85,2.85,0,0,0,1.95-1.17l.63-3.14h.78l-1,4.86h-.64l.13-1h0a3.21,3.21,0,0,1-2.15,1.11A1.11,1.11,0,0,1,454.23,34.29Z"/><path d="M461.26,34.11a2.86,2.86,0,0,1,.08-.63l.48-2.34h-1.41l.11-.57,1.46-.05L462.4,29H463l-.32,1.56h2.39l-.13.62h-2.4l-.49,2.36a2.55,2.55,0,0,0,0,.44.81.81,0,0,0,.89.91,2.54,2.54,0,0,0,1.26-.35l.25.56a3.32,3.32,0,0,1-1.71.44A1.29,1.29,0,0,1,461.26,34.11Z"/><path d="M467,30.52h.64l-.09.75h0a2.73,2.73,0,0,1,1.78-.87c1,0,1.66.69,1.66,1.93,0,1.76-1.07,3.17-2.66,3.17a1.84,1.84,0,0,1-1.46-.7h0l-.18,1-.3,1.59h-.77Zm3.24,1.92c0-.94-.45-1.39-1.13-1.39a2.42,2.42,0,0,0-1.62.93L467,34.16a1.47,1.47,0,0,0,1.27.69A2.19,2.19,0,0,0,470.24,32.44Z"/><path d="M472.23,34.29a3.57,3.57,0,0,1,.09-.8l.6-3h.77l-.58,2.89a3.35,3.35,0,0,0-.09.67.69.69,0,0,0,.77.75,2.85,2.85,0,0,0,1.95-1.17l.63-3.14h.78l-1,4.86h-.64l.13-1h0a3.21,3.21,0,0,1-2.15,1.11A1.11,1.11,0,0,1,472.23,34.29Z"/><path d="M479.26,34.11a3.57,3.57,0,0,1,.07-.63l.48-2.34h-1.4l.11-.57,1.45-.05.42-1.56H481l-.32,1.56h2.39l-.13.62h-2.4l-.49,2.36a1.91,1.91,0,0,0-.05.44.81.81,0,0,0,.9.91,2.54,2.54,0,0,0,1.26-.35l.25.56a3.32,3.32,0,0,1-1.71.44A1.29,1.29,0,0,1,479.26,34.11Z"/></svg>