<svg id="Layer_1" data-name="Layer 1" xmlns="http://www.w3.org/2000/svg" xmlns:xlink="http://www.w3.org/1999/xlink" width="376" height="169" viewBox="0 0 376 169">
  <defs>
    <style>
      .cls-1 {
        font-size: 12px;
        font-family: MyriadPro-Regular, Myriad Pro;
      }

      .cls-2 {
        letter-spacing: 0.00603em;
      }

      .cls-3 {
        letter-spacing: 0.01296em;
      }

      .cls-4 {
        letter-spacing: -0.00591em;
      }

      .cls-5 {
        fill: #fff;
      }

      .cls-16, .cls-20, .cls-5 {
        stroke: #000;
      }

      .cls-16, .cls-18, .cls-20, .cls-22, .cls-5 {
        stroke-miterlimit: 10;
      }

      .cls-16, .cls-18, .cls-22, .cls-5 {
        stroke-width: 2px;
      }

      .cls-6 {
        letter-spacing: 0.00598em;
      }

      .cls-7 {
        letter-spacing: 0.014em;
      }

      .cls-8 {
        letter-spacing: -0.00004em;
      }

      .cls-9 {
        fill: url(#linear-gradient);
      }

      .cls-10 {
        fill: url(#linear-gradient-2);
      }

      .cls-11 {
        fill: url(#linear-gradient-3);
      }

      .cls-12 {
        fill: url(#linear-gradient-4);
      }

      .cls-13 {
        fill: url(#linear-gradient-5);
      }

      .cls-14 {
        fill: #9aa7b0;
      }

      .cls-14, .cls-15 {
        fill-rule: evenodd;
      }

      .cls-15 {
        fill: #40b6e0;
        fill-opacity: 0.7;
      }

      .cls-16, .cls-18, .cls-20, .cls-22 {
        fill: none;
      }

      .cls-17 {
        letter-spacing: -0.00403em;
      }

      .cls-18, .cls-22 {
        stroke: #d4145a;
      }

      .cls-18 {
        stroke-linecap: round;
      }

      .cls-19 {
        fill: #d4145a;
      }

      .cls-21 {
        letter-spacing: 0.01399em;
      }
    </style>
    <linearGradient id="linear-gradient" x1="-629.70295" y1="4290.14912" x2="-629.61962" y2="4290.14912" gradientTransform="translate(304820.28632 44773.05914) rotate(90) scale(70.98)" gradientUnits="userSpaceOnUse">
      <stop offset="0" stop-color="#5f1318"/>
      <stop offset="0.3" stop-color="#5f1318"/>
      <stop offset="0.78" stop-color="#7f1620"/>
      <stop offset="1" stop-color="#7f1620"/>
    </linearGradient>
    <linearGradient id="linear-gradient-2" x1="-632.82574" y1="4294.74135" x2="-632.74241" y2="4294.74135" gradientTransform="translate(68666.64966 -463879.35327) scale(108.03)" gradientUnits="userSpaceOnUse">
      <stop offset="0" stop-color="#c90d0d"/>
      <stop offset="0.39" stop-color="#e3322f"/>
      <stop offset="0.67" stop-color="#de3d3b"/>
      <stop offset="1" stop-color="#de3d3b"/>
    </linearGradient>
    <linearGradient id="linear-gradient-3" x1="-632.95605" y1="4294.3243" x2="-632.87273" y2="4294.3243" gradientTransform="translate(91653.77942 -619722.79822) scale(144.33)" gradientUnits="userSpaceOnUse">
      <stop offset="0" stop-color="#ba0000"/>
      <stop offset="0.27" stop-color="#ca0e0e"/>
      <stop offset="0.74" stop-color="#e3322f"/>
      <stop offset="1" stop-color="#e3322f"/>
    </linearGradient>
    <linearGradient id="linear-gradient-4" x1="-637.1839" y1="4294.09018" x2="-637.10057" y2="4294.09018" gradientTransform="translate(-250254.66815 -37088.22028) rotate(-90) scale(58.35)" gradientUnits="userSpaceOnUse">
      <stop offset="0" stop-color="#018845"/>
      <stop offset="0.38" stop-color="#016a37"/>
      <stop offset="0.76" stop-color="#1d4c36"/>
      <stop offset="1" stop-color="#1d4c36"/>
    </linearGradient>
    <linearGradient id="linear-gradient-5" x1="-632.00825" y1="4291.13516" x2="-631.92492" y2="4291.13516" gradientTransform="translate(507646.41132 74803.98102) rotate(90) scale(118.23)" gradientUnits="userSpaceOnUse">
      <stop offset="0" stop-color="#006535"/>
      <stop offset="0.4" stop-color="#038e47"/>
      <stop offset="1" stop-color="#199e4a"/>
    </linearGradient>
  </defs>
  <text class="cls-1" transform="translate(51.54407 16.18864) scale(0.99187 1)"><tspan class="cls-2">S</tspan><tspan x="5.98814" y="0">cala CLI runner a</tspan><tspan class="cls-3" x="88.46236" y="0">c</tspan><tspan class="cls-4" x="93.99366" y="0">t</tspan><tspan x="97.89452" y="0">or</tspan></text>
  <rect class="cls-5" x="228" y="70" width="88" height="26"/>
  <text class="cls-1" transform="translate(237.22455 85.2999)"><tspan class="cls-6">S</tspan><tspan x="5.98779" y="0">cala</tspan><tspan class="cls-7" x="25.76367" y="0">-</tspan><tspan class="cls-8" x="29.61572" y="0">CLI</tspan></text>
  <polygon class="cls-9" points="311.5 79.296 299.474 76.289 299.474 80.799 311.5 83.805 311.5 79.296"/>
  <polygon class="cls-10" points="311.5 79.299 311.5 83.8 302.498 81.55 311.5 79.299"/>
  <polygon class="cls-11" points="299.474 76.284 311.5 73.278 311.5 77.787 299.474 80.794 299.474 76.284"/>
  <polygon class="cls-12" points="299.474 88.31 311.5 85.303 311.5 89.813 299.474 92.819 299.474 88.31"/>
  <polygon class="cls-13" points="311.5 85.303 299.474 82.297 299.474 86.807 311.5 89.813 311.5 85.303"/>
  <g>
    <polygon class="cls-14" points="167 79 171 76 171 78 174 78 174 80 171 80 171 82 167 79"/>
    <polygon class="cls-15" points="172 75 172 77 175 77 175 81 172 81 172 89 176 89 176 75 172 75"/>
    <polygon class="cls-14" points="171 85 167 88 167 86 164 86 164 84 167 84 167 82 171 85"/>
    <polygon class="cls-15" points="166 89 166 87 163 87 163 83 166 83 166 75 162 75 162 89 166 89"/>
  </g>
  <rect class="cls-16" x="94" y="70" width="87" height="44"/>
  <text class="cls-1" transform="translate(101.22914 85.85547)">BSP Clie<tspan class="cls-17" x="39.95947" y="0">n</tspan><tspan x="46.57129" y="0">t</tspan></text>
  <g>
    <line x1="185" y1="83.66666" x2="225" y2="83.66668"/>
    <g>
      <line class="cls-18" x1="188.53027" y1="83.66666" x2="221.46973" y2="83.66669"/>
      <polygon class="cls-19" points="185 83.667 189.975 85.699 188.794 83.667 189.975 81.634 185 83.667"/>
      <polygon class="cls-19" points="225 83.667 220.025 85.699 221.206 83.667 220.025 81.634 225 83.667"/>
    </g>
  </g>
  <g>
    <path class="cls-19" d="M196.876,78.77051h-.03028l-.17968.60937h-.63965l1.41894-7.11621h.76953l-.37988,1.89942-.26953,1.06933h.04a2.761,2.761,0,0,1,1.75879-.8291c1.02929,0,1.66894.68945,1.66894,1.92871a2.91454,2.91454,0,0,1-2.668,3.168A1.822,1.822,0,0,1,196.876,78.77051Zm3.36816-2.3291c0-.93946-.45019-1.38868-1.12988-1.38868a2.47381,2.47381,0,0,0-1.63867.92969l-.44043,2.17871a1.43491,1.43491,0,0,0,1.25.68946A2.20682,2.20682,0,0,0,200.24414,76.44141Z"/>
    <path class="cls-19" d="M202.21582,78.61035l.4502-.48926a2.41143,2.41143,0,0,0,1.83886.7793c.67969,0,1.17871-.24023,1.17871-.76953,0-.46973-.46972-.64941-1.27929-.91992-1.00879-.33985-1.459-.749-1.459-1.42871,0-.92969.83008-1.37891,1.81934-1.37891a2.83805,2.83805,0,0,1,2.02832.78906l-.42969.4795a2.52717,2.52717,0,0,0-1.67871-.66895c-.62988,0-1.00977.25977-1.00977.68945,0,.44922.41993.64942,1.19922.91895.91016.2998,1.54.62988,1.54,1.41992,0,1.04883-.91015,1.46875-2.04883,1.46875A2.93129,2.93129,0,0,1,202.21582,78.61035Z"/>
    <path class="cls-19" d="M208.99512,74.52246h.63965l-.08985.75h.04a2.7468,2.7468,0,0,1,1.78906-.86914c1.00977,0,1.65918.68945,1.65918,1.92871,0,1.75879-1.06933,3.168-2.668,3.168a1.84257,1.84257,0,0,1-1.46-.69922h-.04l-.17968,1.03906-.29981,1.58887h-.76953Zm3.249,1.919c0-.93946-.45019-1.38868-1.12988-1.38868a2.4352,2.4352,0,0,0-1.62891.92969l-.45019,2.17871a1.46986,1.46986,0,0,0,1.27929.68946A2.19263,2.19263,0,0,0,212.24414,76.44141Z"/>
  </g>
  <rect class="cls-20" x="68" y="38" width="265" height="90"/>
  <text class="cls-1" transform="translate(76.24915 54.68881) scale(0.99187 1)"><tspan class="cls-2">S</tspan><tspan x="5.98814" y="0">cala</tspan><tspan class="cls-21" x="25.76366" y="0">-</tspan><tspan x="29.61528" y="0">CLI runner</tspan></text>
  <g>
    <path d="M99.04785,106.293a4.9775,4.9775,0,0,1,2.67627-4.38281l.15625.23828a4.68864,4.68864,0,0,0-2.49658,4.123,3.35775,3.35775,0,0,0,1.13281,2.63965l-.22949.22852A3.64218,3.64218,0,0,1,99.04785,106.293Z"/>
    <path d="M103.62646,102.47559h1.27784c1.0415,0,1.54931.42382,1.54931,1.14257a1.40725,1.40725,0,0,1-1.19287,1.32227v.03223a1.14055,1.14055,0,0,1,.99463,1.11621c0,1.13183-.87158,1.65527-2.12842,1.65527H102.5708Zm.38282,4.97363c1.14258,0,1.90625-.36133,1.90625-1.334,0-.59179-.51123-1.0166-1.40918-1.0166h-1.0586l-.48095,2.35059Zm.3706-2.64551c1.15479,0,1.7251-.47754,1.7251-1.15039,0-.56152-.35254-.88281-1.33545-.88281h-.8623l-.40967,2.0332Z"/>
    <path d="M107.48291,107.13477l.21387-.21192a1.9421,1.9421,0,0,0,1.51806.63574c.64844,0,1.15284-.23242,1.15284-.78418,0-.46386-.48047-.63671-1.16895-.87011-.80762-.27735-1.12646-.58789-1.12646-1.09668,0-.67969.58789-.99805,1.32714-.99805a2.27254,2.27254,0,0,1,1.59375.625l-.19824.2207a2.07585,2.07585,0,0,0-1.4248-.56445c-.61426,0-.97608.2666-.97608.68555,0,.44726.40576.64258,1.03516.8584.7334.24511,1.26025.48046,1.26025,1.10546,0,.79883-.69238,1.09961-1.5459,1.09961A2.22659,2.22659,0,0,1,107.48291,107.13477Z"/>
    <path d="M112.91846,103.90527h.27881l-.10108.62891h.03174a2.40562,2.40562,0,0,1,1.50684-.72461c.81347,0,1.35058.5459,1.35058,1.53711a2.27407,2.27407,0,0,1-2.14062,2.49316,1.56191,1.56191,0,0,1-1.24854-.61718H112.564l-.167.86621-.26318,1.39355h-.33057Zm2.73242,1.5c0-.86816-.42383-1.30371-1.084-1.30371a2.44357,2.44357,0,0,0-1.51855.80762l-.40088,1.97656a1.38143,1.38143,0,0,0,1.19824.66211A1.98575,1.98575,0,0,0,115.65088,105.40527Z"/>
    <path d="M117.22363,105.7627c0-1.56836,1.00586-3.38282,2.66992-3.38282a1.399,1.399,0,0,1,1.23682.74707l-.26123.18164a1.09966,1.09966,0,0,0-.99609-.62988c-1.45655,0-2.30078,1.69824-2.30078,3.0332,0,1.03907.44628,1.82911,1.48095,1.82911a1.88222,1.88222,0,0,0,1.24512-.50977l.18311.22461a2.19942,2.19942,0,0,1-1.47022.584C117.82324,107.83984,117.22363,106.95312,117.22363,105.7627Z"/>
    <path d="M123.02539,106.92871a1.67086,1.67086,0,0,1,.05029-.38281l.86914-4.2666h-1.38623l.063-.28614h1.70313l-.90918,4.5127a1.83677,1.83677,0,0,0-.0459.38672.58394.58394,0,0,0,.65918.65527,1.7456,1.7456,0,0,0,.82373-.23144l.10547.26757a2.152,2.152,0,0,1-.99805.25586A.84821.84821,0,0,1,123.02539,106.92871Z"/>
    <path d="M128.0459,106.958a1.88029,1.88029,0,0,1,.05029-.39649l.51221-2.37011h-1.49268l.063-.28614h1.80957l-.57568,2.71973a1.25641,1.25641,0,0,0-.03223.27734.58723.58723,0,0,0,.66162.64551,1.92605,1.92605,0,0,0,.81934-.22949l.09765.25488a2.11787,2.11787,0,0,1-.99365.2666A.82109.82109,0,0,1,128.0459,106.958Zm.53418-4.30274a.4324.4324,0,0,1,.40625-.42871.29619.29619,0,0,1,.32373.31446.42978.42978,0,0,1-.4082.42968A.29731.29731,0,0,1,128.58008,102.65527Z"/>
    <path d="M131.54688,106.208a2.28465,2.28465,0,0,1,2.1621-2.39844,1.33857,1.33857,0,0,1,1.40381,1.46,1.94944,1.94944,0,0,1-.08691.5791h-3.21143l.05664-.28222h3.09473l-.2207.06836a1.62447,1.62447,0,0,0,.04785-.38965,1.05587,1.05587,0,0,0-1.11572-1.15235,2.01045,2.01045,0,0,0-1.80225,2.09473,1.24531,1.24531,0,0,0,1.30713,1.36914A2.16922,2.16922,0,0,0,134.59082,107l.15625.24121a2.56164,2.56164,0,0,1-1.60937.59863A1.4804,1.4804,0,0,1,131.54688,106.208Z"/>
    <path d="M136.91553,103.90527h.27881l-.13282.85547h.03174a2.6931,2.6931,0,0,1,1.85986-.95117.86358.86358,0,0,1,.98194.9375,3.06061,3.06061,0,0,1-.07813.66309l-.46777,2.334h-.33057l.46387-2.30469a3.05346,3.05346,0,0,0,.07764-.625.651.651,0,0,0-.7378-.708,2.73442,2.73442,0,0,0-1.86279,1.06933l-.521,2.56836H136.148Z"/>
    <path d="M141.92529,106.78125a2.42409,2.42409,0,0,1,.06446-.49805l.43017-2.09179h-1.17969l.04688-.252,1.20264-.03418.30078-1.2705h.27881l-.25586,1.2705h2.04492l-.06348.28614h-2.04687l-.44434,2.14257a1.75617,1.75617,0,0,0-.04541.38672.74151.74151,0,0,0,.8125.82715,2.25094,2.25094,0,0,0,1.07715-.27441l.12451.25a2.44019,2.44019,0,0,1-1.25684.3164A.97654.97654,0,0,1,141.92529,106.78125Z"/>
    <path d="M146.89014,107.4248a.60613.60613,0,0,1,.55664-.60253.37529.37529,0,0,1,.38379.416.60681.60681,0,0,1-.5586.60156A.37432.37432,0,0,1,146.89014,107.4248Z"/>
    <path d="M150.68262,107.13477l.21386-.21192a1.94211,1.94211,0,0,0,1.51807.63574c.64844,0,1.15283-.23242,1.15283-.78418,0-.46386-.48047-.63671-1.16894-.87011-.80762-.27735-1.12647-.58789-1.12647-1.09668,0-.67969.58789-.99805,1.32715-.99805a2.27256,2.27256,0,0,1,1.59375.625l-.19824.2207a2.07587,2.07587,0,0,0-1.42481-.56445c-.61425,0-.97607.2666-.97607.68555,0,.44726.40576.64258,1.03516.8584.73339.24511,1.26025.48046,1.26025,1.10546,0,.79883-.69238,1.09961-1.5459,1.09961A2.22657,2.22657,0,0,1,150.68262,107.13477Z"/>
    <path d="M155.53174,106.14062a2.3109,2.3109,0,0,1,2.30176-2.33105,1.73842,1.73842,0,0,1,1.42236.67773l-.23682.2002a1.45123,1.45123,0,0,0-1.26562-.58594,2.02256,2.02256,0,0,0-1.88916,1.98438,1.32486,1.32486,0,0,0,1.43359,1.46191,2.11135,2.11135,0,0,0,1.373-.58789l.17236.23145a2.46385,2.46385,0,0,1-1.5791.64843A1.58323,1.58323,0,0,1,155.53174,106.14062Z"/>
    <path d="M160.26367,106.376a2.39714,2.39714,0,0,1,2.14112-2.56641,1.4098,1.4098,0,0,1,1.24121.624h.03222l.14795-.52832h.27686l-.772,3.83887h-.27685l.08545-.61426h-.03223a2.23977,2.23977,0,0,1-1.49316.71A1.291,1.291,0,0,1,160.26367,106.376Zm2.93994.33886.40039-1.92285a1.37585,1.37585,0,0,0-1.18945-.69043,2.08913,2.08913,0,0,0-1.81592,2.21387c0,.83789.42139,1.23242,1.07959,1.23242A2.22677,2.22677,0,0,0,163.20361,106.71484Z"/>
    <path d="M166.2251,106.92871a1.67086,1.67086,0,0,1,.05029-.38281l.86914-4.2666H165.7583l.063-.28614h1.70312l-.90966,4.5127a1.867,1.867,0,0,0-.04541.38672.58394.58394,0,0,0,.65918.65527,1.74566,1.74566,0,0,0,.82373-.23144l.10546.26757a2.152,2.152,0,0,1-.998.25586A.8482.8482,0,0,1,166.2251,106.92871Z"/>
    <path d="M169.86377,106.376a2.39711,2.39711,0,0,1,2.14062-2.56641,1.41006,1.41006,0,0,1,1.2417.624h.03223l.14795-.52832h.27685l-.772,3.83887h-.27636l.085-.61426h-.03223a2.23977,2.23977,0,0,1-1.49316.71A1.291,1.291,0,0,1,169.86377,106.376Zm2.93994.33886.40039-1.92285a1.37587,1.37587,0,0,0-1.18945-.69043,2.08913,2.08913,0,0,0-1.81592,2.21387c0,.83789.42188,1.23242,1.07959,1.23242A2.22679,2.22679,0,0,0,172.80371,106.71484Z"/>
    <path d="M174.45459,108.97559a4.62676,4.62676,0,0,0,2.46631-4.12207,3.32777,3.32777,0,0,0-1.12256-2.65625l.21338-.21289a3.646,3.646,0,0,1,1.24756,2.84765,4.939,4.939,0,0,1-2.64893,4.37988Z"/>
  </g>
  <g>
    <path d="M163.63672,52.27441a4.97489,4.97489,0,0,1,2.67627-4.38183l.15625.23828a4.68722,4.68722,0,0,0-2.49658,4.12207,3.35836,3.35836,0,0,0,1.13281,2.64062l-.22949.22852A3.64279,3.64279,0,0,1,163.63672,52.27441Z"/>
    <path d="M167.11621,52.92578l.25733-.18945a1.63711,1.63711,0,0,0,1.46386.78711,1.23127,1.23127,0,0,0,1.34717-1.20606,1.127,1.127,0,0,0-.67676-.99609l-.67529-.40137a1.43427,1.43427,0,0,1-.83838-1.207,1.40919,1.40919,0,0,1,1.51074-1.35059,1.76874,1.76874,0,0,1,1.44629.72266l-.24121.2002a1.55855,1.55855,0,0,0-1.249-.626,1.06886,1.06886,0,0,0-1.11573,1.01562,1.10577,1.10577,0,0,0,.67725.96l.67236.39257a1.4184,1.4184,0,0,1,.83838,1.251,1.5712,1.5712,0,0,1-1.71924,1.544A1.89531,1.89531,0,0,1,167.11621,52.92578Z"/>
    <path d="M172.12158,52.12305a2.31112,2.31112,0,0,1,2.30176-2.332,1.739,1.739,0,0,1,1.42236.67871l-.23681.20019a1.45126,1.45126,0,0,0-1.26563-.58594,2.02184,2.02184,0,0,0-1.88916,1.98438,1.32457,1.32457,0,0,0,1.4336,1.46094,2.11133,2.11133,0,0,0,1.373-.58789l.17237.23144a2.46474,2.46474,0,0,1-1.57862.64942A1.58339,1.58339,0,0,1,172.12158,52.12305Z"/>
    <path d="M178.01465,52.91113a1.66419,1.66419,0,0,1,.05029-.38281l.86914-4.2666h-1.38623l.063-.28613H179.314l-.90966,4.51269a1.85958,1.85958,0,0,0-.04541.38672.58324.58324,0,0,0,.65918.6543,1.74371,1.74371,0,0,0,.82373-.23047l.10547.26758a2.15207,2.15207,0,0,1-.99805.25586A.84869.84869,0,0,1,178.01465,52.91113Z"/>
    <path d="M183.03467,52.94043a1.88878,1.88878,0,0,1,.05029-.39746l.51221-2.37012h-1.49268l.063-.28613h1.80957l-.57568,2.7207a1.25471,1.25471,0,0,0-.03223.27637.5868.5868,0,0,0,.66162.64551,1.92381,1.92381,0,0,0,.81934-.22852l.09765.25391a2.10734,2.10734,0,0,1-.99365.26758A.82109.82109,0,0,1,183.03467,52.94043Zm.53418-4.30273a.43332.43332,0,0,1,.40625-.42969.29644.29644,0,0,1,.32373.31543.42978.42978,0,0,1-.40821.42968A.29731.29731,0,0,1,183.56885,48.6377Z"/>
    <path d="M187.37646,48.458h1.31641c.9541,0,1.55615.33789,1.55615,1.166a1.79068,1.79068,0,0,1-2.02246,1.69336H187.148l-.48047,2.40918h-.34619Zm.75147,2.57129c1.13135,0,1.77441-.52442,1.77441-1.37891,0-.65723-.458-.9043-1.35351-.9043h-.8916l-.44385,2.28321Zm.374.11035,1.06934,2.58691h-.38916l-.99072-2.44726Z"/>
    <path d="M191.28516,52.88379a2.95135,2.95135,0,0,1,.07763-.66309l.46826-2.334h.33008l-.46338,2.30566a3.03794,3.03794,0,0,0-.07812.623.65321.65321,0,0,0,.73828.71,2.73578,2.73578,0,0,0,1.85791-1.06934l.52148-2.56933h.33252l-.77,3.83984h-.2788l.1333-.85547h-.03223a2.69276,2.69276,0,0,1-1.84912.95118A.86617.86617,0,0,1,191.28516,52.88379Z"/>
    <path d="M196.70459,49.88672h.27881l-.13281.85547h.03173a2.69692,2.69692,0,0,1,1.85987-.95117.86424.86424,0,0,1,.98193.93847,3.06857,3.06857,0,0,1-.07812.66309l-.46778,2.334h-.33056l.46386-2.30468a3.071,3.071,0,0,0,.07764-.626.65146.65146,0,0,0-.73779-.708,2.73821,2.73821,0,0,0-1.8628,1.06934l-.521,2.56933H195.937Z"/>
    <path d="M201.50439,49.88672h.27881l-.13281.85547h.03174A2.6969,2.6969,0,0,1,203.542,49.791a.86425.86425,0,0,1,.98194.93847,3.06794,3.06794,0,0,1-.07813.66309l-.46777,2.334h-.33057l.46387-2.30468a3.07091,3.07091,0,0,0,.07763-.626.65146.65146,0,0,0-.73779-.708,2.73817,2.73817,0,0,0-1.86279,1.06934l-.521,2.56933h-.33056Z"/>
    <path d="M205.73535,52.18945a2.28465,2.28465,0,0,1,2.16211-2.39843,1.339,1.339,0,0,1,1.40381,1.46,1.93787,1.93787,0,0,1-.08691.5791h-3.21143l.05664-.28125h3.09473l-.22071.06738a1.5864,1.5864,0,0,0,.04786-.38867,1.05539,1.05539,0,0,0-1.11573-1.15234,2.01045,2.01045,0,0,0-1.80224,2.09472,1.24454,1.24454,0,0,0,1.30713,1.36817,2.17348,2.17348,0,0,0,1.40869-.55567l.15625.24121a2.56722,2.56722,0,0,1-1.60938.59864A1.48117,1.48117,0,0,1,205.73535,52.18945Z"/>
    <path d="M211.60986,49.88477l.27881.00195-.19726,1.14062h.03222A2.46645,2.46645,0,0,1,213.5249,49.791a1.31653,1.31653,0,0,1,.78369.21777l-.16064.2832a1.09833,1.09833,0,0,0-.6709-.18554c-.64648,0-1.29346.59667-1.86767,1.44238l-.43653,2.17773h-.33056Z"/>
    <path d="M216.2793,53.40625a.6052.6052,0,0,1,.55664-.60156.37449.37449,0,0,1,.38379.415.60774.60774,0,0,1-.5586.60254A.37513.37513,0,0,1,216.2793,53.40625Z"/>
    <path d="M220.07129,53.11621l.21387-.21094a1.94134,1.94134,0,0,0,1.51806.63477c.64844,0,1.15283-.23242,1.15283-.78418,0-.46289-.48046-.63574-1.16894-.86914-.80762-.27832-1.12647-.58789-1.12647-1.09668,0-.67969.5879-.999,1.32715-.999a2.26861,2.26861,0,0,1,1.59375.626l-.19824.22071a2.07135,2.07135,0,0,0-1.4248-.56446c-.61426,0-.97608.26563-.97608.68555,0,.44726.40576.6416,1.03516.85742.7334.24609,1.26025.48047,1.26025,1.10645,0,.79882-.69238,1.09961-1.5459,1.09961A2.22732,2.22732,0,0,1,220.07129,53.11621Z"/>
    <path d="M224.92041,52.12305a2.31112,2.31112,0,0,1,2.30176-2.332,1.739,1.739,0,0,1,1.42236.67871l-.23682.20019a1.45123,1.45123,0,0,0-1.26562-.58594,2.02183,2.02183,0,0,0-1.88916,1.98438,1.32457,1.32457,0,0,0,1.43359,1.46094,2.11133,2.11133,0,0,0,1.37305-.58789l.17236.23144a2.46469,2.46469,0,0,1-1.57861.64942A1.58338,1.58338,0,0,1,224.92041,52.12305Z"/>
    <path d="M229.65234,52.3584A2.39744,2.39744,0,0,1,231.793,49.791a1.40857,1.40857,0,0,1,1.2417.625h.03222l.148-.5293h.27686l-.772,3.83984h-.27637l.085-.61523h-.03223a2.23672,2.23672,0,0,1-1.49316.71094A1.291,1.291,0,0,1,229.65234,52.3584Zm2.93995.33789.40039-1.92285a1.37475,1.37475,0,0,0-1.18946-.68946,2.08913,2.08913,0,0,0-1.81592,2.21387c0,.83789.42188,1.23145,1.07959,1.23145A2.223,2.223,0,0,0,232.59229,52.69629Z"/>
    <path d="M235.61377,52.91113a1.66419,1.66419,0,0,1,.05029-.38281l.86914-4.2666H235.147l.063-.28613h1.70313l-.90918,4.51269a1.82954,1.82954,0,0,0-.0459.38672.58324.58324,0,0,0,.65918.6543,1.74368,1.74368,0,0,0,.82373-.23047l.10547.26758a2.15207,2.15207,0,0,1-.99805.25586A.84869.84869,0,0,1,235.61377,52.91113Z"/>
    <path d="M239.25244,52.3584a2.39745,2.39745,0,0,1,2.14111-2.56738,1.40829,1.40829,0,0,1,1.24122.625h.03222l.148-.5293h.27686l-.772,3.83984H242.043l.08545-.61523h-.03223a2.23672,2.23672,0,0,1-1.49316.71094A1.291,1.291,0,0,1,239.25244,52.3584Zm2.93994.33789.40039-1.92285a1.37473,1.37473,0,0,0-1.18945-.68946,2.08913,2.08913,0,0,0-1.81592,2.21387c0,.83789.42139,1.23145,1.07959,1.23145A2.22294,2.22294,0,0,0,242.19238,52.69629Z"/>
    <path d="M243.84277,54.958a4.62841,4.62841,0,0,0,2.4668-4.12207,3.32779,3.32779,0,0,0-1.12256-2.65625l.21338-.21289a3.64394,3.64394,0,0,1,1.24756,2.84668,4.94052,4.94052,0,0,1-2.64893,4.38086Z"/>
  </g>
  <rect class="cls-20" x="51" y="22" width="306" height="128"/>
  <g>
    <path d="M168.03613,13.27441a4.97489,4.97489,0,0,1,2.67627-4.38183l.15625.23828a4.68722,4.68722,0,0,0-2.49658,4.12207,3.35839,3.35839,0,0,0,1.13281,2.64062l-.22949.22852A3.64279,3.64279,0,0,1,168.03613,13.27441Z"/>
    <path d="M171.51562,13.92578l.25733-.18945a1.63712,1.63712,0,0,0,1.46387.78711,1.23126,1.23126,0,0,0,1.34716-1.20606,1.127,1.127,0,0,0-.67675-.99609l-.6753-.40137a1.43429,1.43429,0,0,1-.83838-1.207A1.4092,1.4092,0,0,1,173.9043,9.3623a1.76875,1.76875,0,0,1,1.44629.72266l-.24121.2002a1.55855,1.55855,0,0,0-1.249-.626,1.06885,1.06885,0,0,0-1.11572,1.01562,1.10576,1.10576,0,0,0,.67725.96l.67236.39257a1.41842,1.41842,0,0,1,.83838,1.251,1.57094,1.57094,0,0,1-1.71924,1.54395A1.89534,1.89534,0,0,1,171.51562,13.92578Z"/>
    <path d="M176.52051,13.12305a2.31112,2.31112,0,0,1,2.30176-2.332,1.739,1.739,0,0,1,1.42236.67871l-.23682.20019a1.45123,1.45123,0,0,0-1.26562-.58594,2.02183,2.02183,0,0,0-1.88916,1.98438,1.32456,1.32456,0,0,0,1.43359,1.46094,2.11135,2.11135,0,0,0,1.37305-.58789l.17236.23144a2.46469,2.46469,0,0,1-1.57861.64942A1.58338,1.58338,0,0,1,176.52051,13.12305Z"/>
    <path d="M182.41406,13.91113a1.66426,1.66426,0,0,1,.0503-.38281l.86914-4.2666h-1.38623l.063-.28613h1.70313l-.90918,4.51269a1.83019,1.83019,0,0,0-.0459.38672.58324.58324,0,0,0,.65918.6543,1.74365,1.74365,0,0,0,.82373-.23047l.10547.26758a2.152,2.152,0,0,1-.998.25586A.84869.84869,0,0,1,182.41406,13.91113Z"/>
    <path d="M187.43408,13.94043a1.88884,1.88884,0,0,1,.0503-.39746l.5122-2.37012h-1.49316l.06347-.28613h1.80957l-.57568,2.7207a1.25155,1.25155,0,0,0-.03174.27637.58645.58645,0,0,0,.66114.64551,1.92373,1.92373,0,0,0,.81933-.22852l.09766.25391a2.10737,2.10737,0,0,1-.99365.26758A.8211.8211,0,0,1,187.43408,13.94043Zm.53418-4.30273a.43332.43332,0,0,1,.40625-.42969.29644.29644,0,0,1,.32373.31543.42977.42977,0,0,1-.4082.42968A.29707.29707,0,0,1,187.96826,9.6377Z"/>
    <path d="M193.208,9.458h.37256l.71142,5.26855h-.35254l-.38134-3.125c-.07325-.58886-.13868-1.22558-.21241-1.81054h-.03759c-.33643.61914-.6294,1.17187-.95215,1.78222l-1.72608,3.15332h-.373Zm-1.602,3.15527h2.25586l-.02979.28418h-2.30566Z"/>
    <path d="M195.7207,13.12305a2.31113,2.31113,0,0,1,2.30176-2.332,1.739,1.739,0,0,1,1.42236.67871l-.23681.20019a1.45126,1.45126,0,0,0-1.26563-.58594,2.02184,2.02184,0,0,0-1.88916,1.98438,1.32457,1.32457,0,0,0,1.4336,1.46094,2.11133,2.11133,0,0,0,1.373-.58789l.17237.23144a2.46474,2.46474,0,0,1-1.57862.64942A1.58339,1.58339,0,0,1,195.7207,13.12305Z"/>
    <path d="M201.314,13.76367a2.41537,2.41537,0,0,1,.06446-.498l.43017-2.09277h-1.17968l.04687-.252,1.20264-.03418.30078-1.27051h.27881l-.25586,1.27051h2.04492l-.06348.28613h-2.04687l-.44434,2.14356a1.74945,1.74945,0,0,0-.04541.38671.74122.74122,0,0,0,.8125.82618,2.2506,2.2506,0,0,0,1.07715-.27344l.12451.25a2.44979,2.44979,0,0,1-1.25683.31641A.977.977,0,0,1,201.314,13.76367Z"/>
    <path d="M205.18115,13.16016a2.29242,2.29242,0,0,1,2.19239-2.36914,1.507,1.507,0,0,1,1.54736,1.6621,2.29176,2.29176,0,0,1-2.18994,2.36915A1.50754,1.50754,0,0,1,205.18115,13.16016Zm3.40723-.66114c0-.85644-.45557-1.415-1.23926-1.415a1.98432,1.98432,0,0,0-1.83545,2.03028c0,.85644.45606,1.415,1.23975,1.415A1.98393,1.98393,0,0,0,208.58838,12.499Z"/>
    <path d="M211.209,10.88477l.27881.002-.19726,1.14062h.03222A2.46645,2.46645,0,0,1,213.124,10.791a1.31653,1.31653,0,0,1,.78369.21777l-.16064.2832a1.09833,1.09833,0,0,0-.6709-.18554c-.64648,0-1.29346.59667-1.86767,1.44238l-.43653,2.17773h-.33056Z"/>
    <path d="M215.87842,14.40625a.6052.6052,0,0,1,.55664-.60156.37449.37449,0,0,1,.38379.415.60774.60774,0,0,1-.5586.60254A.37513.37513,0,0,1,215.87842,14.40625Z"/>
    <path d="M219.6709,14.11621l.21387-.21094a1.94134,1.94134,0,0,0,1.51806.63477c.64844,0,1.15283-.23242,1.15283-.78418,0-.46289-.48046-.63574-1.16894-.86914-.80762-.27832-1.12647-.58789-1.12647-1.09668,0-.67969.58789-.999,1.32715-.999a2.26861,2.26861,0,0,1,1.59375.626l-.19824.22071a2.07135,2.07135,0,0,0-1.4248-.56446c-.61426,0-.97608.26563-.97608.68555,0,.44726.40576.6416,1.03516.85742.7334.24609,1.26025.48047,1.26025,1.10645,0,.79882-.69238,1.09961-1.5459,1.09961A2.22732,2.22732,0,0,1,219.6709,14.11621Z"/>
    <path d="M224.52,13.12305a2.31112,2.31112,0,0,1,2.30176-2.332,1.739,1.739,0,0,1,1.42236.67871l-.23682.20019a1.45123,1.45123,0,0,0-1.26562-.58594,2.02183,2.02183,0,0,0-1.88916,1.98438,1.32457,1.32457,0,0,0,1.43359,1.46094,2.11133,2.11133,0,0,0,1.373-.58789l.17236.23144a2.46489,2.46489,0,0,1-1.5791.64942A1.58324,1.58324,0,0,1,224.52,13.12305Z"/>
    <path d="M229.252,13.3584a2.39746,2.39746,0,0,1,2.14112-2.56738,1.40829,1.40829,0,0,1,1.24121.625h.03222l.14795-.5293h.27686l-.772,3.83984h-.27686l.08545-.61523h-.03223a2.23672,2.23672,0,0,1-1.49316.71094A1.291,1.291,0,0,1,229.252,13.3584Zm2.93994.33789.4004-1.92285a1.37475,1.37475,0,0,0-1.18946-.68946,2.08913,2.08913,0,0,0-1.81592,2.21387c0,.83789.42139,1.23145,1.07959,1.23145A2.22294,2.22294,0,0,0,232.19189,13.69629Z"/>
    <path d="M235.21338,13.91113a1.66419,1.66419,0,0,1,.05029-.38281l.86914-4.2666h-1.38623l.063-.28613h1.70313l-.90967,4.51269a1.85958,1.85958,0,0,0-.04541.38672.58324.58324,0,0,0,.65918.6543,1.74368,1.74368,0,0,0,.82373-.23047l.10547.26758a2.15207,2.15207,0,0,1-.998.25586A.84869.84869,0,0,1,235.21338,13.91113Z"/>
    <path d="M238.85205,13.3584a2.39743,2.39743,0,0,1,2.14063-2.56738,1.40857,1.40857,0,0,1,1.2417.625h.03222l.14795-.5293h.27686l-.772,3.83984h-.27636l.085-.61523h-.03223a2.23672,2.23672,0,0,1-1.49316.71094A1.291,1.291,0,0,1,238.85205,13.3584Zm2.93994.33789.40039-1.92285a1.37473,1.37473,0,0,0-1.18945-.68946,2.08913,2.08913,0,0,0-1.81592,2.21387c0,.83789.42188,1.23145,1.07959,1.23145A2.223,2.223,0,0,0,241.792,13.69629Z"/>
    <path d="M243.44287,15.958a4.62885,4.62885,0,0,0,2.46631-4.12207,3.32779,3.32779,0,0,0-1.12256-2.65625L245,8.9668a3.64394,3.64394,0,0,1,1.24756,2.84668,4.94052,4.94052,0,0,1-2.64893,4.38086Z"/>
  </g>
  <g>
    <line class="cls-22" y1="83.64365" x2="56.25206" y2="83.64365"/>
    <polygon class="cls-19" points="61.194 83.644 54.23 86.489 55.883 83.644 54.23 80.799 61.194 83.644"/>
  </g>
  <g>
    <path class="cls-19" d="M17.1582,78.18262c0-1.73926,1.18946-3.23828,2.66895-3.23828a1.66332,1.66332,0,0,1,1.479.72949h.04l.19971-.60938h.62988l-.97949,4.85743h-.62988l.06982-.74024h-.03955a2.59262,2.59262,0,0,1-1.7793.86035C17.81787,80.042,17.1582,79.3916,17.1582,78.18262Zm3.55811.26953.44971-2.14844a1.4413,1.4413,0,0,0-1.23926-.71,2.29509,2.29509,0,0,0-1.979,2.46875c0,.90918.43995,1.3291,1.10938,1.3291A2.31726,2.31726,0,0,0,20.71631,78.45215Z"/>
    <path class="cls-19" d="M24.54785,72.80566h.7793l-.96924,4.83692h.04l3.1582-2.57813h.9292l-2.53857,2.15821-1.78907,1.41992-.25976,1.2793h-.76953Zm1.56885,4.03809,1.60937,3.07813H26.9165l-1.32959-2.56836Z"/>
    <path class="cls-19" d="M30.54785,72.80566h.7793l-.96924,4.83692h.04l3.1582-2.57813h.9292l-2.53857,2.15821-1.78907,1.41992-.25976,1.2793h-.76953Zm1.56885,4.03809,1.60937,3.07813H32.9165l-1.32959-2.56836Z"/>
    <path class="cls-19" d="M35.15771,78.18262c0-1.73926,1.18946-3.23828,2.66895-3.23828a1.66332,1.66332,0,0,1,1.479.72949h.04l.19971-.60938h.62988l-.97949,4.85743h-.62988l.07031-.74024h-.04a2.5926,2.5926,0,0,1-1.7793.86035C35.81738,80.042,35.15771,79.3916,35.15771,78.18262Zm3.55811.26953.44971-2.14844a1.44128,1.44128,0,0,0-1.23926-.71,2.29509,2.29509,0,0,0-1.979,2.46875c0,.90918.43994,1.3291,1.10937,1.3291A2.31723,2.31723,0,0,0,38.71582,78.45215Z"/>
  </g>
</svg>
