<?xml version="1.0" encoding="utf-8"?>
<!-- Generator: Adobe Illustrator 26.0.1, SVG Export Plug-In . SVG Version: 6.00 Build 0)  -->
<svg version="1.1" id="Layer_1" xmlns="http://www.w3.org/2000/svg" xmlns:xlink="http://www.w3.org/1999/xlink" x="0px" y="0px"
	 viewBox="0 0 773 250" style="enable-background:new 0 0 773 250;" xml:space="preserve">
<style type="text/css">
	.st0{fill:#FFFFFF;stroke:#000000;stroke-width:3;stroke-miterlimit:10;}
	.st1{fill:none;stroke:#D4145A;stroke-width:2;stroke-linecap:round;stroke-miterlimit:10;}
	.st2{fill:#D4145A;}
	.st3{fill:#FFFFFF;stroke:#000000;stroke-width:2;stroke-miterlimit:10;}
	.st4{fill:#FFFFFF;}
	.st5{fill:none;stroke:#000000;stroke-width:2;stroke-miterlimit:10;}
	.st6{fill:none;stroke:#D4145A;stroke-width:2;stroke-miterlimit:10;}
	.st7{fill:#380D09;}
	.st8{fill:url(#SVGID_1_);}
	.st9{fill:url(#SVGID_00000029018700684510056430000001286236016554231192_);}
	.st10{fill:url(#SVGID_00000035522936087784152740000015149758226466890421_);}
	.st11{fill:url(#SVGID_00000119818189223549722710000015563672898379536529_);}
	.st12{fill:url(#SVGID_00000155866353131673515400000006614485562485796274_);}
	.st13{fill:none;stroke:#D4145A;stroke-miterlimit:10;}
	.st14{fill:url(#SVGID_00000020372917756415769780000008670475618390167709_);}
	.st15{fill:url(#SVGID_00000114759359633796504690000001013762806314583448_);}
	.st16{fill:url(#SVGID_00000010304116392367487330000009772202000232129172_);}
	.st17{fill:url(#SVGID_00000140736456681684333260000014270714425558793367_);}
	.st18{fill:url(#SVGID_00000045585943280439804530000003253232848264078985_);}
	.st19{fill-rule:evenodd;clip-rule:evenodd;fill:#9AA7B0;}
	.st20{fill-rule:evenodd;clip-rule:evenodd;fill:#40B6E0;fill-opacity:0.7;}
	.st21{fill:none;stroke:#000000;stroke-miterlimit:10;}
	.st22{fill:none;stroke:#FF0000;stroke-width:10;stroke-miterlimit:10;}
	.st23{fill:#29ABE2;}
</style>
<polygon class="st0" points="137.37,108.29 27.37,108.29 26.37,36.29 136.37,36.29 "/>
<g>
	<path d="M71.13,75.53c-0.38,0.19-1.15,0.38-2.13,0.38c-2.28,0-3.99-1.44-3.99-4.09c0-2.53,1.71-4.25,4.22-4.25
		c1.01,0,1.64,0.22,1.92,0.36l-0.25,0.85c-0.4-0.19-0.96-0.34-1.63-0.34c-1.89,0-3.15,1.21-3.15,3.33c0,1.98,1.14,3.25,3.11,3.25
		c0.64,0,1.28-0.13,1.7-0.34L71.13,75.53z"/>
	<path d="M72.4,67.28h1.05v8.52H72.4V67.28z"/>
	<path d="M76.41,68.36c0.01,0.36-0.25,0.65-0.67,0.65c-0.37,0-0.64-0.29-0.64-0.65c0-0.37,0.28-0.66,0.66-0.66
		C76.16,67.7,76.41,67.99,76.41,68.36z M75.23,75.79v-5.8h1.06v5.8H75.23z"/>
	<path d="M78.63,73.08c0.02,1.43,0.94,2.01,1.99,2.01c0.75,0,1.21-0.13,1.61-0.3l0.18,0.76c-0.37,0.17-1.01,0.36-1.93,0.36
		c-1.79,0-2.86-1.18-2.86-2.93s1.03-3.13,2.72-3.13c1.9,0,2.4,1.67,2.4,2.73c0,0.22-0.02,0.38-0.04,0.49H78.63z M81.72,72.33
		c0.01-0.67-0.28-1.71-1.46-1.71c-1.07,0-1.54,0.98-1.62,1.71H81.72z"/>
	<path d="M84.05,71.56c0-0.6-0.01-1.09-0.05-1.57h0.94L85,70.95h0.02c0.29-0.55,0.96-1.09,1.92-1.09c0.8,0,2.05,0.48,2.05,2.47v3.47
		h-1.06v-3.35c0-0.94-0.35-1.71-1.34-1.71c-0.7,0-1.23,0.49-1.41,1.08c-0.05,0.13-0.07,0.31-0.07,0.49v3.49h-1.06V71.56z"/>
	<path d="M91.94,68.32v1.67h1.51v0.8h-1.51v3.13c0,0.72,0.2,1.13,0.79,1.13c0.28,0,0.48-0.04,0.61-0.07l0.05,0.79
		c-0.21,0.08-0.53,0.14-0.94,0.14c-0.49,0-0.89-0.16-1.14-0.44c-0.3-0.31-0.41-0.83-0.41-1.51v-3.17h-0.9v-0.8h0.9V68.6L91.94,68.32
		z"/>
	<path d="M94.49,74.71c0.31,0.2,0.86,0.42,1.39,0.42c0.77,0,1.13-0.38,1.13-0.86c0-0.5-0.3-0.78-1.08-1.07
		c-1.04-0.37-1.54-0.95-1.54-1.64c0-0.94,0.75-1.7,2-1.7c0.59,0,1.1,0.17,1.43,0.36l-0.26,0.77c-0.23-0.14-0.65-0.34-1.19-0.34
		c-0.62,0-0.97,0.36-0.97,0.79c0,0.48,0.35,0.7,1.1,0.98c1.01,0.38,1.52,0.89,1.52,1.75c0,1.02-0.79,1.74-2.17,1.74
		c-0.64,0-1.22-0.16-1.63-0.4L94.49,74.71z"/>
</g>
<g>
	<g>
		<line class="st1" x1="153.74" y1="72.29" x2="205.34" y2="72.29"/>
		<g>
			<polygon class="st2" points="150.21,72.29 155.18,74.33 154,72.29 155.18,70.26 			"/>
		</g>
		<g>
			<polygon class="st2" points="208.87,72.29 203.9,74.33 205.08,72.29 203.9,70.26 			"/>
		</g>
	</g>
</g>
<g>
	<path class="st2" d="M169.65,60.01h0.77l-0.53,2.61l-0.16,0.62h0.04c0.6-0.59,1.3-1.09,2.15-1.09c0.86,0,1.25,0.48,1.25,1.21
		c0,0.28-0.04,0.53-0.09,0.8l-0.6,2.97h-0.77l0.58-2.89c0.05-0.25,0.09-0.46,0.09-0.68c0-0.48-0.27-0.74-0.77-0.74
		c-0.65,0-1.32,0.43-1.98,1.17L169,67.13h-0.77L169.65,60.01z"/>
	<path class="st2" d="M175.46,65.86c0-0.21,0.03-0.4,0.08-0.63l0.48-2.34h-1.41l0.11-0.57l1.46-0.05l0.42-1.56h0.64l-0.32,1.56h2.39
		l-0.13,0.62h-2.4l-0.49,2.36c-0.04,0.18-0.05,0.31-0.05,0.44c0,0.62,0.35,0.91,0.9,0.91c0.48,0,0.91-0.15,1.26-0.35l0.25,0.56
		c-0.42,0.26-1.03,0.44-1.71,0.44C175.92,67.25,175.46,66.69,175.46,65.86z"/>
	<path class="st2" d="M181.46,65.86c0-0.21,0.03-0.4,0.08-0.63l0.48-2.34h-1.41l0.11-0.57l1.46-0.05l0.42-1.56h0.64l-0.32,1.56h2.39
		l-0.13,0.62h-2.4l-0.49,2.36c-0.04,0.18-0.05,0.31-0.05,0.44c0,0.62,0.35,0.91,0.9,0.91c0.48,0,0.91-0.15,1.26-0.35l0.25,0.56
		c-0.42,0.26-1.03,0.44-1.71,0.44C181.92,67.25,181.46,66.69,181.46,65.86z"/>
	<path class="st2" d="M187.2,62.27h0.64l-0.09,0.75h0.04c0.5-0.47,1.12-0.87,1.79-0.87c1.01,0,1.66,0.69,1.66,1.93
		c0,1.76-1.07,3.17-2.67,3.17c-0.61,0-1.15-0.29-1.46-0.7h-0.04l-0.18,1.04l-0.3,1.59h-0.77L187.2,62.27z M190.45,64.19
		c0-0.94-0.45-1.39-1.13-1.39c-0.49,0-1.12,0.35-1.63,0.93l-0.45,2.18c0.34,0.51,0.81,0.69,1.28,0.69
		C189.63,66.6,190.45,65.5,190.45,64.19z"/>
</g>
<g>
	<path d="M296.22,50.24c-0.06-1.13-0.13-2.48-0.12-3.49h-0.04c-0.28,0.95-0.61,1.96-1.02,3.07l-1.43,3.92h-0.79l-1.31-3.85
		c-0.38-1.14-0.71-2.18-0.94-3.14h-0.02c-0.02,1.01-0.08,2.36-0.16,3.57l-0.22,3.47h-1l0.56-8.08h1.33l1.38,3.91
		c0.34,1,0.61,1.88,0.81,2.72h0.04c0.2-0.82,0.49-1.7,0.85-2.72l1.44-3.91h1.33l0.5,8.08h-1.02L296.22,50.24z"/>
	<path d="M302.3,53.79l-0.08-0.73h-0.04c-0.32,0.46-0.95,0.86-1.77,0.86c-1.17,0-1.77-0.83-1.77-1.67c0-1.4,1.25-2.17,3.49-2.16
		v-0.12c0-0.48-0.13-1.34-1.32-1.34c-0.54,0-1.1,0.17-1.51,0.43l-0.24-0.7c0.48-0.31,1.17-0.52,1.91-0.52
		c1.78,0,2.21,1.21,2.21,2.37v2.17c0,0.5,0.02,1,0.1,1.39H302.3z M302.15,50.83c-1.15-0.02-2.46,0.18-2.46,1.31
		c0,0.68,0.46,1.01,1,1.01c0.75,0,1.23-0.48,1.4-0.97c0.04-0.11,0.06-0.23,0.06-0.34V50.83z"/>
	<path d="M306.05,46.36c0.01,0.36-0.25,0.65-0.67,0.65c-0.37,0-0.64-0.29-0.64-0.65c0-0.37,0.28-0.66,0.66-0.66
		C305.8,45.7,306.05,45.99,306.05,46.36z M304.87,53.79v-5.8h1.06v5.8H304.87z"/>
	<path d="M307.68,49.56c0-0.6-0.01-1.09-0.05-1.57h0.94l0.06,0.96h0.02c0.29-0.55,0.96-1.09,1.92-1.09c0.8,0,2.05,0.48,2.05,2.47
		v3.47h-1.06v-3.35c0-0.94-0.35-1.71-1.34-1.71c-0.7,0-1.24,0.49-1.42,1.08c-0.05,0.13-0.07,0.31-0.07,0.49v3.49h-1.06V49.56z"/>
	<path d="M316.74,52.71c0.31,0.2,0.86,0.42,1.39,0.42c0.77,0,1.13-0.38,1.13-0.86c0-0.5-0.3-0.78-1.08-1.07
		c-1.04-0.37-1.54-0.95-1.54-1.64c0-0.94,0.75-1.7,2-1.7c0.59,0,1.1,0.17,1.43,0.36l-0.26,0.77c-0.23-0.14-0.65-0.34-1.19-0.34
		c-0.62,0-0.97,0.36-0.97,0.79c0,0.48,0.35,0.7,1.1,0.98c1.01,0.38,1.52,0.89,1.52,1.75c0,1.02-0.79,1.74-2.17,1.74
		c-0.64,0-1.22-0.16-1.63-0.4L316.74,52.71z"/>
	<path d="M322.23,51.08c0.02,1.43,0.93,2.01,1.99,2.01c0.75,0,1.21-0.13,1.61-0.3l0.18,0.76c-0.37,0.17-1.01,0.36-1.93,0.36
		c-1.79,0-2.85-1.18-2.85-2.93s1.03-3.13,2.72-3.13c1.9,0,2.4,1.67,2.4,2.73c0,0.22-0.03,0.38-0.04,0.49H322.23z M325.32,50.33
		c0.01-0.67-0.28-1.71-1.46-1.71c-1.07,0-1.54,0.98-1.62,1.71H325.32z"/>
	<path d="M327.65,49.8c0-0.68-0.01-1.27-0.05-1.81h0.92l0.04,1.14h0.05c0.26-0.78,0.9-1.27,1.61-1.27c0.12,0,0.2,0.01,0.3,0.04v1
		c-0.11-0.02-0.22-0.04-0.36-0.04c-0.74,0-1.27,0.56-1.42,1.36c-0.02,0.14-0.05,0.31-0.05,0.49v3.09h-1.04V49.8z"/>
	<path d="M332.28,47.99l1.14,3.26c0.19,0.53,0.35,1.01,0.47,1.49h0.04c0.13-0.48,0.3-0.96,0.49-1.49l1.13-3.26h1.1l-2.28,5.8h-1.01
		l-2.21-5.8H332.28z"/>
	<path d="M338.11,51.08c0.02,1.43,0.94,2.01,1.99,2.01c0.76,0,1.21-0.13,1.61-0.3l0.18,0.76c-0.37,0.17-1.01,0.36-1.93,0.36
		c-1.79,0-2.85-1.18-2.85-2.93s1.03-3.13,2.72-3.13c1.89,0,2.4,1.67,2.4,2.73c0,0.22-0.02,0.38-0.04,0.49H338.11z M341.21,50.33
		c0.01-0.67-0.28-1.71-1.46-1.71c-1.07,0-1.54,0.98-1.62,1.71H341.21z"/>
	<path d="M343.54,49.8c0-0.68-0.01-1.27-0.05-1.81h0.92l0.04,1.14h0.05c0.26-0.78,0.9-1.27,1.61-1.27c0.12,0,0.2,0.01,0.3,0.04v1
		c-0.11-0.02-0.22-0.04-0.36-0.04c-0.74,0-1.27,0.56-1.42,1.36c-0.02,0.14-0.05,0.31-0.05,0.49v3.09h-1.04V49.8z"/>
</g>
<rect x="298.87" y="142.79" class="st3" width="89" height="21.5"/>
<rect x="298.87" y="73.79" class="st3" width="89" height="64.08"/>
<g>
	<path d="M304.24,155.07l0.54-0.44c0.39,0.61,0.95,0.94,1.7,0.94c0.82,0,1.43-0.46,1.43-1.21c0-0.5-0.31-0.81-0.81-1.1l-0.75-0.45
		c-0.57-0.33-1.07-0.83-1.07-1.59c0-1.01,0.85-1.77,2.02-1.77c0.85,0,1.55,0.43,1.94,0.97l-0.52,0.44
		c-0.32-0.41-0.81-0.74-1.46-0.74c-0.7,0-1.17,0.49-1.17,1.03c0,0.5,0.35,0.79,0.76,1.04l0.79,0.47c0.62,0.39,1.07,0.84,1.07,1.63
		c0,1.23-0.98,1.96-2.23,1.96C305.43,156.25,304.69,155.79,304.24,155.07z"/>
	<path d="M311.46,154.86c0-0.21,0.03-0.4,0.08-0.63l0.48-2.34h-1.41l0.11-0.57l1.46-0.05l0.42-1.56h0.64l-0.32,1.56h2.39l-0.13,0.62
		h-2.4l-0.49,2.36c-0.04,0.18-0.05,0.31-0.05,0.44c0,0.62,0.35,0.91,0.9,0.91c0.48,0,0.91-0.15,1.26-0.35l0.25,0.56
		c-0.42,0.26-1.03,0.44-1.71,0.44C311.92,156.25,311.46,155.69,311.46,154.86z"/>
	<path d="M316.33,154.12c0-1.7,1.31-2.97,2.8-2.97c1.27,0,2.03,0.87,2.03,2.13c0,1.7-1.31,2.97-2.79,2.97
		C317.09,156.25,316.33,155.38,316.33,154.12z M320.38,153.33c0-0.94-0.49-1.53-1.31-1.53c-1.03,0-1.96,1.01-1.96,2.27
		c0,0.94,0.49,1.53,1.31,1.53C319.45,155.6,320.38,154.59,320.38,153.33z"/>
	<path d="M323.8,151.26l0.64,0.01l-0.21,1.39h0.04c0.55-0.83,1.33-1.51,2.18-1.51c0.42,0,0.75,0.09,0.98,0.25l-0.31,0.66
		c-0.25-0.15-0.49-0.21-0.81-0.21c-0.75,0-1.53,0.71-2.19,1.76l-0.51,2.52h-0.77L323.8,151.26z"/>
	<path d="M328.39,154.39c0-1.74,1.19-3.24,2.67-3.24c0.69,0,1.21,0.29,1.48,0.73h0.04l0.2-0.61h0.63l-0.98,4.86h-0.63l0.07-0.74
		h-0.04c-0.51,0.52-1.15,0.86-1.78,0.86C329.05,156.25,328.39,155.6,328.39,154.39z M331.95,154.66l0.45-2.15
		c-0.33-0.51-0.79-0.71-1.24-0.71c-1.11,0-1.98,1.17-1.98,2.47c0,0.91,0.44,1.33,1.11,1.33
		C330.82,155.6,331.42,155.28,331.95,154.66z"/>
	<path d="M334.03,157.7l0.36-0.56c0.39,0.34,0.96,0.52,1.5,0.52c0.86,0,1.56-0.39,1.76-1.32l0.23-1.03h-0.04
		c-0.47,0.46-1.11,0.78-1.73,0.78c-1.03,0-1.69-0.66-1.69-1.82c0-1.71,1.19-3.12,2.64-3.12c0.69,0,1.21,0.29,1.48,0.73h0.04
		l0.21-0.61h0.62l-1.03,5.1c-0.27,1.37-1.28,1.93-2.5,1.93C335.08,158.3,334.47,158.04,334.03,157.7z M337.96,154.58l0.44-2.06
		c-0.35-0.51-0.77-0.72-1.25-0.72c-1.04,0-1.94,1.09-1.94,2.34c0,0.89,0.43,1.3,1.13,1.3C336.87,155.44,337.45,155.13,337.96,154.58
		z"/>
	<path d="M340.5,154.15c0-1.75,1.3-3,2.77-3c1.19,0,1.85,0.79,1.85,1.87c0,0.34-0.08,0.74-0.13,0.87h-3.9l0.1-0.6h3.47l-0.32,0.15
		c0.04-0.14,0.06-0.3,0.06-0.45c0-0.76-0.45-1.23-1.17-1.23c-0.94,0-1.97,0.94-1.97,2.35c0,0.98,0.58,1.53,1.46,1.53
		c0.64,0,1.21-0.27,1.66-0.63l0.29,0.52c-0.49,0.39-1.25,0.72-2.1,0.72C341.31,156.25,340.5,155.51,340.5,154.15z"/>
</g>
<path d="M381.87,156.53v1.15c0,0.9-2.09,1.64-4.5,1.64c-2.4,0-4.5-0.73-4.5-1.64v-1.15c1.09,0.82,3.15,1.06,4.5,1.06
	C378.73,157.59,380.79,157.35,381.87,156.53z M377.37,154.93c-1.35,0-3.41-0.25-4.5-1.06v1.14c0,0.9,2.1,1.64,4.5,1.64
	c2.41,0,4.5-0.73,4.5-1.64v-1.14C380.79,154.69,378.72,154.93,377.37,154.93z M377.37,148.05c-2.4,0-4.5,0.73-4.5,1.64
	c0,0.9,2.1,1.64,4.5,1.64c2.41,0,4.5-0.73,4.5-1.64C381.87,148.79,379.78,148.05,377.37,148.05z M377.37,152.27
	c-1.35,0-3.41-0.25-4.5-1.06v1.15c0,0.9,2.1,1.64,4.5,1.64c2.41,0,4.5-0.73,4.5-1.64v-1.15
	C380.79,152.03,378.72,152.27,377.37,152.27z"/>
<g>
	<path d="M305.74,105.03h1.31c1.78,0,2.73,0.93,2.73,2.56c0,2.39-1.33,4-3.58,4h-1.77L305.74,105.03z M306.2,110.95
		c1.72,0,2.78-1.29,2.78-3.31c0-1.25-0.69-1.97-1.96-1.97h-0.63l-1.05,5.28H306.2z"/>
	<path d="M312.37,110.49c0-0.17,0.03-0.34,0.07-0.54l0.59-2.6h-1.78l0.13-0.62h2.54l-0.72,3.3c-0.03,0.11-0.04,0.22-0.04,0.31
		c0,0.51,0.3,0.72,0.74,0.72c0.3,0,0.58-0.1,0.93-0.25l0.18,0.58c-0.41,0.19-0.8,0.32-1.33,0.32
		C312.9,111.71,312.37,111.29,312.37,110.49z M313.06,105.16c0-0.37,0.32-0.69,0.69-0.69c0.35,0,0.58,0.2,0.58,0.54
		c0,0.39-0.32,0.69-0.7,0.69C313.31,105.7,313.06,105.51,313.06,105.16z"/>
	<path d="M316.76,110.82l0.45-0.49c0.47,0.53,1.14,0.78,1.84,0.78c0.68,0,1.18-0.24,1.18-0.77c0-0.47-0.47-0.65-1.28-0.92
		c-1.01-0.34-1.46-0.75-1.46-1.43c0-0.93,0.83-1.38,1.82-1.38c0.93,0,1.62,0.38,2.03,0.79l-0.43,0.48c-0.4-0.35-0.96-0.67-1.68-0.67
		c-0.63,0-1.01,0.26-1.01,0.69c0,0.45,0.42,0.65,1.2,0.92c0.91,0.3,1.54,0.63,1.54,1.42c0,1.05-0.91,1.47-2.05,1.47
		C318.07,111.71,317.23,111.36,316.76,110.82z"/>
	<path d="M323.54,106.73h0.64l-0.09,0.75h0.04c0.5-0.47,1.12-0.87,1.79-0.87c1.01,0,1.66,0.69,1.66,1.93c0,1.76-1.07,3.17-2.67,3.17
		c-0.61,0-1.15-0.29-1.46-0.7h-0.04l-0.18,1.04l-0.3,1.59h-0.77L323.54,106.73z M326.78,108.65c0-0.94-0.45-1.39-1.13-1.39
		c-0.49,0-1.12,0.35-1.63,0.93l-0.45,2.18c0.34,0.51,0.81,0.69,1.28,0.69C325.96,111.06,326.78,109.96,326.78,108.65z"/>
	<path d="M328.73,109.85c0-1.74,1.19-3.24,2.67-3.24c0.69,0,1.21,0.29,1.48,0.73h0.04l0.2-0.61h0.63l-0.98,4.86h-0.63l0.07-0.74
		h-0.04c-0.51,0.52-1.15,0.86-1.78,0.86C329.39,111.71,328.73,111.06,328.73,109.85z M332.28,110.12l0.45-2.15
		c-0.33-0.51-0.79-0.71-1.24-0.71c-1.11,0-1.98,1.17-1.98,2.47c0,0.91,0.44,1.33,1.11,1.33
		C331.16,111.06,331.75,110.74,332.28,110.12z"/>
	<path d="M335.8,110.32c0-0.21,0.03-0.4,0.08-0.63l0.48-2.34h-1.41l0.11-0.57l1.46-0.05l0.42-1.56h0.64l-0.32,1.56h2.39l-0.13,0.62
		h-2.4l-0.49,2.36c-0.04,0.18-0.05,0.31-0.05,0.44c0,0.62,0.35,0.91,0.9,0.91c0.48,0,0.91-0.15,1.26-0.35l0.25,0.56
		c-0.42,0.26-1.03,0.44-1.71,0.44C336.26,111.71,335.8,111.15,335.8,110.32z"/>
	<path d="M340.88,109.57c0-1.77,1.41-2.96,2.93-2.96c0.85,0,1.48,0.41,1.83,0.87l-0.5,0.44c-0.35-0.44-0.8-0.66-1.43-0.66
		c-1,0-2.05,0.98-2.05,2.22c0,1.06,0.66,1.58,1.56,1.58c0.57,0,1.1-0.27,1.55-0.67l0.31,0.53c-0.51,0.47-1.23,0.79-1.96,0.79
		C341.85,111.71,340.88,110.99,340.88,109.57z"/>
	<path d="M347.99,104.47h0.77l-0.53,2.61l-0.16,0.62h0.04c0.6-0.59,1.3-1.09,2.15-1.09c0.86,0,1.25,0.48,1.25,1.21
		c0,0.28-0.04,0.53-0.09,0.8l-0.6,2.97h-0.77l0.58-2.89c0.05-0.25,0.09-0.46,0.09-0.68c0-0.48-0.27-0.74-0.77-0.74
		c-0.65,0-1.32,0.43-1.98,1.17l-0.63,3.14h-0.77L347.99,104.47z"/>
	<path d="M352.84,109.61c0-1.75,1.3-3,2.77-3c1.19,0,1.85,0.79,1.85,1.87c0,0.34-0.08,0.74-0.13,0.87h-3.9l0.1-0.6h3.47l-0.32,0.15
		c0.04-0.14,0.06-0.3,0.06-0.45c0-0.76-0.45-1.23-1.17-1.23c-0.94,0-1.97,0.94-1.97,2.35c0,0.98,0.58,1.53,1.46,1.53
		c0.64,0,1.21-0.27,1.66-0.63l0.29,0.52c-0.49,0.39-1.25,0.72-2.1,0.72C353.65,111.71,352.84,110.97,352.84,109.61z"/>
	<path d="M360.13,106.72l0.64,0.01l-0.21,1.39h0.04c0.55-0.83,1.33-1.51,2.18-1.51c0.42,0,0.75,0.09,0.98,0.25l-0.31,0.66
		c-0.25-0.15-0.49-0.21-0.81-0.21c-0.75,0-1.53,0.71-2.19,1.76l-0.51,2.52h-0.77L360.13,106.72z"/>
</g>
<g>
	<path d="M226.42,119.36l0.45-0.49c0.47,0.53,1.14,0.78,1.84,0.78c0.68,0,1.18-0.24,1.18-0.77c0-0.47-0.47-0.65-1.28-0.92
		c-1.01-0.34-1.46-0.75-1.46-1.43c0-0.93,0.83-1.38,1.82-1.38c0.93,0,1.62,0.38,2.03,0.79l-0.43,0.48c-0.4-0.35-0.96-0.67-1.68-0.67
		c-0.63,0-1.01,0.26-1.01,0.69c0,0.45,0.42,0.65,1.2,0.92c0.91,0.3,1.54,0.63,1.54,1.42c0,1.05-0.91,1.47-2.05,1.47
		C227.73,120.25,226.89,119.9,226.42,119.36z"/>
	<path d="M233.19,115.27h0.64l-0.13,0.99h0.04c0.59-0.58,1.31-1.11,2.18-1.11c0.86,0,1.25,0.48,1.25,1.21c0,0.28-0.04,0.53-0.09,0.8
		l-0.6,2.97h-0.77l0.58-2.89c0.05-0.25,0.09-0.46,0.09-0.68c0-0.48-0.27-0.74-0.77-0.74c-0.65,0-1.32,0.43-1.98,1.17l-0.63,3.14
		h-0.77L233.19,115.27z"/>
	<path d="M240.03,119.03c0-0.17,0.03-0.34,0.07-0.54l0.59-2.6h-1.78l0.13-0.62h2.54l-0.72,3.3c-0.03,0.11-0.04,0.22-0.04,0.31
		c0,0.51,0.3,0.72,0.74,0.72c0.3,0,0.58-0.1,0.93-0.25l0.18,0.58c-0.41,0.19-0.8,0.32-1.33,0.32
		C240.56,120.25,240.03,119.83,240.03,119.03z M240.72,113.7c0-0.37,0.32-0.69,0.69-0.69c0.35,0,0.58,0.2,0.58,0.54
		c0,0.39-0.32,0.69-0.7,0.69C240.97,114.24,240.72,114.05,240.72,113.7z"/>
	<path d="M245.2,115.27h0.64l-0.09,0.75h0.04c0.5-0.47,1.12-0.87,1.79-0.87c1.01,0,1.66,0.69,1.66,1.93c0,1.76-1.07,3.17-2.67,3.17
		c-0.61,0-1.15-0.29-1.46-0.7h-0.04l-0.18,1.04l-0.3,1.59h-0.77L245.2,115.27z M248.45,117.19c0-0.94-0.45-1.39-1.13-1.39
		c-0.49,0-1.12,0.35-1.63,0.93l-0.45,2.18c0.34,0.51,0.81,0.69,1.28,0.69C247.63,119.6,248.45,118.5,248.45,117.19z"/>
	<path d="M251.2,115.27h0.64l-0.09,0.75h0.04c0.5-0.47,1.12-0.87,1.79-0.87c1.01,0,1.66,0.69,1.66,1.93c0,1.76-1.07,3.17-2.67,3.17
		c-0.61,0-1.15-0.29-1.46-0.7h-0.04l-0.18,1.04l-0.3,1.59h-0.77L251.2,115.27z M254.45,117.19c0-0.94-0.45-1.39-1.13-1.39
		c-0.49,0-1.12,0.35-1.63,0.93l-0.45,2.18c0.34,0.51,0.81,0.69,1.28,0.69C253.63,119.6,254.45,118.5,254.45,117.19z"/>
	<path d="M256.5,118.15c0-1.75,1.3-3,2.77-3c1.19,0,1.85,0.79,1.85,1.87c0,0.34-0.08,0.74-0.13,0.87h-3.9l0.1-0.6h3.47l-0.32,0.15
		c0.04-0.14,0.06-0.3,0.06-0.45c0-0.76-0.45-1.23-1.17-1.23c-0.94,0-1.97,0.94-1.97,2.35c0,0.98,0.58,1.53,1.46,1.53
		c0.64,0,1.21-0.27,1.66-0.63l0.29,0.52c-0.49,0.39-1.25,0.72-2.1,0.72C257.31,120.25,256.5,119.51,256.5,118.15z"/>
	<path d="M263.46,118.86c0-0.21,0.03-0.4,0.08-0.63l0.48-2.34h-1.41l0.11-0.57l1.46-0.05l0.42-1.56h0.64l-0.32,1.56h2.39l-0.13,0.62
		h-2.4l-0.49,2.36c-0.04,0.18-0.05,0.31-0.05,0.44c0,0.62,0.35,0.91,0.9,0.91c0.48,0,0.91-0.15,1.26-0.35l0.25,0.56
		c-0.42,0.26-1.03,0.44-1.71,0.44C263.92,120.25,263.46,119.69,263.46,118.86z"/>
	<path d="M268.42,119.36l0.45-0.49c0.47,0.53,1.14,0.78,1.84,0.78c0.68,0,1.18-0.24,1.18-0.77c0-0.47-0.47-0.65-1.28-0.92
		c-1.01-0.34-1.46-0.75-1.46-1.43c0-0.93,0.83-1.38,1.82-1.38c0.93,0,1.62,0.38,2.03,0.79l-0.43,0.48c-0.4-0.35-0.96-0.67-1.68-0.67
		c-0.63,0-1.01,0.26-1.01,0.69c0,0.45,0.42,0.65,1.2,0.92c0.91,0.3,1.54,0.63,1.54,1.42c0,1.05-0.91,1.47-2.05,1.47
		C269.73,120.25,268.89,119.9,268.42,119.36z"/>
</g>
<g>
	<path class="st4" d="M266.37,109.29c0-8,4-8,5-8s21.17,0,21.17,0"/>
	<g>
		<path class="st5" d="M266.37,109.29c0-8,4-8,5-8c0.7,0,10.88,0,16.87,0"/>
		<g>
			<polygon points="287.36,104.28 292.54,101.29 287.36,98.3 			"/>
		</g>
	</g>
</g>
<g>
	<path class="st4" d="M265.87,123.79c0,8,0.33,13.87,0.83,18.17c1.38,11.83,4.07,11.83,4.91,11.83c1.15,0,24.27,0,24.27,0"/>
	<g>
		<path class="st5" d="M265.87,123.79c0,8,0.33,13.87,0.83,18.17c1.38,11.83,4.07,11.83,4.91,11.83c0.83,0,13.21,0,19.96,0"/>
		<g>
			<polygon points="290.69,156.78 295.87,153.79 290.69,150.8 			"/>
		</g>
	</g>
</g>
<g>
	<path d="M286.5,199.93c-0.06-1.13-0.13-2.48-0.12-3.49h-0.04c-0.28,0.95-0.61,1.96-1.02,3.07l-1.43,3.92h-0.79l-1.31-3.85
		c-0.38-1.14-0.71-2.18-0.94-3.14h-0.02c-0.02,1.01-0.08,2.36-0.16,3.57l-0.22,3.47h-1l0.56-8.08h1.33l1.38,3.91
		c0.34,1,0.61,1.88,0.82,2.72h0.04c0.2-0.82,0.49-1.7,0.85-2.72l1.44-3.91h1.33l0.5,8.08h-1.02L286.5,199.93z"/>
	<path d="M289.96,200.77c0.02,1.43,0.93,2.01,1.99,2.01c0.76,0,1.21-0.13,1.61-0.3l0.18,0.76c-0.37,0.17-1.01,0.36-1.93,0.36
		c-1.79,0-2.85-1.18-2.85-2.93s1.03-3.13,2.72-3.13c1.89,0,2.4,1.67,2.4,2.73c0,0.22-0.02,0.38-0.04,0.49H289.96z M293.06,200.02
		c0.01-0.67-0.28-1.71-1.46-1.71c-1.07,0-1.54,0.98-1.62,1.71H293.06z"/>
	<path d="M296.66,196.01v1.67h1.51v0.8h-1.51v3.13c0,0.72,0.2,1.13,0.79,1.13c0.28,0,0.48-0.04,0.61-0.07l0.05,0.79
		c-0.2,0.08-0.53,0.14-0.94,0.14c-0.49,0-0.89-0.16-1.14-0.44c-0.3-0.31-0.41-0.83-0.41-1.51v-3.17h-0.9v-0.8h0.9v-1.39
		L296.66,196.01z"/>
	<path d="M302.58,203.48l-0.08-0.73h-0.04c-0.32,0.46-0.95,0.86-1.78,0.86c-1.17,0-1.77-0.83-1.77-1.67c0-1.4,1.25-2.17,3.49-2.16
		v-0.12c0-0.48-0.13-1.34-1.32-1.34c-0.54,0-1.1,0.17-1.51,0.43l-0.24-0.7c0.48-0.31,1.18-0.52,1.91-0.52
		c1.78,0,2.21,1.21,2.21,2.37v2.17c0,0.5,0.02,1,0.1,1.39H302.58z M302.42,200.52c-1.15-0.02-2.46,0.18-2.46,1.31
		c0,0.68,0.46,1.01,1,1.01c0.75,0,1.24-0.48,1.4-0.97c0.04-0.11,0.06-0.23,0.06-0.34V200.52z"/>
	<path d="M305.14,194.97h1.06v8.52h-1.06V194.97z"/>
	<path d="M307.83,202.4c0.31,0.2,0.86,0.42,1.39,0.42c0.77,0,1.13-0.38,1.13-0.86c0-0.5-0.3-0.78-1.08-1.07
		c-1.04-0.37-1.54-0.95-1.54-1.64c0-0.94,0.76-1.7,2-1.7c0.59,0,1.1,0.17,1.43,0.36l-0.26,0.77c-0.23-0.14-0.65-0.34-1.19-0.34
		c-0.62,0-0.97,0.36-0.97,0.79c0,0.48,0.35,0.7,1.1,0.98c1.01,0.38,1.52,0.89,1.52,1.75c0,1.02-0.79,1.74-2.17,1.74
		c-0.63,0-1.22-0.16-1.63-0.4L307.83,202.4z"/>
	<path d="M315.27,199.49c0-0.68-0.01-1.27-0.05-1.81h0.92l0.04,1.14h0.05c0.26-0.78,0.9-1.27,1.61-1.27c0.12,0,0.2,0.01,0.3,0.04v1
		c-0.11-0.02-0.22-0.04-0.36-0.04c-0.74,0-1.27,0.56-1.42,1.36c-0.02,0.14-0.05,0.31-0.05,0.49v3.09h-1.04V199.49z"/>
	<path d="M324.05,201.9c0,0.6,0.01,1.13,0.05,1.58h-0.94l-0.06-0.95h-0.02c-0.28,0.47-0.89,1.08-1.92,1.08c-0.91,0-2-0.5-2-2.54
		v-3.39h1.06v3.21c0,1.1,0.34,1.85,1.29,1.85c0.71,0,1.2-0.49,1.39-0.96c0.06-0.16,0.1-0.35,0.1-0.54v-3.56h1.06V201.9z"/>
	<path d="M325.81,199.25c0-0.6-0.01-1.09-0.05-1.57h0.94l0.06,0.96h0.02c0.29-0.55,0.96-1.09,1.92-1.09c0.8,0,2.05,0.48,2.05,2.47
		v3.47h-1.06v-3.35c0-0.94-0.35-1.71-1.34-1.71c-0.7,0-1.24,0.49-1.42,1.08c-0.05,0.13-0.07,0.31-0.07,0.49v3.49h-1.06V199.25z"/>
	<path d="M332.47,199.25c0-0.6-0.01-1.09-0.05-1.57h0.94l0.06,0.96h0.02c0.29-0.55,0.96-1.09,1.92-1.09c0.8,0,2.05,0.48,2.05,2.47
		v3.47h-1.06v-3.35c0-0.94-0.35-1.71-1.34-1.71c-0.7,0-1.24,0.49-1.42,1.08c-0.05,0.13-0.07,0.31-0.07,0.49v3.49h-1.06V199.25z"/>
	<path d="M339.72,200.77c0.02,1.43,0.94,2.01,1.99,2.01c0.75,0,1.21-0.13,1.61-0.3l0.18,0.76c-0.37,0.17-1.01,0.36-1.93,0.36
		c-1.79,0-2.85-1.18-2.85-2.93s1.03-3.13,2.72-3.13c1.9,0,2.4,1.67,2.4,2.73c0,0.22-0.02,0.38-0.04,0.49H339.72z M342.81,200.02
		c0.01-0.67-0.28-1.71-1.46-1.71c-1.07,0-1.54,0.98-1.62,1.71H342.81z"/>
	<path d="M345.14,199.49c0-0.68-0.01-1.27-0.05-1.81h0.92l0.04,1.14h0.05c0.26-0.78,0.9-1.27,1.61-1.27c0.12,0,0.2,0.01,0.3,0.04v1
		c-0.11-0.02-0.22-0.04-0.36-0.04c-0.74,0-1.27,0.56-1.42,1.36c-0.02,0.14-0.05,0.31-0.05,0.49v3.09h-1.04V199.49z"/>
</g>
<rect x="218.87" y="37.79" class="st5" width="199" height="141"/>
<rect x="218.87" y="187.79" class="st5" width="199" height="25"/>
<g>
	<line x1="135.13" y1="120.42" x2="212.09" y2="201.5"/>
	<g>
		<line class="st1" x1="137.56" y1="122.98" x2="209.66" y2="198.94"/>
		<g>
			<polygon class="st2" points="135.13,120.42 137.08,125.43 137.74,123.17 140.02,122.63 			"/>
		</g>
		<g>
			<polygon class="st2" points="212.09,201.5 207.19,199.3 209.48,198.75 210.14,196.5 			"/>
		</g>
	</g>
</g>
<g>
	<path class="st2" d="M175.21,147.22h0.77l-0.53,2.61l-0.16,0.62h0.04c0.6-0.59,1.3-1.09,2.15-1.09c0.86,0,1.25,0.48,1.25,1.21
		c0,0.28-0.04,0.53-0.09,0.8l-0.6,2.97h-0.77l0.58-2.89c0.05-0.25,0.09-0.46,0.09-0.68c0-0.48-0.27-0.74-0.77-0.74
		c-0.65,0-1.32,0.43-1.98,1.17l-0.63,3.14h-0.77L175.21,147.22z"/>
	<path class="st2" d="M181.02,153.07c0-0.21,0.03-0.4,0.08-0.63l0.48-2.34h-1.41l0.11-0.57l1.46-0.05l0.42-1.56h0.64l-0.32,1.56
		h2.39l-0.13,0.62h-2.4l-0.49,2.36c-0.04,0.18-0.05,0.31-0.05,0.44c0,0.62,0.35,0.91,0.9,0.91c0.48,0,0.91-0.15,1.26-0.35l0.25,0.56
		c-0.42,0.26-1.03,0.44-1.71,0.44C181.48,154.46,181.02,153.9,181.02,153.07z"/>
	<path class="st2" d="M187.02,153.07c0-0.21,0.03-0.4,0.08-0.63l0.48-2.34h-1.41l0.11-0.57l1.46-0.05l0.42-1.56h0.64l-0.32,1.56
		h2.39l-0.13,0.62h-2.4l-0.49,2.36c-0.04,0.18-0.05,0.31-0.05,0.44c0,0.62,0.35,0.91,0.9,0.91c0.48,0,0.91-0.15,1.26-0.35l0.25,0.56
		c-0.42,0.26-1.03,0.44-1.71,0.44C187.48,154.46,187.02,153.9,187.02,153.07z"/>
	<path class="st2" d="M192.76,149.48h0.64l-0.09,0.75h0.04c0.5-0.47,1.12-0.87,1.79-0.87c1.01,0,1.66,0.69,1.66,1.93
		c0,1.76-1.07,3.17-2.67,3.17c-0.61,0-1.15-0.29-1.46-0.7h-0.04l-0.18,1.04l-0.3,1.59h-0.77L192.76,149.48z M196.01,151.4
		c0-0.94-0.45-1.39-1.13-1.39c-0.49,0-1.12,0.35-1.63,0.93l-0.45,2.18c0.34,0.51,0.81,0.69,1.28,0.69
		C195.19,153.81,196.01,152.71,196.01,151.4z"/>
</g>
<g>
	<g>
		<line class="st6" x1="382.32" y1="109.29" x2="459.71" y2="109.29"/>
		<g>
			<polygon class="st2" points="377.37,109.29 384.34,112.14 382.69,109.29 384.34,106.45 			"/>
		</g>
		<g>
			<polygon class="st2" points="464.65,109.29 457.69,112.14 459.34,109.29 457.69,106.45 			"/>
		</g>
	</g>
</g>
<rect x="469.87" y="98.79" class="st3" width="86" height="21"/>
<g>
	<path d="M478.8,105.01h1.04v7.21h3.45v0.88h-4.5V105.01z"/>
	<path d="M489.51,110.14c0,2.15-1.49,3.08-2.89,3.08c-1.57,0-2.78-1.15-2.78-2.99c0-1.94,1.27-3.08,2.88-3.08
		C488.38,107.16,489.51,108.37,489.51,110.14z M484.91,110.2c0,1.27,0.73,2.23,1.76,2.23c1.01,0,1.76-0.95,1.76-2.25
		c0-0.98-0.49-2.23-1.74-2.23C485.45,107.95,484.91,109.1,484.91,110.2z"/>
	<path d="M494.06,113.09l-0.08-0.73h-0.04c-0.32,0.46-0.95,0.86-1.78,0.86c-1.17,0-1.77-0.83-1.77-1.67c0-1.4,1.25-2.17,3.49-2.16
		v-0.12c0-0.48-0.13-1.34-1.32-1.34c-0.54,0-1.1,0.17-1.51,0.43l-0.24-0.7c0.48-0.31,1.18-0.52,1.91-0.52
		c1.78,0,2.21,1.21,2.21,2.37v2.17c0,0.5,0.02,1,0.1,1.39H494.06z M493.91,110.13c-1.15-0.02-2.46,0.18-2.46,1.31
		c0,0.68,0.46,1.01,1,1.01c0.75,0,1.24-0.48,1.4-0.97c0.04-0.11,0.06-0.23,0.06-0.34V110.13z"/>
	<path d="M501.64,104.58v7.02c0,0.52,0.01,1.1,0.05,1.5h-0.95l-0.05-1.01h-0.02c-0.32,0.65-1.03,1.14-1.98,1.14
		c-1.4,0-2.48-1.19-2.48-2.95c-0.01-1.93,1.19-3.12,2.6-3.12c0.89,0,1.49,0.42,1.75,0.89h0.02v-3.47H501.64z M500.59,109.65
		c0-0.13-0.01-0.31-0.05-0.44c-0.16-0.67-0.73-1.22-1.52-1.22c-1.09,0-1.74,0.96-1.74,2.24c0,1.18,0.58,2.15,1.71,2.15
		c0.71,0,1.36-0.47,1.55-1.26c0.04-0.14,0.05-0.29,0.05-0.46V109.65z"/>
	<path d="M505.89,113.09c0.02-0.4,0.05-0.98,0.05-1.5v-7.02h1.04v3.65h0.02c0.37-0.65,1.04-1.07,1.98-1.07
		c1.44,0,2.46,1.2,2.45,2.96c0,2.08-1.31,3.11-2.6,3.11c-0.84,0-1.51-0.32-1.94-1.09h-0.04l-0.05,0.96H505.89z M506.99,110.77
		c0,0.13,0.02,0.26,0.05,0.38c0.2,0.73,0.82,1.24,1.58,1.24c1.1,0,1.76-0.9,1.76-2.23c0-1.16-0.6-2.16-1.73-2.16
		c-0.72,0-1.39,0.49-1.61,1.3c-0.02,0.12-0.06,0.26-0.06,0.43V110.77z"/>
	<path d="M515.98,113.09l-0.08-0.73h-0.04c-0.32,0.46-0.95,0.86-1.77,0.86c-1.18,0-1.78-0.83-1.78-1.67c0-1.4,1.25-2.17,3.49-2.16
		v-0.12c0-0.48-0.13-1.34-1.32-1.34c-0.54,0-1.1,0.17-1.51,0.43l-0.24-0.7c0.48-0.31,1.17-0.52,1.91-0.52
		c1.77,0,2.21,1.21,2.21,2.37v2.17c0,0.5,0.02,1,0.1,1.39H515.98z M515.83,110.13c-1.15-0.02-2.46,0.18-2.46,1.31
		c0,0.68,0.46,1.01,1,1.01c0.76,0,1.24-0.48,1.4-0.97c0.04-0.11,0.06-0.23,0.06-0.34V110.13z"/>
	<path d="M518.55,104.58h1.06v8.52h-1.06V104.58z"/>
	<path d="M524.6,113.09l-0.08-0.73h-0.04c-0.32,0.46-0.95,0.86-1.77,0.86c-1.18,0-1.78-0.83-1.78-1.67c0-1.4,1.25-2.17,3.49-2.16
		v-0.12c0-0.48-0.13-1.34-1.32-1.34c-0.54,0-1.1,0.17-1.51,0.43l-0.24-0.7c0.48-0.31,1.17-0.52,1.91-0.52
		c1.77,0,2.21,1.21,2.21,2.37v2.17c0,0.5,0.02,1,0.1,1.39H524.6z M524.44,110.13c-1.15-0.02-2.46,0.18-2.46,1.31
		c0,0.68,0.46,1.01,1,1.01c0.76,0,1.24-0.48,1.4-0.97c0.04-0.11,0.06-0.23,0.06-0.34V110.13z"/>
	<path d="M527.17,108.86c0-0.6-0.01-1.09-0.05-1.57h0.94l0.06,0.96h0.02c0.29-0.55,0.96-1.09,1.92-1.09c0.8,0,2.05,0.48,2.05,2.47
		v3.47h-1.06v-3.35c0-0.94-0.35-1.71-1.34-1.71c-0.7,0-1.24,0.49-1.42,1.08c-0.05,0.13-0.07,0.31-0.07,0.49v3.49h-1.06V108.86z"/>
	<path d="M537.97,112.88c-0.28,0.14-0.89,0.34-1.67,0.34c-1.75,0-2.89-1.19-2.89-2.96c0-1.79,1.22-3.08,3.12-3.08
		c0.62,0,1.18,0.16,1.46,0.3l-0.24,0.82c-0.25-0.14-0.65-0.28-1.22-0.28c-1.33,0-2.05,0.98-2.05,2.19c0,1.34,0.86,2.17,2.01,2.17
		c0.6,0,1-0.16,1.3-0.29L537.97,112.88z"/>
	<path d="M539.72,110.38c0.02,1.43,0.94,2.01,1.99,2.01c0.75,0,1.21-0.13,1.61-0.3l0.18,0.76c-0.37,0.17-1.01,0.36-1.93,0.36
		c-1.79,0-2.85-1.18-2.85-2.93s1.03-3.13,2.72-3.13c1.9,0,2.4,1.67,2.4,2.73c0,0.22-0.02,0.38-0.04,0.49H539.72z M542.82,109.63
		c0.01-0.67-0.28-1.71-1.46-1.71c-1.07,0-1.54,0.98-1.62,1.71H542.82z"/>
	<path d="M545.15,109.1c0-0.68-0.01-1.27-0.05-1.81h0.92l0.04,1.14h0.05c0.26-0.78,0.9-1.27,1.61-1.27c0.12,0,0.2,0.01,0.3,0.04v1
		c-0.11-0.02-0.22-0.04-0.36-0.04c-0.74,0-1.27,0.56-1.42,1.36c-0.02,0.14-0.05,0.31-0.05,0.49v3.09h-1.04V109.1z"/>
</g>
<g>
	<path class="st2" d="M428.62,103.83c0-1.74,1.19-3.24,2.67-3.24c0.69,0,1.21,0.29,1.48,0.73h0.04l0.2-0.61h0.63l-0.98,4.86h-0.63
		l0.07-0.74h-0.04c-0.51,0.52-1.15,0.86-1.78,0.86C429.28,105.69,428.62,105.04,428.62,103.83z M432.17,104.1l0.45-2.15
		c-0.33-0.51-0.79-0.71-1.24-0.71c-1.11,0-1.98,1.17-1.98,2.47c0,0.91,0.44,1.33,1.11,1.33
		C431.04,105.04,431.64,104.72,432.17,104.1z"/>
	<path class="st2" d="M436,98.45h0.78l-0.97,4.84h0.04l3.16-2.58h0.93l-2.54,2.16l-1.79,1.42l-0.26,1.28h-0.77L436,98.45z
		 M437.57,102.49l1.61,3.08h-0.81l-1.33-2.57L437.57,102.49z"/>
	<path class="st2" d="M442,98.45h0.78l-0.97,4.84h0.04l3.16-2.58h0.93l-2.54,2.16l-1.79,1.42l-0.26,1.28h-0.77L442,98.45z
		 M443.57,102.49l1.61,3.08h-0.81l-1.33-2.57L443.57,102.49z"/>
	<path class="st2" d="M446.62,103.83c0-1.74,1.19-3.24,2.67-3.24c0.69,0,1.21,0.29,1.48,0.73h0.04l0.2-0.61h0.63l-0.98,4.86h-0.63
		l0.07-0.74h-0.04c-0.51,0.52-1.15,0.86-1.78,0.86C447.27,105.69,446.62,105.04,446.62,103.83z M450.17,104.1l0.45-2.15
		c-0.33-0.51-0.79-0.71-1.24-0.71c-1.11,0-1.98,1.17-1.98,2.47c0,0.91,0.44,1.33,1.11,1.33
		C449.04,105.04,449.64,104.72,450.17,104.1z"/>
</g>
<g>
	<line class="st4" x1="559.97" y1="97.24" x2="603.6" y2="62.18"/>
	<g>
		<line class="st6" x1="563.82" y1="94.15" x2="599.74" y2="65.28"/>
		<g>
			<polygon class="st2" points="559.97,97.24 567.18,95.1 564.11,93.91 563.62,90.66 			"/>
		</g>
		<g>
			<polygon class="st2" points="603.6,62.18 599.95,68.76 599.45,65.51 596.38,64.32 			"/>
		</g>
	</g>
</g>
<rect x="611.87" y="51.79" class="st3" width="123" height="21"/>
<g>
	<path d="M619.84,65.15c0.47,0.29,1.15,0.53,1.87,0.53c1.07,0,1.69-0.56,1.69-1.38c0-0.75-0.43-1.19-1.52-1.61
		c-1.32-0.47-2.13-1.15-2.13-2.29c0-1.26,1.04-2.19,2.61-2.19c0.83,0,1.43,0.19,1.79,0.4l-0.29,0.85c-0.26-0.14-0.8-0.38-1.54-0.38
		c-1.1,0-1.52,0.66-1.52,1.21c0,0.76,0.49,1.13,1.61,1.56c1.37,0.53,2.06,1.19,2.06,2.37c0,1.25-0.92,2.33-2.83,2.33
		c-0.78,0-1.63-0.23-2.06-0.52L619.84,65.15z"/>
	<path d="M625.81,66.43c0.02-0.4,0.05-0.98,0.05-1.5v-7.02h1.04v3.65h0.02c0.37-0.65,1.04-1.07,1.98-1.07c1.44,0,2.46,1.2,2.45,2.96
		c0,2.08-1.31,3.11-2.6,3.11c-0.84,0-1.51-0.32-1.94-1.09h-0.04l-0.05,0.96H625.81z M626.91,64.1c0,0.13,0.02,0.26,0.05,0.38
		c0.2,0.73,0.82,1.24,1.58,1.24c1.1,0,1.76-0.9,1.76-2.23c0-1.16-0.6-2.16-1.73-2.16c-0.72,0-1.39,0.49-1.61,1.29
		c-0.02,0.12-0.06,0.26-0.06,0.43V64.1z"/>
	<path d="M633.96,58.95v1.67h1.51v0.8h-1.51v3.13c0,0.72,0.2,1.13,0.79,1.13c0.28,0,0.48-0.04,0.61-0.07l0.05,0.79
		c-0.2,0.08-0.53,0.14-0.94,0.14c-0.49,0-0.89-0.16-1.14-0.44c-0.3-0.31-0.41-0.83-0.41-1.51v-3.17h-0.9v-0.8h0.9v-1.39
		L633.96,58.95z"/>
	<path d="M639.21,62.43c0-0.68-0.01-1.27-0.05-1.81h0.92l0.04,1.14h0.05c0.26-0.78,0.9-1.27,1.61-1.27c0.12,0,0.2,0.01,0.3,0.04v1
		c-0.11-0.02-0.22-0.04-0.36-0.04c-0.74,0-1.27,0.56-1.42,1.36c-0.02,0.14-0.05,0.31-0.05,0.49v3.09h-1.04V62.43z"/>
	<path d="M647.99,64.84c0,0.6,0.01,1.13,0.05,1.58h-0.94l-0.06-0.95h-0.02c-0.28,0.47-0.89,1.08-1.92,1.08c-0.91,0-2-0.5-2-2.54
		v-3.39h1.06v3.21c0,1.1,0.34,1.85,1.29,1.85c0.71,0,1.2-0.49,1.39-0.96c0.06-0.16,0.1-0.35,0.1-0.54v-3.56h1.06V64.84z"/>
	<path d="M649.74,62.19c0-0.6-0.01-1.09-0.05-1.57h0.94l0.06,0.96h0.02c0.29-0.55,0.96-1.09,1.92-1.09c0.8,0,2.05,0.48,2.05,2.47
		v3.47h-1.06v-3.35c0-0.94-0.35-1.71-1.34-1.71c-0.7,0-1.24,0.49-1.42,1.08c-0.05,0.13-0.07,0.31-0.07,0.49v3.49h-1.06V62.19z"/>
	<path d="M656.4,62.19c0-0.6-0.01-1.09-0.05-1.57h0.94l0.06,0.96h0.02c0.29-0.55,0.96-1.09,1.92-1.09c0.8,0,2.05,0.48,2.05,2.47
		v3.47h-1.06v-3.35c0-0.94-0.35-1.71-1.34-1.71c-0.7,0-1.24,0.49-1.42,1.08c-0.05,0.13-0.07,0.31-0.07,0.49v3.49h-1.06V62.19z"/>
	<path d="M663.65,63.72c0.02,1.43,0.94,2.01,1.99,2.01c0.76,0,1.21-0.13,1.61-0.3l0.18,0.76c-0.37,0.17-1.01,0.36-1.93,0.36
		c-1.79,0-2.85-1.18-2.85-2.93s1.03-3.13,2.72-3.13c1.89,0,2.4,1.67,2.4,2.73c0,0.22-0.02,0.38-0.04,0.49H663.65z M666.74,62.96
		c0.01-0.67-0.28-1.71-1.46-1.71c-1.07,0-1.54,0.98-1.62,1.71H666.74z"/>
	<path d="M669.07,62.43c0-0.68-0.01-1.27-0.05-1.81h0.92l0.04,1.14h0.05c0.26-0.78,0.9-1.27,1.61-1.27c0.12,0,0.2,0.01,0.3,0.04v1
		c-0.11-0.02-0.22-0.04-0.36-0.04c-0.74,0-1.27,0.56-1.42,1.36c-0.02,0.14-0.05,0.31-0.05,0.49v3.09h-1.04V62.43z"/>
</g>
<g id="Layer_3_00000072275365403050203300000002995630859089561509_">
	<path class="st7" d="M703.03,65.09l-1.13,1.02c0,0,0.55,0.69,1.29,1.11c0.74,0.42,1.14,0.38,1.97,0.37c0.79,0,1.6-0.15,2.25-0.73
		c0.65-0.58,0.77-0.73,0.77-1.46c0-0.34-0.09-1.09-0.5-1.58c-0.47-0.55-1.26-0.82-1.26-0.82s-2.43-0.61-2.18-1.45
		c0.11-0.35,0.67-0.49,1.22-0.39c0.7,0.12,1.4,0.54,1.4,0.54l0.99-0.97c0,0-0.45-0.53-1.15-0.87c-0.52-0.25-1.23-0.35-1.69-0.35
		c-1.07,0-2.42,0.95-2.58,1.95c-0.12,0.72,0.12,1.34,0.65,1.8c0.67,0.59,1.15,0.66,1.15,0.66s2.14,0.55,2.14,1.22
		s-0.52,0.91-1.35,0.92S703.03,65.09,703.03,65.09z"/>
	<path class="st7" d="M718.47,59.9l0.02,1.55h0.89l0.01,4.6c0,0,0.15,0.53,0.55,0.92c0.52,0.51,1.06,0.64,1.06,0.64h1.74l0.01-1.58
		l-0.94-0.01c0,0-0.2,0.01-0.43-0.21c-0.24-0.23-0.23-0.53-0.23-0.53l0.02-3.83h1.71l0.01-1.55l-1.71-0.01l-0.02-3h-1.77l0.02,3.02
		L718.47,59.9L718.47,59.9z"/>
	<path class="st7" d="M714.91,60.27c-1.07-0.24-2.15-0.12-2.85,0.29l0.91-3.68l-1.81-0.44l-2.57,10.35l1.79,0.52l0.25-1.01
		c0.53,0.99,1.12,1.47,2.27,1.73c2.13,0.48,4.03-1,4.55-3.3C717.89,62.76,716.55,60.63,714.91,60.27z M715.43,66l-2.57,0.71
		l-1.92-1.94l0.65-2.65l2.57-0.71l1.92,1.94L715.43,66z"/>
</g>
<rect x="611.87" y="79.79" class="st3" width="123" height="21"/>
<g>
	<path d="M619.84,93.15c0.47,0.29,1.15,0.53,1.87,0.53c1.07,0,1.69-0.56,1.69-1.38c0-0.76-0.43-1.19-1.52-1.61
		c-1.32-0.47-2.14-1.15-2.14-2.29c0-1.26,1.04-2.19,2.62-2.19c0.83,0,1.43,0.19,1.79,0.4l-0.29,0.85c-0.26-0.14-0.8-0.38-1.54-0.38
		c-1.1,0-1.52,0.66-1.52,1.21c0,0.76,0.49,1.13,1.61,1.56c1.37,0.53,2.06,1.19,2.06,2.37c0,1.25-0.92,2.33-2.83,2.33
		c-0.78,0-1.63-0.23-2.06-0.52L619.84,93.15z"/>
	<path d="M625.81,94.43c0.02-0.4,0.05-0.98,0.05-1.5v-7.02h1.04v3.65h0.02c0.37-0.65,1.04-1.07,1.98-1.07c1.44,0,2.46,1.2,2.45,2.96
		c0,2.08-1.31,3.11-2.6,3.11c-0.84,0-1.51-0.32-1.94-1.09h-0.04l-0.05,0.96H625.81z M626.91,92.1c0,0.13,0.02,0.26,0.05,0.38
		c0.2,0.73,0.82,1.24,1.58,1.24c1.1,0,1.76-0.9,1.76-2.23c0-1.16-0.6-2.16-1.73-2.16c-0.72,0-1.39,0.49-1.61,1.3
		c-0.02,0.12-0.06,0.26-0.06,0.43V92.1z"/>
	<path d="M633.96,86.95v1.67h1.51v0.8h-1.51v3.13c0,0.72,0.2,1.13,0.79,1.13c0.28,0,0.48-0.04,0.61-0.07l0.05,0.79
		c-0.2,0.08-0.53,0.14-0.94,0.14c-0.49,0-0.89-0.16-1.14-0.44c-0.3-0.31-0.41-0.83-0.41-1.51v-3.17h-0.9v-0.8h0.9v-1.39
		L633.96,86.95z"/>
	<path d="M639.21,90.43c0-0.68-0.01-1.27-0.05-1.81h0.92l0.04,1.14h0.05c0.26-0.78,0.9-1.27,1.61-1.27c0.12,0,0.2,0.01,0.3,0.04v1
		c-0.11-0.02-0.21-0.04-0.36-0.04c-0.74,0-1.27,0.56-1.42,1.36c-0.02,0.14-0.05,0.31-0.05,0.49v3.09h-1.04V90.43z"/>
	<path d="M647.99,92.84c0,0.6,0.01,1.13,0.05,1.58h-0.94l-0.06-0.95h-0.02c-0.28,0.47-0.89,1.08-1.92,1.08c-0.91,0-2-0.5-2-2.54
		v-3.39h1.06v3.21c0,1.1,0.34,1.85,1.29,1.85c0.71,0,1.2-0.49,1.39-0.96c0.06-0.16,0.1-0.35,0.1-0.54v-3.56h1.06V92.84z"/>
	<path d="M649.74,90.19c0-0.6-0.01-1.09-0.05-1.57h0.94l0.06,0.96h0.02c0.29-0.55,0.96-1.09,1.92-1.09c0.8,0,2.05,0.48,2.05,2.47
		v3.47h-1.06v-3.35c0-0.94-0.35-1.71-1.34-1.71c-0.7,0-1.24,0.49-1.42,1.08c-0.05,0.13-0.07,0.31-0.07,0.49v3.49h-1.06V90.19z"/>
	<path d="M656.4,90.19c0-0.6-0.01-1.09-0.05-1.57h0.94l0.06,0.96h0.02c0.29-0.55,0.96-1.09,1.92-1.09c0.8,0,2.05,0.48,2.05,2.47
		v3.47h-1.06v-3.35c0-0.94-0.35-1.71-1.34-1.71c-0.7,0-1.24,0.49-1.42,1.08c-0.05,0.13-0.07,0.31-0.07,0.49v3.49h-1.06V90.19z"/>
	<path d="M663.65,91.72c0.02,1.43,0.94,2.01,1.99,2.01c0.76,0,1.21-0.13,1.61-0.3l0.18,0.76c-0.37,0.17-1.01,0.36-1.93,0.36
		c-1.79,0-2.85-1.18-2.85-2.93s1.03-3.13,2.72-3.13c1.89,0,2.4,1.67,2.4,2.73c0,0.22-0.02,0.38-0.04,0.49H663.65z M666.74,90.96
		c0.01-0.67-0.28-1.71-1.46-1.71c-1.07,0-1.54,0.98-1.62,1.71H666.74z"/>
	<path d="M669.07,90.43c0-0.68-0.01-1.27-0.05-1.81h0.92l0.04,1.14h0.05c0.26-0.78,0.9-1.27,1.61-1.27c0.12,0,0.2,0.01,0.3,0.04v1
		c-0.11-0.02-0.22-0.04-0.36-0.04c-0.74,0-1.27,0.56-1.42,1.36c-0.02,0.14-0.05,0.31-0.05,0.49v3.09h-1.04V90.43z"/>
</g>
<g id="Layer_3_00000006689991919213873130000015009384668072667546_">
	<path class="st7" d="M703.03,93.09l-1.13,1.02c0,0,0.55,0.69,1.29,1.11c0.74,0.42,1.14,0.38,1.97,0.37c0.79,0,1.6-0.15,2.25-0.73
		c0.65-0.58,0.77-0.73,0.77-1.46c0-0.34-0.09-1.09-0.5-1.58c-0.47-0.55-1.26-0.82-1.26-0.82s-2.43-0.61-2.18-1.45
		c0.11-0.35,0.67-0.49,1.22-0.39c0.7,0.12,1.4,0.54,1.4,0.54l0.99-0.97c0,0-0.45-0.53-1.15-0.87c-0.52-0.25-1.23-0.35-1.69-0.35
		c-1.07,0-2.42,0.95-2.58,1.95c-0.12,0.72,0.12,1.34,0.65,1.8c0.67,0.59,1.15,0.66,1.15,0.66s2.14,0.55,2.14,1.22
		s-0.52,0.91-1.35,0.92S703.03,93.09,703.03,93.09z"/>
	<path class="st7" d="M718.47,87.9l0.02,1.55h0.89l0.01,4.6c0,0,0.15,0.53,0.55,0.92c0.52,0.51,1.06,0.64,1.06,0.64h1.74l0.01-1.58
		l-0.94-0.01c0,0-0.2,0.01-0.43-0.21c-0.24-0.23-0.23-0.53-0.23-0.53l0.02-3.83h1.71l0.01-1.55l-1.71-0.01l-0.02-3h-1.77l0.02,3.02
		L718.47,87.9L718.47,87.9z"/>
	<path class="st7" d="M714.91,88.27c-1.07-0.24-2.15-0.12-2.85,0.29l0.91-3.68l-1.81-0.44l-2.57,10.35l1.79,0.52l0.25-1.01
		c0.53,0.99,1.12,1.47,2.27,1.73c2.13,0.48,4.03-1,4.55-3.3C717.89,90.76,716.55,88.63,714.91,88.27z M715.43,94l-2.57,0.71
		l-1.92-1.94l0.65-2.65l2.57-0.71l1.92,1.94L715.43,94z"/>
</g>
<g>
	<line class="st4" x1="562.27" y1="103.28" x2="605.55" y2="88.55"/>
	<g>
		<line class="st6" x1="566.95" y1="101.69" x2="600.87" y2="90.14"/>
		<g>
			<polygon class="st2" points="562.27,103.28 569.78,103.73 567.3,101.57 567.95,98.34 			"/>
		</g>
		<g>
			<polygon class="st2" points="605.55,88.55 599.87,93.48 600.52,90.26 598.04,88.1 			"/>
		</g>
	</g>
</g>
<g>
	<g>
		<path class="st2" d="M585.32,113.29c1.93,0,1.93-3,0-3C583.39,110.29,583.38,113.29,585.32,113.29L585.32,113.29z"/>
	</g>
</g>
<g>
	<g>
		<path class="st2" d="M585.32,122.4c1.93,0,1.93-3,0-3C583.39,119.4,583.38,122.4,585.32,122.4L585.32,122.4z"/>
	</g>
</g>
<g>
	<g>
		<path class="st2" d="M585.32,130.29c1.93,0,1.93-3,0-3C583.39,127.29,583.38,130.29,585.32,130.29L585.32,130.29z"/>
	</g>
</g>
<g>
	<g>
		<path d="M667.65,119.18c1.93,0,1.93-3,0-3C665.72,116.18,665.72,119.18,667.65,119.18L667.65,119.18z"/>
	</g>
</g>
<g>
	<g>
		<path d="M667.65,131.18c1.93,0,1.93-3,0-3C665.72,128.18,665.72,131.18,667.65,131.18L667.65,131.18z"/>
	</g>
</g>
<g>
	<g>
		<path d="M667.21,145.96c1.93,0,1.93-3,0-3C665.28,142.96,665.27,145.96,667.21,145.96L667.21,145.96z"/>
	</g>
</g>
<rect x="611.87" y="164.13" class="st3" width="122" height="21"/>
<g>
	<path d="M619.77,177.49c0.46,0.29,1.14,0.53,1.86,0.53c1.06,0,1.68-0.56,1.68-1.38c0-0.76-0.43-1.19-1.51-1.61
		c-1.31-0.47-2.12-1.15-2.12-2.29c0-1.26,1.04-2.19,2.59-2.19c0.82,0,1.42,0.19,1.77,0.4l-0.29,0.85c-0.26-0.14-0.8-0.38-1.52-0.38
		c-1.1,0-1.51,0.66-1.51,1.21c0,0.76,0.49,1.13,1.59,1.56c1.36,0.53,2.05,1.19,2.05,2.38c0,1.25-0.92,2.33-2.81,2.33
		c-0.77,0-1.62-0.23-2.05-0.52L619.77,177.49z"/>
	<path d="M625.7,178.76c0.02-0.4,0.05-0.98,0.05-1.5v-7.02h1.04v3.65h0.02c0.37-0.65,1.04-1.07,1.96-1.07c1.43,0,2.44,1.2,2.43,2.96
		c0,2.07-1.3,3.11-2.58,3.11c-0.83,0-1.5-0.32-1.93-1.09h-0.04l-0.05,0.96H625.7z M626.78,176.43c0,0.13,0.02,0.26,0.05,0.38
		c0.2,0.73,0.81,1.24,1.57,1.24c1.1,0,1.75-0.9,1.75-2.23c0-1.16-0.6-2.16-1.71-2.16c-0.71,0-1.38,0.49-1.59,1.3
		c-0.02,0.12-0.06,0.26-0.06,0.43V176.43z"/>
	<path d="M633.78,171.29v1.67h1.5v0.8h-1.5v3.13c0,0.72,0.2,1.13,0.79,1.13c0.27,0,0.48-0.04,0.61-0.07l0.05,0.79
		c-0.2,0.08-0.52,0.14-0.93,0.14c-0.49,0-0.88-0.16-1.13-0.44c-0.3-0.31-0.4-0.83-0.4-1.51v-3.17h-0.89v-0.8h0.89v-1.39
		L633.78,171.29z"/>
	<path d="M638.98,174.77c0-0.68-0.01-1.27-0.05-1.81h0.92l0.04,1.14h0.05c0.26-0.78,0.89-1.27,1.6-1.27c0.12,0,0.2,0.01,0.3,0.04v1
		c-0.11-0.02-0.21-0.04-0.36-0.04c-0.74,0-1.26,0.56-1.41,1.36c-0.02,0.14-0.05,0.31-0.05,0.49v3.09h-1.04V174.77z"/>
	<path d="M647.7,177.18c0,0.6,0.01,1.13,0.05,1.58h-0.93l-0.06-0.95h-0.02c-0.27,0.47-0.88,1.08-1.9,1.08c-0.9,0-1.99-0.5-1.99-2.54
		v-3.39h1.05v3.21c0,1.1,0.33,1.85,1.29,1.85c0.7,0,1.19-0.49,1.38-0.96c0.06-0.16,0.09-0.35,0.09-0.54v-3.56h1.05V177.18z"/>
	<path d="M649.43,174.53c0-0.6-0.01-1.09-0.05-1.57h0.93l0.06,0.96h0.02c0.29-0.55,0.95-1.09,1.9-1.09c0.8,0,2.04,0.48,2.04,2.47
		v3.47h-1.05v-3.35c0-0.94-0.35-1.71-1.33-1.71c-0.69,0-1.23,0.49-1.4,1.08c-0.05,0.13-0.07,0.31-0.07,0.49v3.49h-1.05V174.53z"/>
	<path d="M656.04,174.53c0-0.6-0.01-1.09-0.05-1.57h0.93l0.06,0.96H657c0.29-0.55,0.95-1.09,1.9-1.09c0.8,0,2.04,0.48,2.04,2.47
		v3.47h-1.05v-3.35c0-0.94-0.35-1.71-1.33-1.71c-0.69,0-1.23,0.49-1.4,1.08c-0.05,0.13-0.07,0.31-0.07,0.49v3.49h-1.05V174.53z"/>
	<path d="M663.23,176.05c0.02,1.43,0.93,2.01,1.98,2.01c0.75,0,1.2-0.13,1.59-0.3l0.18,0.76c-0.37,0.17-1,0.36-1.92,0.36
		c-1.77,0-2.83-1.18-2.83-2.93c0-1.75,1.02-3.13,2.7-3.13c1.88,0,2.38,1.67,2.38,2.73c0,0.22-0.02,0.38-0.04,0.49H663.23z
		 M666.3,175.29c0.01-0.67-0.27-1.71-1.45-1.71c-1.06,0-1.52,0.98-1.61,1.71H666.3z"/>
	<path d="M668.61,174.77c0-0.68-0.01-1.27-0.05-1.81h0.92l0.04,1.14h0.05c0.26-0.78,0.89-1.27,1.6-1.27c0.12,0,0.2,0.01,0.3,0.04v1
		c-0.11-0.02-0.21-0.04-0.36-0.04c-0.74,0-1.26,0.56-1.4,1.36c-0.02,0.14-0.05,0.31-0.05,0.49v3.09h-1.04V174.77z"/>
</g>
<g id="Layer_3_00000101070888751538699480000006799747818590781878_">
	<path class="st7" d="M702.29,177.43l-1.12,1.02c0,0,0.55,0.69,1.28,1.11c0.73,0.42,1.13,0.38,1.95,0.37c0.79,0,1.59-0.15,2.24-0.73
		c0.64-0.58,0.77-0.73,0.76-1.46c0-0.34-0.09-1.09-0.5-1.58c-0.46-0.55-1.25-0.82-1.25-0.82s-2.41-0.61-2.16-1.45
		c0.1-0.35,0.66-0.49,1.21-0.39c0.69,0.12,1.39,0.54,1.39,0.54l0.98-0.97c0,0-0.45-0.53-1.14-0.87c-0.51-0.25-1.22-0.35-1.67-0.35
		c-1.06,0-2.4,0.95-2.56,1.95c-0.12,0.72,0.12,1.34,0.64,1.8c0.67,0.59,1.14,0.66,1.14,0.66s2.12,0.55,2.12,1.22
		c0,0.67-0.52,0.91-1.34,0.92C703.44,178.43,702.29,177.43,702.29,177.43z"/>
	<path class="st7" d="M717.61,172.23l0.02,1.55h0.88l0.01,4.6c0,0,0.15,0.53,0.55,0.92c0.51,0.51,1.05,0.64,1.05,0.64h1.73
		l0.01-1.58l-0.93-0.01c0,0-0.2,0.01-0.43-0.21c-0.24-0.23-0.23-0.53-0.23-0.53l0.02-3.83h1.69l0.01-1.55l-1.69-0.01l-0.02-3h-1.76
		l0.02,3.02L717.61,172.23L717.61,172.23z"/>
	<path class="st7" d="M714.07,172.6c-1.06-0.24-2.14-0.12-2.82,0.29l0.9-3.68l-1.79-0.44l-2.55,10.35l1.78,0.52l0.24-1.01
		c0.52,0.99,1.12,1.47,2.26,1.73c2.11,0.48,4-1,4.51-3.3C717.03,175.09,715.7,172.96,714.07,172.6z M714.58,178.34l-2.55,0.71
		l-1.9-1.94l0.65-2.65l2.55-0.71l1.9,1.94L714.58,178.34z"/>
</g>
<g>
	<line class="st4" x1="563.78" y1="126.24" x2="606.21" y2="178.52"/>
	<g>
		<line class="st6" x1="566.9" y1="130.08" x2="603.09" y2="174.68"/>
		<g>
			<polygon class="st2" points="563.78,126.24 565.96,133.44 567.13,130.37 570.38,129.86 			"/>
		</g>
		<g>
			<polygon class="st2" points="606.21,178.52 599.61,174.91 602.86,174.4 604.03,171.32 			"/>
		</g>
	</g>
</g>
<g>
	<path class="st2" d="M568.28,64.38c0-1.74,1.19-3.24,2.67-3.24c0.69,0,1.21,0.29,1.48,0.73h0.04l0.2-0.61h0.63l-0.98,4.86h-0.63
		l0.07-0.74h-0.04c-0.51,0.52-1.15,0.86-1.78,0.86C568.94,66.24,568.28,65.59,568.28,64.38z M571.84,64.65l0.45-2.15
		c-0.33-0.51-0.79-0.71-1.24-0.71c-1.11,0-1.98,1.17-1.98,2.47c0,0.91,0.44,1.33,1.11,1.33C570.71,65.59,571.31,65.27,571.84,64.65z
		"/>
	<path class="st2" d="M575.67,59h0.78l-0.97,4.84h0.04l3.16-2.58h0.93l-2.54,2.16l-1.79,1.42l-0.26,1.28h-0.77L575.67,59z
		 M577.24,63.04l1.61,3.08h-0.81l-1.33-2.57L577.24,63.04z"/>
	<path class="st2" d="M581.67,59h0.78l-0.97,4.84h0.04l3.16-2.58h0.93l-2.54,2.16l-1.79,1.42l-0.26,1.28h-0.77L581.67,59z
		 M583.24,63.04l1.61,3.08h-0.81l-1.33-2.57L583.24,63.04z"/>
	<path class="st2" d="M586.28,64.38c0-1.74,1.19-3.24,2.67-3.24c0.69,0,1.21,0.29,1.48,0.73h0.04l0.2-0.61h0.63l-0.98,4.86h-0.63
		l0.07-0.74h-0.04c-0.51,0.52-1.15,0.86-1.78,0.86C586.94,66.24,586.28,65.59,586.28,64.38z M589.84,64.65l0.45-2.15
		c-0.33-0.51-0.79-0.71-1.24-0.71c-1.11,0-1.98,1.17-1.98,2.47c0,0.91,0.44,1.33,1.11,1.33C588.71,65.59,589.31,65.27,589.84,64.65z
		"/>
</g>
<g>
	<path class="st23" d="M606.66,189.46h-0.05l-2.71,1.46l-0.41-1.61l3.41-1.82h1.8v15.6h-2.04V189.46z"/>
	<path class="st23" d="M614.56,201.84c0-0.89,0.6-1.51,1.44-1.51s1.42,0.62,1.42,1.51c0,0.86-0.55,1.51-1.44,1.51
		C615.14,203.35,614.56,202.71,614.56,201.84z"/>
</g>
<g>
	<path class="st23" d="M16.83,126.93v-1.3l1.66-1.61c3.98-3.79,5.78-5.81,5.81-8.16c0-1.58-0.77-3.05-3.1-3.05
		c-1.42,0-2.59,0.72-3.31,1.32l-0.67-1.49c1.08-0.91,2.62-1.58,4.42-1.58c3.36,0,4.78,2.3,4.78,4.54c0,2.88-2.09,5.21-5.38,8.38
		l-1.25,1.15v0.05h7.01v1.75H16.83z"/>
	<path class="st23" d="M29.31,125.68c0-0.89,0.6-1.51,1.44-1.51s1.42,0.62,1.42,1.51c0,0.86-0.55,1.51-1.44,1.51
		C29.89,127.19,29.31,126.55,29.31,125.68z"/>
</g>
<g>
	<path class="st23" d="M209.23,227.42c0.6,0.38,1.99,0.98,3.46,0.98c2.71,0,3.55-1.73,3.53-3.02c-0.02-2.18-1.99-3.12-4.03-3.12
		h-1.18v-1.58h1.18c1.54,0,3.48-0.79,3.48-2.64c0-1.25-0.79-2.35-2.74-2.35c-1.25,0-2.45,0.55-3.12,1.03l-0.55-1.54
		c0.82-0.6,2.4-1.2,4.08-1.2c3.07,0,4.46,1.82,4.46,3.72c0,1.61-0.96,2.98-2.88,3.67v0.05c1.92,0.38,3.48,1.82,3.48,4.01
		c0,2.5-1.94,4.68-5.69,4.68c-1.75,0-3.29-0.55-4.06-1.06L209.23,227.42z"/>
	<path class="st23" d="M221.21,228.59c0-0.89,0.6-1.51,1.44-1.51s1.42,0.62,1.42,1.51c0,0.86-0.55,1.51-1.44,1.51
		C221.78,230.1,221.21,229.46,221.21,228.59z"/>
</g>
</svg>
