<?xml version="1.0" encoding="utf-8"?>
<!-- Generator: Adobe Illustrator 26.0.1, SVG Export Plug-In . SVG Version: 6.00 Build 0)  -->
<svg version="1.1" id="Layer_1" xmlns="http://www.w3.org/2000/svg" xmlns:xlink="http://www.w3.org/1999/xlink" x="0px" y="0px"
	 viewBox="0 0 1070 437" style="enable-background:new 0 0 1070 437;" xml:space="preserve">
<style type="text/css">
	.st0{fill:#FFFFFF;stroke:#000000;stroke-width:3;stroke-miterlimit:10;}
	.st1{fill:none;stroke:#D4145A;stroke-width:2;stroke-linecap:round;stroke-miterlimit:10;}
	.st2{fill:#D4145A;}
	.st3{fill:#FFFFFF;stroke:#000000;stroke-width:2;stroke-miterlimit:10;}
	.st4{fill:#FFFFFF;}
	.st5{fill:none;stroke:#000000;stroke-width:2;stroke-miterlimit:10;}
	.st6{fill:none;stroke:#D4145A;stroke-width:2;stroke-miterlimit:10;}
	.st7{fill:#380D09;}
	.st8{fill:url(#SVGID_1_);}
	.st9{fill:url(#SVGID_00000126302661713450855180000004460845294604666295_);}
	.st10{fill:url(#SVGID_00000044176819439540539820000010463084611781677247_);}
	.st11{fill:url(#SVGID_00000121266672227125290190000002489706898854717064_);}
	.st12{fill:url(#SVGID_00000122688299636443101160000002663856614888203152_);}
	.st13{fill:none;stroke:#D4145A;stroke-miterlimit:10;}
	.st14{fill:url(#SVGID_00000022542744233394939550000017510074016319963282_);}
	.st15{fill:url(#SVGID_00000167381222700012250990000001252634021657695422_);}
	.st16{fill:url(#SVGID_00000098218928547696685390000003131801573117448333_);}
	.st17{fill:url(#SVGID_00000029757748722338593960000017772569378101101233_);}
	.st18{fill:url(#SVGID_00000035511740069786041870000001794290878975689390_);}
	.st19{fill-rule:evenodd;clip-rule:evenodd;fill:#9AA7B0;}
	.st20{fill-rule:evenodd;clip-rule:evenodd;fill:#40B6E0;fill-opacity:0.7;}
	.st21{fill:none;stroke:#000000;stroke-miterlimit:10;}
	.st22{fill:none;stroke:#FF0000;stroke-width:10;stroke-miterlimit:10;}
</style>
<g>
	<path d="M164.34,62.92c-0.12-2.16-0.25-4.77-0.23-6.7h-0.07c-0.53,1.82-1.17,3.75-1.96,5.89l-2.74,7.53h-1.52l-2.51-7.39
		c-0.74-2.19-1.36-4.19-1.8-6.03h-0.05c-0.05,1.93-0.16,4.54-0.3,6.86l-0.41,6.65h-1.91l1.08-15.52h2.56l2.65,7.51
		c0.65,1.91,1.17,3.61,1.57,5.23h0.07c0.39-1.57,0.94-3.27,1.63-5.23l2.76-7.51h2.56l0.97,15.52h-1.96L164.34,62.92z"/>
	<path d="M176.01,69.74l-0.16-1.4h-0.07c-0.62,0.88-1.82,1.66-3.41,1.66c-2.26,0-3.41-1.59-3.41-3.2c0-2.69,2.39-4.17,6.7-4.14
		v-0.23c0-0.92-0.25-2.58-2.53-2.58c-1.04,0-2.12,0.32-2.9,0.83l-0.46-1.34c0.92-0.6,2.26-0.99,3.66-0.99
		c3.41,0,4.24,2.33,4.24,4.56v4.17c0,0.97,0.05,1.91,0.18,2.67H176.01z M175.71,64.05c-2.21-0.05-4.72,0.35-4.72,2.51
		c0,1.31,0.88,1.93,1.91,1.93c1.45,0,2.37-0.92,2.69-1.87c0.07-0.21,0.12-0.44,0.12-0.64V64.05z"/>
	<path d="M183.2,55.46c0.02,0.69-0.48,1.24-1.29,1.24c-0.71,0-1.22-0.55-1.22-1.24c0-0.71,0.53-1.27,1.27-1.27
		C182.71,54.19,183.2,54.75,183.2,55.46z M180.94,69.74V58.59h2.03v11.14H180.94z"/>
	<path d="M186.33,61.61c0-1.15-0.02-2.1-0.09-3.02h1.8l0.12,1.84h0.05c0.55-1.06,1.84-2.1,3.68-2.1c1.54,0,3.94,0.92,3.94,4.74v6.65
		h-2.03v-6.42c0-1.8-0.67-3.29-2.58-3.29c-1.34,0-2.37,0.94-2.72,2.07c-0.09,0.25-0.14,0.6-0.14,0.94v6.7h-2.03V61.61z"/>
	<path d="M203.71,67.66c0.6,0.39,1.66,0.81,2.67,0.81c1.47,0,2.17-0.74,2.17-1.66c0-0.97-0.58-1.5-2.07-2.05
		c-2-0.71-2.95-1.82-2.95-3.15c0-1.8,1.45-3.27,3.84-3.27c1.13,0,2.12,0.32,2.74,0.69l-0.51,1.47c-0.44-0.28-1.24-0.64-2.28-0.64
		c-1.2,0-1.87,0.69-1.87,1.52c0,0.92,0.67,1.34,2.12,1.89c1.93,0.74,2.92,1.7,2.92,3.36c0,1.96-1.52,3.34-4.17,3.34
		c-1.22,0-2.35-0.3-3.13-0.76L203.71,67.66z"/>
	<path d="M214.23,64.53c0.05,2.74,1.8,3.87,3.82,3.87c1.45,0,2.33-0.25,3.08-0.58l0.35,1.45c-0.71,0.32-1.93,0.69-3.71,0.69
		c-3.43,0-5.48-2.26-5.48-5.62c0-3.36,1.98-6.01,5.23-6.01c3.64,0,4.61,3.2,4.61,5.25c0,0.41-0.05,0.74-0.07,0.94H214.23z
		 M220.17,63.08c0.02-1.29-0.53-3.29-2.81-3.29c-2.05,0-2.95,1.89-3.11,3.29H220.17z"/>
	<path d="M224.64,62.07c0-1.31-0.02-2.44-0.09-3.48h1.77l0.07,2.19h0.09c0.51-1.5,1.73-2.44,3.09-2.44c0.23,0,0.39,0.02,0.58,0.07
		v1.91c-0.21-0.05-0.41-0.07-0.69-0.07c-1.43,0-2.44,1.08-2.72,2.6c-0.05,0.28-0.09,0.6-0.09,0.94v5.94h-2V62.07z"/>
	<path d="M233.53,58.59l2.19,6.26c0.37,1.01,0.67,1.93,0.9,2.85h0.07c0.25-0.92,0.58-1.84,0.94-2.85l2.16-6.26h2.12l-4.38,11.14
		h-1.93l-4.24-11.14H233.53z"/>
	<path d="M244.72,64.53c0.05,2.74,1.8,3.87,3.82,3.87c1.45,0,2.33-0.25,3.08-0.58l0.35,1.45c-0.71,0.32-1.93,0.69-3.71,0.69
		c-3.43,0-5.48-2.26-5.48-5.62c0-3.36,1.98-6.01,5.23-6.01c3.64,0,4.61,3.2,4.61,5.25c0,0.41-0.05,0.74-0.07,0.94H244.72z
		 M250.66,63.08c0.02-1.29-0.53-3.29-2.81-3.29c-2.05,0-2.95,1.89-3.11,3.29H250.66z"/>
	<path d="M255.12,62.07c0-1.31-0.02-2.44-0.09-3.48h1.77l0.07,2.19h0.09c0.51-1.5,1.73-2.44,3.09-2.44c0.23,0,0.39,0.02,0.58,0.07
		v1.91c-0.21-0.05-0.41-0.07-0.69-0.07c-1.43,0-2.44,1.08-2.72,2.6c-0.05,0.28-0.09,0.6-0.09,0.94v5.94h-2V62.07z"/>
</g>
<rect x="169.42" y="240.5" class="st3" width="170.77" height="41.25"/>
<rect x="169.42" y="108.11" class="st3" width="170.77" height="122.96"/>
<g>
	<path d="M179.73,264.06l1.04-0.84c0.75,1.17,1.82,1.8,3.26,1.8c1.57,0,2.74-0.88,2.74-2.32c0-0.96-0.59-1.55-1.55-2.11l-1.44-0.86
		c-1.09-0.63-2.05-1.59-2.05-3.05c0-1.94,1.63-3.4,3.88-3.4c1.63,0,2.97,0.82,3.72,1.86l-1,0.84c-0.61-0.79-1.55-1.42-2.8-1.42
		c-1.34,0-2.24,0.94-2.24,1.98c0,0.96,0.67,1.52,1.46,1.99l1.52,0.9c1.19,0.75,2.05,1.61,2.05,3.13c0,2.36-1.88,3.76-4.28,3.76
		C182.01,266.32,180.59,265.44,179.73,264.06z"/>
	<path d="M193.58,263.65c0-0.4,0.06-0.77,0.15-1.21l0.92-4.49h-2.71l0.21-1.09l2.8-0.1l0.81-2.99H197l-0.61,2.99h4.58l-0.25,1.19
		h-4.6l-0.94,4.53c-0.08,0.35-0.1,0.59-0.1,0.84c0,1.19,0.67,1.75,1.73,1.75c0.92,0,1.75-0.29,2.42-0.67l0.48,1.07
		c-0.81,0.5-1.98,0.84-3.28,0.84C194.46,266.32,193.58,265.25,193.58,263.65z"/>
	<path d="M202.92,262.23c0-3.26,2.51-5.7,5.37-5.7c2.44,0,3.89,1.67,3.89,4.09c0,3.26-2.51,5.7-5.35,5.7
		C204.38,266.32,202.92,264.65,202.92,262.23z M210.69,260.72c0-1.8-0.94-2.93-2.51-2.93c-1.98,0-3.76,1.94-3.76,4.35
		c0,1.8,0.94,2.93,2.51,2.93C208.91,265.07,210.69,263.14,210.69,260.72z"/>
	<path d="M217.26,256.75l1.23,0.02l-0.4,2.67h0.08c1.05-1.59,2.55-2.9,4.18-2.9c0.81,0,1.44,0.17,1.88,0.48l-0.59,1.27
		c-0.48-0.29-0.94-0.4-1.55-0.4c-1.44,0-2.93,1.36-4.2,3.38l-0.98,4.83h-1.48L217.26,256.75z"/>
	<path d="M226.07,262.75c0-3.34,2.28-6.21,5.12-6.21c1.32,0,2.32,0.56,2.84,1.4h0.08l0.38-1.17h1.21l-1.88,9.32h-1.21l0.13-1.42
		h-0.08c-0.98,1-2.21,1.65-3.41,1.65C227.33,266.32,226.07,265.07,226.07,262.75z M232.89,263.27l0.86-4.12
		c-0.63-0.98-1.51-1.36-2.38-1.36c-2.13,0-3.8,2.24-3.8,4.74c0,1.75,0.84,2.55,2.13,2.55C230.73,265.07,231.88,264.46,232.89,263.27
		z"/>
	<path d="M236.89,269.1l0.69-1.07c0.75,0.65,1.84,1,2.88,1c1.65,0,2.99-0.75,3.38-2.53l0.44-1.98h-0.08c-0.9,0.88-2.13,1.5-3.32,1.5
		c-1.98,0-3.24-1.27-3.24-3.49c0-3.28,2.28-5.98,5.06-5.98c1.32,0,2.32,0.56,2.84,1.4h0.08l0.4-1.17h1.19l-1.98,9.78
		c-0.52,2.63-2.46,3.7-4.79,3.7C238.9,270.25,237.73,269.75,236.89,269.1z M244.42,263.12l0.84-3.95c-0.67-0.98-1.48-1.38-2.4-1.38
		c-1.99,0-3.72,2.09-3.72,4.49c0,1.71,0.82,2.49,2.17,2.49C242.33,264.77,243.45,264.17,244.42,263.12z"/>
	<path d="M249.3,262.29c0-3.36,2.49-5.75,5.31-5.75c2.28,0,3.55,1.52,3.55,3.59c0,0.65-0.15,1.42-0.25,1.67h-7.48l0.19-1.15h6.66
		l-0.61,0.29c0.08-0.27,0.12-0.58,0.12-0.86c0-1.46-0.86-2.36-2.24-2.36c-1.8,0-3.78,1.8-3.78,4.51c0,1.88,1.11,2.93,2.8,2.93
		c1.23,0,2.32-0.52,3.18-1.21l0.56,1c-0.94,0.75-2.4,1.38-4.03,1.38C250.85,266.32,249.3,264.9,249.3,262.29z"/>
</g>
<path d="M328.68,266.87v2.21c0,1.73-4.02,3.14-8.63,3.14c-4.61,0-8.63-1.41-8.63-3.14v-2.21c2.09,1.57,6.05,2.03,8.63,2.03
	C322.64,268.9,326.6,268.43,328.68,266.87z M320.05,263.8c-2.6,0-6.55-0.47-8.63-2.03v2.19c0,1.74,4.02,3.14,8.63,3.14
	c4.62,0,8.63-1.41,8.63-3.14v-2.19C326.59,263.33,322.63,263.8,320.05,263.8z M320.05,250.6c-4.61,0-8.63,1.41-8.63,3.14
	c0,1.74,4.02,3.14,8.63,3.14c4.62,0,8.63-1.41,8.63-3.14C328.68,252.01,324.66,250.6,320.05,250.6z M320.05,258.69
	c-2.6,0-6.55-0.47-8.63-2.03v2.2c0,1.74,4.02,3.14,8.63,3.14c4.62,0,8.63-1.41,8.63-3.14v-2.2
	C326.59,258.22,322.63,258.69,320.05,258.69z"/>
<g>
	<path d="M182.59,168.05h2.51c3.41,0,5.24,1.78,5.24,4.91c0,4.58-2.55,7.67-6.87,7.67h-3.39L182.59,168.05z M183.47,179.41
		c3.3,0,5.33-2.47,5.33-6.35c0-2.4-1.32-3.78-3.76-3.78h-1.21l-2.01,10.13H183.47z"/>
	<path d="M195.31,178.52c0-0.33,0.06-0.65,0.13-1.04l1.13-4.99h-3.41l0.25-1.19h4.87l-1.38,6.33c-0.06,0.21-0.08,0.42-0.08,0.59
		c0,0.98,0.58,1.38,1.42,1.38c0.58,0,1.11-0.19,1.78-0.48l0.34,1.11c-0.79,0.36-1.53,0.61-2.55,0.61
		C196.33,180.86,195.31,180.06,195.31,178.52z M196.64,168.3c0-0.71,0.61-1.32,1.32-1.32c0.67,0,1.11,0.38,1.11,1.04
		c0,0.75-0.61,1.32-1.34,1.32C197.12,169.34,196.64,168.97,196.64,168.3z"/>
	<path d="M203.74,179.16l0.86-0.94c0.9,1.02,2.19,1.5,3.53,1.5c1.3,0,2.26-0.46,2.26-1.48c0-0.9-0.9-1.25-2.46-1.76
		c-1.94-0.65-2.8-1.44-2.8-2.74c0-1.78,1.59-2.65,3.49-2.65c1.78,0,3.11,0.73,3.89,1.52l-0.83,0.92c-0.77-0.67-1.84-1.29-3.22-1.29
		c-1.21,0-1.94,0.5-1.94,1.32c0,0.86,0.81,1.25,2.3,1.76c1.75,0.58,2.95,1.21,2.95,2.72c0,2.01-1.75,2.82-3.93,2.82
		C206.25,180.86,204.64,180.19,203.74,179.16z"/>
	<path d="M216.75,171.31h1.23l-0.17,1.44h0.08c0.96-0.9,2.15-1.67,3.43-1.67c1.94,0,3.18,1.32,3.18,3.7c0,3.38-2.05,6.08-5.12,6.08
		c-1.17,0-2.21-0.56-2.8-1.34h-0.08l-0.35,1.99l-0.58,3.05h-1.48L216.75,171.31z M222.98,174.99c0-1.8-0.86-2.67-2.17-2.67
		c-0.94,0-2.15,0.67-3.13,1.78l-0.86,4.18c0.65,0.98,1.55,1.32,2.46,1.32C221.41,179.62,222.98,177.51,222.98,174.99z"/>
	<path d="M226.7,177.3c0-3.34,2.28-6.21,5.12-6.21c1.32,0,2.32,0.56,2.84,1.4h0.08l0.38-1.17h1.21l-1.88,9.32h-1.21l0.13-1.42h-0.08
		c-0.98,1-2.21,1.65-3.41,1.65C227.97,180.86,226.7,179.62,226.7,177.3z M233.53,177.81l0.86-4.12c-0.63-0.98-1.51-1.36-2.38-1.36
		c-2.13,0-3.8,2.24-3.8,4.74c0,1.75,0.84,2.55,2.13,2.55C231.37,179.62,232.52,179,233.53,177.81z"/>
	<path d="M240.27,178.2c0-0.4,0.06-0.77,0.15-1.21l0.92-4.49h-2.71l0.21-1.09l2.8-0.1l0.81-2.99h1.23l-0.61,2.99h4.58l-0.25,1.19
		h-4.6l-0.94,4.53c-0.08,0.35-0.1,0.59-0.1,0.84c0,1.19,0.67,1.75,1.73,1.75c0.92,0,1.75-0.29,2.42-0.67l0.48,1.07
		c-0.81,0.5-1.98,0.84-3.28,0.84C241.15,180.86,240.27,179.79,240.27,178.2z"/>
	<path d="M250.02,176.76c0-3.4,2.7-5.68,5.62-5.68c1.63,0,2.84,0.79,3.51,1.67l-0.96,0.84c-0.67-0.84-1.53-1.27-2.74-1.27
		c-1.92,0-3.93,1.88-3.93,4.26c0,2.03,1.27,3.03,2.99,3.03c1.09,0,2.11-0.52,2.97-1.29l0.59,1.02c-0.98,0.9-2.36,1.52-3.76,1.52
		C251.88,180.86,250.02,179.48,250.02,176.76z"/>
	<path d="M263.66,166.98h1.48l-1.02,5.01l-0.31,1.19h0.08c1.15-1.13,2.49-2.09,4.12-2.09c1.65,0,2.4,0.92,2.4,2.32
		c0,0.54-0.08,1.02-0.17,1.53l-1.15,5.7h-1.48l1.11-5.54c0.1-0.48,0.17-0.88,0.17-1.3c0-0.92-0.52-1.42-1.48-1.42
		c-1.25,0-2.53,0.82-3.8,2.24l-1.21,6.02h-1.48L263.66,166.98z"/>
	<path d="M272.96,176.84c0-3.36,2.49-5.75,5.31-5.75c2.28,0,3.55,1.52,3.55,3.59c0,0.65-0.15,1.42-0.25,1.67h-7.48l0.19-1.15h6.66
		l-0.61,0.29c0.08-0.27,0.12-0.58,0.12-0.86c0-1.46-0.86-2.36-2.24-2.36c-1.8,0-3.78,1.8-3.78,4.51c0,1.88,1.11,2.93,2.8,2.93
		c1.23,0,2.32-0.52,3.18-1.21l0.56,1c-0.94,0.75-2.4,1.38-4.03,1.38C274.52,180.86,272.96,179.44,272.96,176.84z"/>
	<path d="M286.97,171.29l1.23,0.02l-0.4,2.67h0.08c1.05-1.59,2.55-2.9,4.18-2.9c0.81,0,1.44,0.17,1.88,0.48l-0.59,1.27
		c-0.48-0.29-0.94-0.4-1.55-0.4c-1.44,0-2.93,1.36-4.2,3.38l-0.98,4.83h-1.48L286.97,171.29z"/>
</g>
<g>
	<path d="M50.41,195.54l0.86-0.94c0.9,1.02,2.19,1.5,3.53,1.5c1.3,0,2.26-0.46,2.26-1.48c0-0.9-0.9-1.25-2.46-1.76
		c-1.94-0.65-2.8-1.44-2.8-2.74c0-1.78,1.59-2.65,3.49-2.65c1.78,0,3.11,0.73,3.89,1.52l-0.83,0.92c-0.77-0.67-1.84-1.29-3.22-1.29
		c-1.21,0-1.94,0.5-1.94,1.32c0,0.86,0.81,1.25,2.3,1.76c1.75,0.58,2.95,1.21,2.95,2.72c0,2.01-1.75,2.82-3.93,2.82
		C52.92,197.24,51.31,196.57,50.41,195.54z"/>
	<path d="M63.4,187.69h1.23l-0.25,1.9h0.08c1.13-1.11,2.51-2.13,4.18-2.13c1.65,0,2.4,0.92,2.4,2.32c0,0.54-0.08,1.02-0.17,1.53
		l-1.15,5.7h-1.48l1.11-5.54c0.1-0.48,0.17-0.88,0.17-1.3c0-0.92-0.52-1.42-1.48-1.42c-1.25,0-2.53,0.82-3.8,2.24l-1.21,6.02h-1.48
		L63.4,187.69z"/>
	<path d="M76.52,194.9c0-0.33,0.06-0.65,0.13-1.04l1.13-4.99h-3.41l0.25-1.19h4.87l-1.38,6.33c-0.06,0.21-0.08,0.42-0.08,0.59
		c0,0.98,0.58,1.38,1.42,1.38c0.58,0,1.11-0.19,1.78-0.48l0.34,1.11c-0.79,0.36-1.53,0.61-2.55,0.61
		C77.54,197.24,76.52,196.44,76.52,194.9z M77.85,184.68c0-0.71,0.61-1.32,1.32-1.32c0.67,0,1.11,0.38,1.11,1.04
		c0,0.75-0.61,1.32-1.34,1.32C78.33,185.72,77.85,185.35,77.85,184.68z"/>
	<path d="M86.45,187.69h1.23l-0.17,1.44h0.08c0.96-0.9,2.15-1.67,3.43-1.67c1.94,0,3.18,1.32,3.18,3.7c0,3.38-2.05,6.08-5.12,6.08
		c-1.17,0-2.21-0.56-2.8-1.34H86.2l-0.35,1.99l-0.58,3.05H83.8L86.45,187.69z M92.68,191.37c0-1.8-0.86-2.67-2.17-2.67
		c-0.94,0-2.15,0.67-3.13,1.78l-0.86,4.18c0.65,0.98,1.55,1.32,2.46,1.32C91.11,196,92.68,193.89,92.68,191.37z"/>
	<path d="M97.96,187.69h1.23l-0.17,1.44h0.08c0.96-0.9,2.15-1.67,3.43-1.67c1.94,0,3.18,1.32,3.18,3.7c0,3.38-2.05,6.08-5.12,6.08
		c-1.17,0-2.21-0.56-2.8-1.34h-0.08l-0.35,1.99l-0.58,3.05h-1.48L97.96,187.69z M104.19,191.37c0-1.8-0.86-2.67-2.17-2.67
		c-0.94,0-2.15,0.67-3.13,1.78l-0.86,4.18c0.65,0.98,1.55,1.32,2.46,1.32C102.62,196,104.19,193.89,104.19,191.37z"/>
	<path d="M108.13,193.22c0-3.36,2.49-5.75,5.31-5.75c2.28,0,3.55,1.52,3.55,3.59c0,0.65-0.15,1.42-0.25,1.67h-7.48l0.19-1.15h6.66
		l-0.61,0.29c0.08-0.27,0.12-0.58,0.12-0.86c0-1.46-0.86-2.36-2.24-2.36c-1.8,0-3.78,1.8-3.78,4.51c0,1.88,1.11,2.93,2.8,2.93
		c1.23,0,2.32-0.52,3.18-1.21l0.56,1c-0.94,0.75-2.4,1.38-4.03,1.38C109.68,197.24,108.13,195.82,108.13,193.22z"/>
	<path d="M121.48,194.58c0-0.4,0.06-0.77,0.15-1.21l0.92-4.49h-2.71l0.21-1.09l2.8-0.1l0.81-2.99h1.23l-0.61,2.99h4.58l-0.25,1.19
		h-4.6l-0.94,4.53c-0.08,0.35-0.1,0.59-0.1,0.84c0,1.19,0.67,1.75,1.73,1.75c0.92,0,1.75-0.29,2.42-0.67l0.48,1.07
		c-0.81,0.5-1.98,0.84-3.28,0.84C122.36,197.24,121.48,196.17,121.48,194.58z"/>
	<path d="M131,195.54l0.86-0.94c0.9,1.02,2.19,1.5,3.53,1.5c1.3,0,2.26-0.46,2.26-1.48c0-0.9-0.9-1.25-2.46-1.76
		c-1.94-0.65-2.8-1.44-2.8-2.74c0-1.78,1.59-2.65,3.49-2.65c1.78,0,3.11,0.73,3.89,1.52l-0.83,0.92c-0.77-0.67-1.84-1.29-3.22-1.29
		c-1.21,0-1.94,0.5-1.94,1.32c0,0.86,0.81,1.25,2.3,1.76c1.75,0.58,2.95,1.21,2.95,2.72c0,2.01-1.75,2.82-3.93,2.82
		C133.51,197.24,131.9,196.57,131,195.54z"/>
</g>
<g>
	<path class="st4" d="M107.06,176.23c0-15.35,7.68-15.35,9.59-15.35s40.61,0,40.61,0"/>
	<g>
		<path class="st5" d="M107.06,176.23c0-15.35,7.67-15.35,9.59-15.35c1.52,0,26.17,0,36.31,0"/>
		<g>
			<polygon points="152.09,163.87 157.27,160.88 152.09,157.88 			"/>
		</g>
	</g>
</g>
<g>
	<path class="st4" d="M106.1,204.05c0,15.35,0.63,26.6,1.58,34.86c2.64,22.7,7.8,22.7,9.41,22.7c2.2,0,46.56,0,46.56,0"/>
	<g>
		<path class="st5" d="M106.1,204.05c0,15.35,0.63,26.6,1.58,34.86c2.64,22.7,7.8,22.7,9.41,22.7c1.78,0,31.07,0,42.26,0"/>
		<g>
			<polygon points="158.49,264.6 163.67,261.61 158.49,258.62 			"/>
		</g>
	</g>
</g>
<g>
	<path d="M145.7,350.14c-0.12-2.16-0.25-4.77-0.23-6.7h-0.07c-0.53,1.82-1.17,3.75-1.96,5.89l-2.74,7.53h-1.52l-2.51-7.39
		c-0.74-2.19-1.36-4.19-1.8-6.03h-0.05c-0.05,1.93-0.16,4.54-0.3,6.86l-0.41,6.65h-1.91l1.08-15.52h2.56l2.65,7.51
		c0.65,1.91,1.17,3.61,1.57,5.23h0.07c0.39-1.57,0.94-3.27,1.63-5.23l2.76-7.51h2.56l0.97,15.52h-1.96L145.7,350.14z"/>
	<path d="M152.33,351.75c0.05,2.74,1.8,3.87,3.82,3.87c1.45,0,2.33-0.25,3.08-0.58l0.35,1.45c-0.71,0.32-1.93,0.69-3.71,0.69
		c-3.43,0-5.48-2.26-5.48-5.62c0-3.36,1.98-6.01,5.23-6.01c3.64,0,4.61,3.2,4.61,5.25c0,0.41-0.05,0.74-0.07,0.94H152.33z
		 M158.27,350.3c0.02-1.29-0.53-3.29-2.81-3.29c-2.05,0-2.95,1.89-3.11,3.29H158.27z"/>
	<path d="M165.18,342.61v3.2h2.9v1.54h-2.9v6.01c0,1.38,0.39,2.16,1.52,2.16c0.53,0,0.92-0.07,1.17-0.14l0.09,1.52
		c-0.39,0.16-1.01,0.28-1.8,0.28c-0.94,0-1.7-0.3-2.19-0.85c-0.58-0.6-0.78-1.59-0.78-2.9v-6.08h-1.73v-1.54h1.73v-2.67
		L165.18,342.61z"/>
	<path d="M176.53,356.95l-0.16-1.4h-0.07c-0.62,0.88-1.82,1.66-3.41,1.66c-2.26,0-3.41-1.59-3.41-3.2c0-2.69,2.39-4.17,6.7-4.14
		v-0.23c0-0.92-0.25-2.58-2.53-2.58c-1.04,0-2.12,0.32-2.9,0.83l-0.46-1.34c0.92-0.6,2.26-0.99,3.66-0.99
		c3.41,0,4.24,2.33,4.24,4.56v4.17c0,0.97,0.05,1.91,0.18,2.67H176.53z M176.23,351.26c-2.21-0.05-4.72,0.35-4.72,2.51
		c0,1.31,0.88,1.93,1.91,1.93c1.45,0,2.37-0.92,2.69-1.87c0.07-0.21,0.12-0.44,0.12-0.64V351.26z"/>
	<path d="M181.46,340.6h2.03v16.35h-2.03V340.6z"/>
	<path d="M186.62,354.88c0.6,0.39,1.66,0.81,2.67,0.81c1.47,0,2.17-0.74,2.17-1.66c0-0.97-0.58-1.5-2.07-2.05
		c-2-0.71-2.95-1.82-2.95-3.15c0-1.8,1.45-3.27,3.84-3.27c1.13,0,2.12,0.32,2.74,0.69l-0.51,1.47c-0.44-0.28-1.24-0.64-2.28-0.64
		c-1.2,0-1.87,0.69-1.87,1.52c0,0.92,0.67,1.34,2.12,1.89c1.93,0.74,2.92,1.7,2.92,3.36c0,1.96-1.52,3.34-4.17,3.34
		c-1.22,0-2.35-0.3-3.13-0.76L186.62,354.88z"/>
	<path d="M200.89,349.28c0-1.31-0.02-2.44-0.09-3.48h1.77l0.07,2.19h0.09c0.51-1.5,1.73-2.44,3.09-2.44c0.23,0,0.39,0.02,0.58,0.07
		v1.91c-0.21-0.05-0.41-0.07-0.69-0.07c-1.43,0-2.44,1.08-2.72,2.6c-0.05,0.28-0.09,0.6-0.09,0.94v5.94h-2V349.28z"/>
	<path d="M217.75,353.91c0,1.15,0.02,2.16,0.09,3.04h-1.8l-0.12-1.82h-0.05c-0.53,0.9-1.7,2.07-3.68,2.07
		c-1.75,0-3.85-0.97-3.85-4.88v-6.52h2.03v6.17c0,2.12,0.65,3.55,2.49,3.55c1.36,0,2.3-0.94,2.67-1.84c0.12-0.3,0.18-0.67,0.18-1.04
		v-6.84h2.03V353.91z"/>
	<path d="M221.11,348.82c0-1.15-0.02-2.1-0.09-3.02h1.8l0.12,1.84h0.05c0.55-1.06,1.84-2.1,3.68-2.1c1.54,0,3.94,0.92,3.94,4.74
		v6.65h-2.03v-6.42c0-1.8-0.67-3.29-2.58-3.29c-1.34,0-2.37,0.94-2.72,2.07c-0.09,0.25-0.14,0.6-0.14,0.94v6.7h-2.03V348.82z"/>
	<path d="M233.88,348.82c0-1.15-0.02-2.1-0.09-3.02h1.8l0.12,1.84h0.05c0.55-1.06,1.84-2.1,3.68-2.1c1.54,0,3.94,0.92,3.94,4.74
		v6.65h-2.03v-6.42c0-1.8-0.67-3.29-2.58-3.29c-1.34,0-2.37,0.94-2.72,2.07c-0.09,0.25-0.14,0.6-0.14,0.94v6.7h-2.03V348.82z"/>
	<path d="M247.79,351.75c0.05,2.74,1.8,3.87,3.82,3.87c1.45,0,2.33-0.25,3.08-0.58l0.35,1.45c-0.71,0.32-1.93,0.69-3.71,0.69
		c-3.43,0-5.48-2.26-5.48-5.62c0-3.36,1.98-6.01,5.23-6.01c3.64,0,4.61,3.2,4.61,5.25c0,0.41-0.05,0.74-0.07,0.94H247.79z
		 M253.73,350.3c0.02-1.29-0.53-3.29-2.81-3.29c-2.05,0-2.95,1.89-3.11,3.29H253.73z"/>
	<path d="M258.2,349.28c0-1.31-0.02-2.44-0.09-3.48h1.77l0.07,2.19h0.09c0.51-1.5,1.73-2.44,3.09-2.44c0.23,0,0.39,0.02,0.58,0.07
		v1.91c-0.21-0.05-0.41-0.07-0.69-0.07c-1.43,0-2.44,1.08-2.72,2.6c-0.05,0.28-0.09,0.6-0.09,0.94v5.94h-2V349.28z"/>
</g>
<rect x="52" y="39.04" class="st5" width="345.76" height="270.54"/>
<polygon class="st5" points="397.76,374.82 52,372.82 52,324.85 397.76,326.85 "/>
<g>
	<g>
		<line class="st6" x1="324.99" y1="176.23" x2="482.57" y2="176.23"/>
		<g>
			<polygon class="st2" points="320.05,176.23 327.01,179.07 325.36,176.23 327.01,173.38 			"/>
		</g>
		<g>
			<polygon class="st2" points="487.51,176.23 480.55,179.07 482.2,176.23 480.55,173.38 			"/>
		</g>
	</g>
</g>
<rect x="497.53" y="156.08" class="st3" width="165.01" height="40.29"/>
<g>
	<path d="M514.66,168h2v13.84h6.63v1.68h-8.63V168z"/>
	<path d="M535.22,177.85c0,4.12-2.85,5.92-5.55,5.92c-3.02,0-5.34-2.21-5.34-5.73c0-3.73,2.44-5.92,5.53-5.92
		C533.05,172.12,535.22,174.44,535.22,177.85z M526.38,177.97c0,2.44,1.41,4.28,3.38,4.28c1.93,0,3.38-1.82,3.38-4.33
		c0-1.89-0.94-4.28-3.34-4.28C527.41,173.64,526.38,175.85,526.38,177.97z"/>
	<path d="M543.94,183.52l-0.16-1.4h-0.07c-0.62,0.88-1.82,1.66-3.41,1.66c-2.26,0-3.41-1.59-3.41-3.2c0-2.69,2.39-4.17,6.7-4.14
		v-0.23c0-0.92-0.25-2.58-2.53-2.58c-1.04,0-2.12,0.32-2.9,0.83l-0.46-1.34c0.92-0.6,2.26-0.99,3.66-0.99
		c3.41,0,4.24,2.33,4.24,4.56v4.17c0,0.97,0.05,1.91,0.18,2.67H543.94z M543.64,177.83c-2.21-0.05-4.72,0.35-4.72,2.51
		c0,1.31,0.88,1.93,1.91,1.93c1.45,0,2.37-0.92,2.69-1.87c0.07-0.21,0.12-0.44,0.12-0.64V177.83z"/>
	<path d="M558.5,167.17v13.47c0,0.99,0.02,2.12,0.09,2.88h-1.82l-0.09-1.93h-0.05c-0.62,1.24-1.98,2.19-3.8,2.19
		c-2.69,0-4.77-2.28-4.77-5.66c-0.02-3.71,2.28-5.99,5-5.99c1.7,0,2.86,0.81,3.36,1.7h0.05v-6.65H558.5z M556.47,176.91
		c0-0.25-0.02-0.6-0.09-0.85c-0.3-1.29-1.41-2.35-2.92-2.35c-2.09,0-3.34,1.84-3.34,4.31c0,2.26,1.11,4.12,3.29,4.12
		c1.36,0,2.6-0.9,2.97-2.42c0.07-0.28,0.09-0.55,0.09-0.88V176.91z"/>
	<path d="M566.65,183.52c0.05-0.76,0.09-1.89,0.09-2.88v-13.47h2v7h0.05c0.71-1.24,2-2.05,3.8-2.05c2.76,0,4.72,2.3,4.7,5.69
		c0,3.98-2.51,5.96-5,5.96c-1.61,0-2.9-0.62-3.73-2.1h-0.07l-0.09,1.84H566.65z M568.74,179.05c0,0.25,0.05,0.51,0.09,0.74
		c0.39,1.4,1.57,2.37,3.04,2.37c2.12,0,3.38-1.73,3.38-4.28c0-2.23-1.15-4.14-3.32-4.14c-1.38,0-2.67,0.94-3.09,2.49
		c-0.05,0.23-0.11,0.51-0.11,0.83V179.05z"/>
	<path d="M586.01,183.52l-0.16-1.4h-0.07c-0.62,0.88-1.82,1.66-3.41,1.66c-2.26,0-3.41-1.59-3.41-3.2c0-2.69,2.39-4.17,6.7-4.14
		v-0.23c0-0.92-0.25-2.58-2.53-2.58c-1.04,0-2.12,0.32-2.9,0.83l-0.46-1.34c0.92-0.6,2.26-0.99,3.66-0.99
		c3.41,0,4.24,2.33,4.24,4.56v4.17c0,0.97,0.05,1.91,0.18,2.67H586.01z M585.71,177.83c-2.21-0.05-4.72,0.35-4.72,2.51
		c0,1.31,0.88,1.93,1.91,1.93c1.45,0,2.37-0.92,2.69-1.87c0.07-0.21,0.12-0.44,0.12-0.64V177.83z"/>
	<path d="M590.94,167.17h2.03v16.35h-2.03V167.17z"/>
	<path d="M602.54,183.52l-0.16-1.4h-0.07c-0.62,0.88-1.82,1.66-3.41,1.66c-2.26,0-3.41-1.59-3.41-3.2c0-2.69,2.39-4.17,6.7-4.14
		v-0.23c0-0.92-0.25-2.58-2.53-2.58c-1.04,0-2.12,0.32-2.9,0.83l-0.46-1.34c0.92-0.6,2.26-0.99,3.66-0.99
		c3.41,0,4.24,2.33,4.24,4.56v4.17c0,0.97,0.05,1.91,0.18,2.67H602.54z M602.24,177.83c-2.21-0.05-4.72,0.35-4.72,2.51
		c0,1.31,0.88,1.93,1.91,1.93c1.45,0,2.37-0.92,2.69-1.87c0.07-0.21,0.12-0.44,0.12-0.64V177.83z"/>
	<path d="M607.47,175.39c0-1.15-0.02-2.1-0.09-3.02h1.8l0.12,1.84h0.05c0.55-1.06,1.84-2.1,3.68-2.1c1.54,0,3.94,0.92,3.94,4.74
		v6.65h-2.03v-6.42c0-1.8-0.67-3.29-2.58-3.29c-1.34,0-2.37,0.94-2.72,2.07c-0.09,0.25-0.14,0.6-0.14,0.94v6.7h-2.03V175.39z"/>
	<path d="M628.19,183.1c-0.53,0.28-1.7,0.65-3.2,0.65c-3.36,0-5.55-2.28-5.55-5.69c0-3.43,2.35-5.92,5.99-5.92
		c1.2,0,2.26,0.3,2.81,0.58l-0.46,1.57c-0.48-0.28-1.24-0.53-2.35-0.53c-2.56,0-3.94,1.89-3.94,4.21c0,2.58,1.66,4.17,3.87,4.17
		c1.15,0,1.91-0.3,2.49-0.55L628.19,183.1z"/>
	<path d="M631.55,178.31c0.05,2.74,1.8,3.87,3.82,3.87c1.45,0,2.33-0.25,3.08-0.58l0.35,1.45c-0.71,0.32-1.93,0.69-3.71,0.69
		c-3.43,0-5.48-2.26-5.48-5.62c0-3.36,1.98-6.01,5.23-6.01c3.64,0,4.61,3.2,4.61,5.25c0,0.41-0.05,0.74-0.07,0.94H631.55z
		 M637.49,176.86c0.02-1.29-0.53-3.29-2.81-3.29c-2.05,0-2.95,1.89-3.11,3.29H637.49z"/>
	<path d="M641.96,175.85c0-1.31-0.02-2.44-0.09-3.48h1.77l0.07,2.19h0.09c0.51-1.5,1.73-2.44,3.09-2.44c0.23,0,0.39,0.02,0.58,0.07
		v1.91c-0.21-0.05-0.41-0.07-0.69-0.07c-1.43,0-2.44,1.08-2.72,2.6c-0.05,0.28-0.09,0.6-0.09,0.94v5.94h-2V175.85z"/>
</g>
<g>
	<path class="st2" d="M418.37,165.75c0-3.34,2.28-6.21,5.12-6.21c1.32,0,2.32,0.56,2.84,1.4h0.08l0.38-1.17H428l-1.88,9.32h-1.21
		l0.13-1.42h-0.08c-0.98,1-2.21,1.65-3.41,1.65C419.63,169.32,418.37,168.07,418.37,165.75z M425.2,166.27l0.86-4.12
		c-0.63-0.98-1.51-1.36-2.38-1.36c-2.13,0-3.8,2.24-3.8,4.74c0,1.75,0.84,2.55,2.13,2.55C423.03,168.07,424.18,167.46,425.2,166.27z
		"/>
	<path class="st2" d="M432.55,155.43h1.5l-1.86,9.28h0.08l6.06-4.95h1.78l-4.87,4.14l-3.43,2.72l-0.5,2.46h-1.48L432.55,155.43z
		 M435.56,163.18l3.09,5.91h-1.55l-2.55-4.93L435.56,163.18z"/>
	<path class="st2" d="M444.06,155.43h1.5l-1.86,9.28h0.08l6.06-4.95h1.78l-4.87,4.14l-3.43,2.72l-0.5,2.46h-1.48L444.06,155.43z
		 M447.07,163.18l3.09,5.91h-1.55l-2.55-4.93L447.07,163.18z"/>
	<path class="st2" d="M452.9,165.75c0-3.34,2.28-6.21,5.12-6.21c1.32,0,2.32,0.56,2.84,1.4h0.08l0.38-1.17h1.21l-1.88,9.32h-1.21
		l0.13-1.42h-0.08c-0.98,1-2.21,1.65-3.41,1.65C454.17,169.32,452.9,168.07,452.9,165.75z M459.73,166.27l0.86-4.12
		c-0.63-0.98-1.51-1.36-2.38-1.36c-2.13,0-3.8,2.24-3.8,4.74c0,1.75,0.84,2.55,2.13,2.55C457.57,168.07,458.72,167.46,459.73,166.27
		z"/>
</g>
<g>
	<line class="st4" x1="670.4" y1="153.1" x2="754.11" y2="85.83"/>
	<g>
		<line class="st6" x1="674.26" y1="150.01" x2="750.26" y2="88.92"/>
		<g>
			<polygon class="st2" points="670.4,153.1 677.62,150.96 674.54,149.78 674.05,146.52 			"/>
		</g>
		<g>
			<polygon class="st2" points="754.11,85.83 750.46,92.41 749.97,89.15 746.9,87.97 			"/>
		</g>
	</g>
</g>
<rect x="769.99" y="65.9" class="st3" width="236.01" height="40.29"/>
<g>
	<path d="M785.28,91.53c0.9,0.55,2.21,1.01,3.59,1.01c2.05,0,3.25-1.08,3.25-2.65c0-1.45-0.83-2.28-2.92-3.09
		c-2.53-0.9-4.1-2.21-4.1-4.4c0-2.42,2-4.21,5.02-4.21c1.59,0,2.74,0.37,3.43,0.76l-0.55,1.63c-0.51-0.28-1.54-0.74-2.95-0.74
		c-2.12,0-2.92,1.27-2.92,2.33c0,1.45,0.94,2.16,3.09,2.99c2.62,1.01,3.96,2.28,3.96,4.56c0,2.39-1.77,4.47-5.43,4.47
		c-1.5,0-3.13-0.44-3.96-0.99L785.28,91.53z"/>
	<path d="M796.74,93.98c0.05-0.76,0.09-1.89,0.09-2.88V77.63h2v7h0.05c0.71-1.24,2-2.05,3.8-2.05c2.76,0,4.72,2.3,4.7,5.69
		c0,3.98-2.51,5.96-5,5.96c-1.61,0-2.9-0.62-3.73-2.1h-0.07l-0.09,1.84H796.74z M798.84,89.51c0,0.25,0.05,0.51,0.09,0.74
		c0.39,1.4,1.57,2.37,3.04,2.37c2.12,0,3.38-1.73,3.38-4.28c0-2.23-1.15-4.14-3.32-4.14c-1.38,0-2.67,0.94-3.09,2.49
		c-0.05,0.23-0.12,0.51-0.12,0.83V89.51z"/>
	<path d="M812.38,79.63v3.2h2.9v1.54h-2.9v6.01c0,1.38,0.39,2.16,1.52,2.16c0.53,0,0.92-0.07,1.17-0.14l0.09,1.52
		c-0.39,0.16-1.01,0.28-1.8,0.28c-0.94,0-1.7-0.3-2.19-0.85c-0.58-0.6-0.78-1.59-0.78-2.9v-6.08h-1.73v-1.54h1.73v-2.67
		L812.38,79.63z"/>
	<path d="M822.44,86.31c0-1.31-0.02-2.44-0.09-3.48h1.77l0.07,2.19h0.09c0.51-1.5,1.73-2.44,3.09-2.44c0.23,0,0.39,0.02,0.58,0.07
		v1.91c-0.21-0.05-0.41-0.07-0.69-0.07c-1.43,0-2.44,1.08-2.72,2.6c-0.05,0.28-0.09,0.6-0.09,0.94v5.94h-2V86.31z"/>
	<path d="M839.29,90.94c0,1.15,0.02,2.16,0.09,3.04h-1.8l-0.12-1.82h-0.05c-0.53,0.9-1.7,2.07-3.68,2.07
		c-1.75,0-3.85-0.97-3.85-4.88v-6.52h2.03V89c0,2.12,0.65,3.55,2.49,3.55c1.36,0,2.3-0.94,2.67-1.84c0.12-0.3,0.18-0.67,0.18-1.04
		v-6.84h2.03V90.94z"/>
	<path d="M842.65,85.85c0-1.15-0.02-2.1-0.09-3.02h1.8l0.12,1.84h0.05c0.55-1.06,1.84-2.1,3.68-2.1c1.54,0,3.94,0.92,3.94,4.74v6.65
		h-2.03v-6.42c0-1.8-0.67-3.29-2.58-3.29c-1.34,0-2.37,0.94-2.72,2.07c-0.09,0.25-0.14,0.6-0.14,0.94v6.7h-2.03V85.85z"/>
	<path d="M855.43,85.85c0-1.15-0.02-2.1-0.09-3.02h1.8l0.12,1.84h0.05c0.55-1.06,1.84-2.1,3.68-2.1c1.54,0,3.94,0.92,3.94,4.74v6.65
		h-2.03v-6.42c0-1.8-0.67-3.29-2.58-3.29c-1.34,0-2.37,0.94-2.72,2.07c-0.09,0.25-0.14,0.6-0.14,0.94v6.7h-2.03V85.85z"/>
	<path d="M869.34,88.77c0.05,2.74,1.8,3.87,3.82,3.87c1.45,0,2.33-0.25,3.08-0.58l0.35,1.45c-0.71,0.32-1.93,0.69-3.71,0.69
		c-3.43,0-5.48-2.26-5.48-5.62c0-3.36,1.98-6.01,5.23-6.01c3.64,0,4.61,3.2,4.61,5.25c0,0.41-0.05,0.74-0.07,0.94H869.34z
		 M875.28,87.32c0.02-1.29-0.53-3.29-2.81-3.29c-2.05,0-2.95,1.89-3.11,3.29H875.28z"/>
	<path d="M879.75,86.31c0-1.31-0.02-2.44-0.09-3.48h1.77l0.07,2.19h0.09c0.51-1.5,1.73-2.44,3.09-2.44c0.23,0,0.39,0.02,0.58,0.07
		v1.91c-0.21-0.05-0.41-0.07-0.69-0.07c-1.43,0-2.44,1.08-2.72,2.6c-0.05,0.28-0.09,0.6-0.09,0.94v5.94h-2V86.31z"/>
</g>
<g id="Layer_3_00000160187756852480868060000013062863524004690344_">
	<path class="st7" d="M944.91,91.42l-2.17,1.96c0,0,1.06,1.33,2.47,2.13c1.41,0.8,2.19,0.74,3.77,0.72c1.52,0,3.08-0.29,4.32-1.39
		c1.25-1.1,1.48-1.41,1.48-2.8c0-0.65-0.18-2.1-0.97-3.03c-0.89-1.05-2.42-1.57-2.42-1.57s-4.67-1.17-4.19-2.79
		c0.2-0.68,1.28-0.94,2.34-0.75c1.34,0.24,2.7,1.04,2.7,1.04l1.89-1.85c0,0-0.86-1.01-2.2-1.67c-0.99-0.49-2.36-0.66-3.24-0.67
		c-2.06-0.01-4.64,1.83-4.94,3.73c-0.22,1.39,0.23,2.56,1.25,3.46c1.29,1.12,2.21,1.27,2.21,1.27s4.11,1.06,4.11,2.34
		s-1,1.75-2.59,1.77C947.13,93.34,944.91,91.42,944.91,91.42z"/>
	<path class="st7" d="M974.53,81.44l0.03,2.98h1.7l0.02,8.82c0,0,0.29,1.01,1.06,1.77c0.99,0.97,2.03,1.22,2.03,1.22h3.34l0.02-3.04
		l-1.8-0.02c0,0-0.39,0.02-0.83-0.41c-0.46-0.44-0.44-1.01-0.44-1.01l0.03-7.35h3.27l0.02-2.98l-3.27-0.02l-0.03-5.76h-3.4
		l0.03,5.79L974.53,81.44L974.53,81.44z"/>
	<path class="st7" d="M967.69,82.16c-2.05-0.45-4.13-0.22-5.46,0.55l1.74-7.06l-3.47-0.85l-4.93,19.87l3.44,0.99l0.47-1.95
		c1.01,1.91,2.16,2.83,4.36,3.33c4.09,0.93,7.74-1.92,8.73-6.33C973.41,86.94,970.84,82.85,967.69,82.16z M968.68,93.16l-4.93,1.36
		l-3.68-3.73l1.25-5.08l4.93-1.36l3.68,3.73L968.68,93.16z"/>
</g>
<rect x="769.99" y="119.62" class="st3" width="236.01" height="40.29"/>
<g>
	<path d="M785.28,145.26c0.9,0.55,2.21,1.01,3.59,1.01c2.05,0,3.25-1.08,3.25-2.65c0-1.45-0.83-2.28-2.92-3.09
		c-2.53-0.9-4.1-2.21-4.1-4.4c0-2.42,2-4.21,5.02-4.21c1.59,0,2.74,0.37,3.43,0.76l-0.55,1.63c-0.51-0.28-1.54-0.74-2.95-0.74
		c-2.12,0-2.92,1.27-2.92,2.33c0,1.45,0.94,2.16,3.09,2.99c2.62,1.01,3.96,2.28,3.96,4.56c0,2.39-1.77,4.47-5.43,4.47
		c-1.5,0-3.13-0.44-3.96-0.99L785.28,145.26z"/>
	<path d="M796.75,147.7c0.05-0.76,0.09-1.89,0.09-2.88v-13.47h2v7h0.05c0.71-1.24,2-2.05,3.8-2.05c2.76,0,4.72,2.3,4.7,5.69
		c0,3.98-2.51,5.96-5,5.96c-1.61,0-2.9-0.62-3.73-2.1h-0.07l-0.09,1.84H796.75z M798.84,143.23c0,0.25,0.05,0.51,0.09,0.74
		c0.39,1.4,1.57,2.37,3.04,2.37c2.12,0,3.38-1.73,3.38-4.28c0-2.23-1.15-4.14-3.32-4.14c-1.38,0-2.67,0.94-3.09,2.49
		c-0.05,0.23-0.12,0.51-0.12,0.83V143.23z"/>
	<path d="M812.38,133.35v3.2h2.9v1.54h-2.9v6.01c0,1.38,0.39,2.16,1.52,2.16c0.53,0,0.92-0.07,1.17-0.14l0.09,1.52
		c-0.39,0.16-1.01,0.28-1.8,0.28c-0.94,0-1.7-0.3-2.19-0.85c-0.58-0.6-0.78-1.59-0.78-2.9v-6.08h-1.73v-1.54h1.73v-2.67
		L812.38,133.35z"/>
	<path d="M822.44,140.03c0-1.31-0.02-2.44-0.09-3.48h1.77l0.07,2.19h0.09c0.51-1.5,1.73-2.44,3.09-2.44c0.23,0,0.39,0.02,0.58,0.07
		v1.91c-0.21-0.05-0.41-0.07-0.69-0.07c-1.43,0-2.44,1.08-2.72,2.6c-0.05,0.28-0.09,0.6-0.09,0.94v5.94h-2V140.03z"/>
	<path d="M839.29,144.66c0,1.15,0.02,2.16,0.09,3.04h-1.8l-0.12-1.82h-0.05c-0.53,0.9-1.7,2.07-3.68,2.07
		c-1.75,0-3.85-0.97-3.85-4.88v-6.52h2.03v6.17c0,2.12,0.65,3.55,2.49,3.55c1.36,0,2.3-0.94,2.67-1.84c0.12-0.3,0.18-0.67,0.18-1.04
		v-6.84h2.03V144.66z"/>
	<path d="M842.66,139.57c0-1.15-0.02-2.1-0.09-3.02h1.8l0.12,1.84h0.05c0.55-1.06,1.84-2.1,3.68-2.1c1.54,0,3.94,0.92,3.94,4.74
		v6.65h-2.03v-6.42c0-1.8-0.67-3.29-2.58-3.29c-1.34,0-2.37,0.94-2.72,2.07c-0.09,0.25-0.14,0.6-0.14,0.94v6.7h-2.03V139.57z"/>
	<path d="M855.43,139.57c0-1.15-0.02-2.1-0.09-3.02h1.8l0.12,1.84h0.05c0.55-1.06,1.84-2.1,3.68-2.1c1.54,0,3.94,0.92,3.94,4.74
		v6.65h-2.03v-6.42c0-1.8-0.67-3.29-2.58-3.29c-1.34,0-2.37,0.94-2.72,2.07c-0.09,0.25-0.14,0.6-0.14,0.94v6.7h-2.03V139.57z"/>
	<path d="M869.34,142.5c0.05,2.74,1.8,3.87,3.82,3.87c1.45,0,2.33-0.25,3.08-0.58l0.35,1.45c-0.71,0.32-1.93,0.69-3.71,0.69
		c-3.43,0-5.48-2.26-5.48-5.62c0-3.36,1.98-6.01,5.23-6.01c3.64,0,4.61,3.2,4.61,5.25c0,0.41-0.05,0.74-0.07,0.94H869.34z
		 M875.28,141.05c0.02-1.29-0.53-3.29-2.81-3.29c-2.05,0-2.95,1.89-3.11,3.29H875.28z"/>
	<path d="M879.75,140.03c0-1.31-0.02-2.44-0.09-3.48h1.77l0.07,2.19h0.09c0.51-1.5,1.73-2.44,3.09-2.44c0.23,0,0.39,0.02,0.58,0.07
		v1.91c-0.21-0.05-0.41-0.07-0.69-0.07c-1.43,0-2.44,1.08-2.72,2.6c-0.05,0.28-0.09,0.6-0.09,0.94v5.94h-2V140.03z"/>
</g>
<g id="Layer_3_00000001650520345975177380000016295871861316027578_">
	<path class="st7" d="M944.91,145.15l-2.17,1.96c0,0,1.06,1.33,2.47,2.13c1.41,0.8,2.19,0.74,3.77,0.72c1.52,0,3.08-0.29,4.32-1.39
		c1.25-1.1,1.48-1.41,1.48-2.8c0-0.65-0.18-2.1-0.97-3.03c-0.89-1.05-2.42-1.57-2.42-1.57s-4.67-1.17-4.19-2.79
		c0.2-0.68,1.28-0.94,2.34-0.75c1.34,0.24,2.7,1.04,2.7,1.04l1.89-1.85c0,0-0.86-1.01-2.2-1.67c-0.99-0.49-2.36-0.66-3.24-0.67
		c-2.06-0.01-4.64,1.83-4.94,3.73c-0.22,1.39,0.23,2.56,1.25,3.46c1.29,1.12,2.21,1.27,2.21,1.27s4.11,1.06,4.11,2.34
		s-1,1.75-2.59,1.77S944.91,145.15,944.91,145.15z"/>
	<path class="st7" d="M974.53,135.17l0.03,2.98h1.7l0.02,8.82c0,0,0.29,1.01,1.06,1.77c0.99,0.97,2.03,1.22,2.03,1.22h3.34
		l0.02-3.04l-1.8-0.02c0,0-0.39,0.02-0.83-0.41c-0.46-0.44-0.44-1.01-0.44-1.01l0.03-7.35h3.27l0.02-2.98l-3.27-0.02l-0.03-5.76
		h-3.4l0.03,5.79L974.53,135.17L974.53,135.17z"/>
	<path class="st7" d="M967.69,135.88c-2.05-0.45-4.13-0.22-5.46,0.55l1.74-7.06l-3.47-0.85l-4.93,19.87l3.44,0.99l0.47-1.95
		c1.01,1.91,2.16,2.83,4.36,3.33c4.09,0.93,7.74-1.92,8.73-6.33C973.41,140.67,970.84,136.58,967.69,135.88z M968.68,146.89
		l-4.93,1.36l-3.68-3.73l1.25-5.08l4.93-1.36l3.68,3.73L968.68,146.89z"/>
</g>
<g>
	<line class="st4" x1="674.82" y1="164.69" x2="757.85" y2="136.42"/>
	<g>
		<line class="st6" x1="679.5" y1="163.1" x2="753.18" y2="138.01"/>
		<g>
			<polygon class="st2" points="674.82,164.69 682.33,165.14 679.85,162.98 680.5,159.75 			"/>
		</g>
		<g>
			<polygon class="st2" points="757.85,136.42 752.18,141.36 752.83,138.13 750.34,135.97 			"/>
		</g>
	</g>
</g>
<g>
	<g>
		<path class="st2" d="M719.04,182.52c1.93,0,1.93-3,0-3C717.11,179.52,717.11,182.52,719.04,182.52L719.04,182.52z"/>
	</g>
</g>
<g>
	<g>
		<path class="st2" d="M719.04,200c1.93,0,1.93-3,0-3C717.11,197,717.11,200,719.04,200L719.04,200z"/>
	</g>
</g>
<g>
	<g>
		<path class="st2" d="M719.04,215.14c1.93,0,1.93-3,0-3C717.11,212.14,717.11,215.14,719.04,215.14L719.04,215.14z"/>
	</g>
</g>
<g>
	<g>
		<path d="M877.02,193.82c1.93,0,1.93-3,0-3C875.09,190.82,875.08,193.82,877.02,193.82L877.02,193.82z"/>
	</g>
</g>
<g>
	<g>
		<path d="M877.02,216.85c1.93,0,1.93-3,0-3C875.09,213.85,875.08,216.85,877.02,216.85L877.02,216.85z"/>
	</g>
</g>
<g>
	<g>
		<path d="M876.16,245.2c1.93,0,1.93-3,0-3C874.23,242.2,874.23,245.2,876.16,245.2L876.16,245.2z"/>
	</g>
</g>
<rect x="769.99" y="281.44" class="st3" width="234.09" height="40.29"/>
<g>
	<path d="M785.15,307.08c0.89,0.55,2.19,1.01,3.56,1.01c2.03,0,3.22-1.08,3.22-2.65c0-1.45-0.82-2.28-2.9-3.09
		c-2.51-0.9-4.07-2.21-4.07-4.4c0-2.42,1.99-4.21,4.98-4.21c1.58,0,2.72,0.37,3.4,0.76l-0.55,1.63c-0.5-0.28-1.53-0.74-2.92-0.74
		c-2.1,0-2.9,1.27-2.9,2.33c0,1.45,0.94,2.16,3.06,2.99c2.6,1.01,3.93,2.28,3.93,4.56c0,2.39-1.76,4.47-5.39,4.47
		c-1.49,0-3.11-0.44-3.93-0.99L785.15,307.08z"/>
	<path d="M796.53,309.52c0.05-0.76,0.09-1.89,0.09-2.88v-13.47h1.99v7h0.05c0.71-1.24,1.99-2.05,3.77-2.05
		c2.74,0,4.68,2.3,4.66,5.69c0,3.98-2.49,5.96-4.96,5.96c-1.6,0-2.88-0.62-3.7-2.1h-0.07l-0.09,1.84H796.53z M798.6,305.05
		c0,0.25,0.05,0.51,0.09,0.74c0.39,1.4,1.55,2.37,3.02,2.37c2.1,0,3.36-1.73,3.36-4.28c0-2.23-1.14-4.14-3.29-4.14
		c-1.37,0-2.65,0.94-3.06,2.49c-0.04,0.23-0.11,0.51-0.11,0.83V305.05z"/>
	<path d="M812.03,295.17v3.2h2.88v1.54h-2.88v6.01c0,1.38,0.39,2.16,1.51,2.16c0.53,0,0.91-0.07,1.17-0.14l0.09,1.52
		c-0.39,0.16-1,0.28-1.78,0.28c-0.94,0-1.69-0.3-2.17-0.85c-0.57-0.6-0.78-1.59-0.78-2.9v-6.08h-1.71v-1.54h1.71v-2.67
		L812.03,295.17z"/>
	<path d="M822.01,301.85c0-1.31-0.02-2.44-0.09-3.48h1.76l0.07,2.19h0.09c0.5-1.5,1.71-2.44,3.06-2.44c0.23,0,0.39,0.02,0.57,0.07
		v1.91c-0.21-0.05-0.41-0.07-0.69-0.07c-1.42,0-2.42,1.08-2.7,2.6c-0.05,0.28-0.09,0.6-0.09,0.94v5.94h-1.99V301.85z"/>
	<path d="M838.73,306.48c0,1.15,0.02,2.16,0.09,3.04h-1.78l-0.11-1.82h-0.05c-0.53,0.9-1.69,2.07-3.65,2.07
		c-1.74,0-3.82-0.97-3.82-4.88v-6.52h2.01v6.17c0,2.12,0.64,3.55,2.47,3.55c1.35,0,2.28-0.94,2.65-1.84
		c0.11-0.3,0.18-0.67,0.18-1.04v-6.84h2.01V306.48z"/>
	<path d="M842.06,301.39c0-1.15-0.02-2.1-0.09-3.02h1.78l0.11,1.84h0.05c0.55-1.06,1.83-2.1,3.66-2.1c1.53,0,3.91,0.92,3.91,4.74
		v6.65h-2.01v-6.42c0-1.8-0.66-3.29-2.56-3.29c-1.32,0-2.35,0.94-2.7,2.07c-0.09,0.25-0.14,0.6-0.14,0.94v6.7h-2.01V301.39z"/>
	<path d="M854.74,301.39c0-1.15-0.02-2.1-0.09-3.02h1.78l0.11,1.84h0.05c0.55-1.06,1.83-2.1,3.66-2.1c1.53,0,3.91,0.92,3.91,4.74
		v6.65h-2.01v-6.42c0-1.8-0.66-3.29-2.56-3.29c-1.32,0-2.35,0.94-2.7,2.07c-0.09,0.25-0.14,0.6-0.14,0.94v6.7h-2.01V301.39z"/>
	<path d="M868.53,304.31c0.04,2.74,1.78,3.87,3.79,3.87c1.44,0,2.31-0.25,3.06-0.58l0.34,1.45c-0.71,0.32-1.92,0.69-3.68,0.69
		c-3.4,0-5.44-2.26-5.44-5.62c0-3.36,1.96-6.01,5.19-6.01c3.61,0,4.57,3.2,4.57,5.25c0,0.41-0.05,0.74-0.07,0.94H868.53z
		 M874.42,302.86c0.02-1.29-0.53-3.29-2.79-3.29c-2.03,0-2.92,1.89-3.08,3.29H874.42z"/>
	<path d="M878.85,301.85c0-1.31-0.02-2.44-0.09-3.48h1.76l0.07,2.19h0.09c0.5-1.5,1.71-2.44,3.06-2.44c0.23,0,0.39,0.02,0.57,0.07
		v1.91c-0.21-0.05-0.41-0.07-0.69-0.07c-1.42,0-2.42,1.08-2.7,2.6c-0.05,0.28-0.09,0.6-0.09,0.94v5.94h-1.99V301.85z"/>
</g>
<g id="Layer_3_00000151535344560750412500000003534524869712912015_">
	<path class="st7" d="M943.48,306.96l-2.15,1.96c0,0,1.05,1.33,2.45,2.13c1.4,0.8,2.17,0.74,3.74,0.72c1.51,0,3.05-0.29,4.29-1.39
		c1.24-1.1,1.47-1.41,1.47-2.8c0-0.65-0.17-2.1-0.96-3.03c-0.89-1.05-2.4-1.57-2.4-1.57s-4.63-1.17-4.15-2.79
		c0.2-0.68,1.27-0.94,2.32-0.75c1.33,0.24,2.67,1.04,2.67,1.04l1.88-1.85c0,0-0.86-1.01-2.19-1.67c-0.98-0.49-2.34-0.66-3.21-0.67
		c-2.04-0.01-4.6,1.83-4.9,3.73c-0.22,1.39,0.22,2.56,1.24,3.46c1.28,1.12,2.19,1.27,2.19,1.27s4.08,1.06,4.08,2.34
		s-0.99,1.75-2.57,1.77C945.69,308.88,943.48,306.96,943.48,306.96z"/>
	<path class="st7" d="M972.87,296.98l0.03,2.98h1.69l0.02,8.82c0,0,0.29,1.01,1.05,1.77c0.98,0.97,2.01,1.22,2.01,1.22h3.31
		l0.02-3.04l-1.79-0.02c0,0-0.39,0.02-0.83-0.41c-0.45-0.44-0.44-1.01-0.44-1.01l0.03-7.35h3.25l0.02-2.98l-3.25-0.02l-0.03-5.76
		h-3.38l0.03,5.79L972.87,296.98L972.87,296.98z"/>
	<path class="st7" d="M966.08,297.7c-2.03-0.45-4.1-0.22-5.42,0.55l1.72-7.06l-3.44-0.85l-4.89,19.87l3.41,0.99l0.47-1.95
		c1,1.91,2.14,2.83,4.33,3.33c4.06,0.93,7.68-1.92,8.65-6.33C971.76,302.48,969.2,298.39,966.08,297.7z M967.07,308.7l-4.89,1.36
		l-3.65-3.73l1.24-5.08l4.89-1.36l3.65,3.73L967.07,308.7z"/>
</g>
<g>
	<line class="st4" x1="677.72" y1="208.74" x2="759.12" y2="309.06"/>
	<g>
		<line class="st6" x1="680.83" y1="212.58" x2="756.01" y2="305.22"/>
		<g>
			<polygon class="st2" points="677.72,208.74 679.89,215.94 681.06,212.87 684.31,212.36 			"/>
		</g>
		<g>
			<polygon class="st2" points="759.12,309.06 752.53,305.44 755.78,304.93 756.94,301.86 			"/>
		</g>
	</g>
</g>
<g>
	<path class="st2" d="M686.35,90.05c0-3.34,2.28-6.21,5.12-6.21c1.32,0,2.32,0.56,2.84,1.4h0.08l0.38-1.17h1.21l-1.88,9.32h-1.21
		l0.13-1.42h-0.08c-0.98,1-2.21,1.65-3.41,1.65C687.62,93.61,686.35,92.37,686.35,90.05z M693.18,90.56l0.86-4.12
		c-0.63-0.98-1.51-1.36-2.38-1.36c-2.13,0-3.8,2.24-3.8,4.74c0,1.75,0.84,2.55,2.13,2.55C691.02,92.37,692.17,91.75,693.18,90.56z"
		/>
	<path class="st2" d="M700.53,79.73h1.5l-1.86,9.28h0.08l6.06-4.95h1.78l-4.87,4.14l-3.43,2.72l-0.5,2.46h-1.48L700.53,79.73z
		 M703.54,87.48l3.09,5.91h-1.55l-2.55-4.93L703.54,87.48z"/>
	<path class="st2" d="M712.04,79.73h1.5l-1.86,9.28h0.08l6.06-4.95h1.78l-4.87,4.14l-3.43,2.72l-0.5,2.46h-1.48L712.04,79.73z
		 M715.06,87.48l3.09,5.91h-1.55l-2.55-4.93L715.06,87.48z"/>
	<path class="st2" d="M720.89,90.05c0-3.34,2.28-6.21,5.12-6.21c1.32,0,2.32,0.56,2.84,1.4h0.08l0.38-1.17h1.21l-1.88,9.32h-1.21
		l0.13-1.42h-0.08c-0.98,1-2.21,1.65-3.41,1.65C722.16,93.61,720.89,92.37,720.89,90.05z M727.72,90.56l0.86-4.12
		c-0.63-0.98-1.51-1.36-2.38-1.36c-2.13,0-3.8,2.24-3.8,4.74c0,1.75,0.84,2.55,2.13,2.55C725.55,92.37,726.7,91.75,727.72,90.56z"/>
</g>
<circle class="st22" cx="884" cy="197" r="169"/>
<path class="st22" d="M781.5,331.5c-31,32.33-62,64.67-93,97"/>
</svg>
